<?xml version="1.0" standalone="no"?>
<!DOCTYPE svg PUBLIC "-//W3C//DTD SVG 1.1//EN" "http://www.w3.org/Graphics/SVG/1.1/DTD/svg11.dtd" >
<svg xmlns="http://www.w3.org/2000/svg" xmlns:xlink="http://www.w3.org/1999/xlink" version="1.1">
<metadata>
Created by FontForge 20170924 at Mon Dec 13 16:05:46 2021
 By www-data
Copyright \(c\) 2020 by Newlyn Works Limited. All rights reserved.
</metadata>
<defs>
<font id="NewSpirit-SemiBoldCondensed" horiz-adv-x="455" >
  <font-face 
    font-family="New Spirit SemiBold Condensed"
    font-weight="600"
    font-stretch="condensed"
    units-per-em="1000"
    panose-1="0 0 0 0 0 0 0 0 0 0"
    ascent="775"
    descent="-225"
    x-height="502"
    cap-height="714"
    bbox="-276 -258 1000 970"
    underline-thickness="50"
    underline-position="-125"
    stemh="66"
    stemv="125"
    unicode-range="U+0020-FB02"
  />
<missing-glyph horiz-adv-x="419" 
d="M0 0v712h419v-712h-419zM40 77l147 280l-147 280v-560zM66 41h288l-144 273zM66 673l144 -273l144 273h-288zM233 357l146 -278v556z" />
    <glyph glyph-name="f_l" unicode="fl" horiz-adv-x="528" 
d="M61 -3c-19 0 -27 13 -27 25c0 33 39 14 39 91v320h-40c-14 0 -19 8 -21 22c-1 9 -2 19 -2 27c0 11 8 18 20 18h41c-6 36 -10 67 -10 94c0 90 52 174 171 174c73 0 100 -33 126 -33c18 0 57 28 81 28c16 0 25 -11 25 -39v-611c0 -77 40 -56 40 -91c0 -11 -8 -25 -28 -25
c-17 0 -35 3 -75 3s-58 -3 -75 -3c-20 0 -27 13 -27 25c0 35 39 14 39 91v469c0 31 1 59 -15 81c-15 22 -43 40 -75 40c-45 0 -68 -37 -68 -93c0 -31 7 -71 16 -110h83c13 0 20 -7 20 -18c0 -13 -1 -20 -2 -28c-3 -14 -8 -21 -21 -21h-77v-320c0 -77 51 -53 51 -91
c0 -12 -8 -25 -27 -25c-20 0 -41 3 -87 3c-40 0 -57 -3 -75 -3z" />
    <glyph glyph-name=".notdef" horiz-adv-x="419" 
d="M0 0v712h419v-712h-419zM40 77l147 280l-147 280v-560zM66 41h288l-144 273zM66 673l144 -273l144 273h-288zM233 357l146 -278v556z" />
    <glyph glyph-name="space" unicode=" " horiz-adv-x="175" 
 />
    <glyph glyph-name="exclam" unicode="!" horiz-adv-x="228" 
d="M114 185c-16 0 -24 8 -29 26c-14 117 -44 331 -44 423c0 61 20 98 74 98c53 0 74 -37 74 -98c0 -92 -31 -307 -45 -422c-5 -20 -14 -27 -30 -27zM45 57c0 -42 25 -66 65 -66c46 0 79 33 79 74c0 42 -27 66 -67 66c-46 0 -77 -33 -77 -74z" />
    <glyph glyph-name="quotedbl" unicode="&#x22;" horiz-adv-x="311" 
d="M230 430c16 0 27 14 30 37l21 154c2 16 5 35 5 51c0 34 -23 56 -56 56s-56 -23 -56 -56c0 -16 3 -35 5 -51l21 -154c3 -22 12 -37 30 -37zM25 672c0 -16 3 -35 5 -51l21 -154c3 -22 12 -37 30 -37c16 0 27 14 30 37l21 154c2 16 5 35 5 51c0 34 -23 56 -56 56
s-56 -23 -56 -56z" />
    <glyph glyph-name="numbersign" unicode="#" horiz-adv-x="520" 
d="M123 -4c-30 0 -41 14 -38 38l20 145c2 11 -5 14 -11 14h-38c-30 0 -39 9 -35 39c5 35 21 38 46 38h38c7 0 13 5 14 13l20 145c1 9 -4 13 -12 13h-38c-29 0 -39 9 -34 39c4 32 19 38 46 38h38c7 0 13 4 14 13l20 146c4 28 15 39 45 39c26 0 41 -10 37 -39l-20 -145
c-1 -9 4 -14 12 -14h72c8 0 12 6 13 13l21 146c4 28 14 39 45 39c27 0 41 -11 37 -39l-20 -145c-2 -10 5 -14 12 -14h37c27 0 39 -6 35 -37c-5 -36 -21 -40 -45 -40h-39c-7 0 -13 -4 -14 -13l-19 -144c-2 -10 4 -14 11 -14h37c30 0 40 -9 36 -38c-5 -33 -19 -39 -46 -39h-38
c-8 0 -13 -4 -14 -12l-20 -147c-4 -26 -15 -38 -45 -38c-28 0 -42 12 -38 38l20 145c2 10 -5 14 -11 14h-73c-7 0 -13 -4 -14 -12l-20 -147c-3 -26 -13 -38 -44 -38zM202 284c-2 -11 5 -14 11 -14h72c8 0 14 5 15 13l19 145c1 9 -3 13 -11 13h-73c-7 0 -13 -4 -14 -13z" />
    <glyph glyph-name="dollar" unicode="$" horiz-adv-x="453" 
d="M104 -20c-16 0 -27 18 -34 43l-25 90c-13 49 -21 69 -21 89s11 30 24 30s23 -13 30 -29c30 -63 68 -124 125 -140v241c-69 43 -161 106 -161 238c0 102 71 184 153 184h8v75c0 25 9 38 30 38c22 0 29 -15 29 -38v-93c9 -4 16 -7 21 -7c18 0 16 31 35 31
c20 0 29 -25 43 -60l17 -45c20 -49 29 -76 29 -93c0 -13 -9 -23 -21 -23c-11 0 -22 10 -30 27c-25 50 -57 90 -94 107v-223c75 -44 164 -107 164 -246c0 -120 -78 -186 -164 -192v-86c0 -23 -5 -39 -29 -39c-23 0 -30 16 -30 39v93c-30 9 -48 23 -60 23
c-21 0 -22 -34 -39 -34zM152 562c0 -40 19 -74 51 -101v190c-32 -9 -51 -42 -51 -89zM262 62c33 11 55 43 55 93c0 51 -23 84 -55 110v-203z" />
    <glyph glyph-name="percent" unicode="%" horiz-adv-x="700" 
d="M175 -17c-23 0 -35 13 -35 28c0 17 10 38 26 71l291 611c15 31 35 49 65 49c21 0 31 -13 31 -28s-8 -37 -24 -71l-292 -611c-15 -32 -36 -49 -62 -49zM19 535c0 123 56 205 142 205c85 0 140 -80 140 -205c0 -123 -56 -203 -142 -203c-85 0 -140 81 -140 203zM117 535
c0 -101 17 -150 43 -150c27 0 43 50 43 150c0 101 -16 151 -43 151c-26 0 -43 -48 -43 -151zM399 197c0 123 56 205 142 205c85 0 140 -80 140 -205c0 -123 -56 -204 -142 -204c-85 0 -140 81 -140 204zM497 197c0 -102 17 -150 43 -150c27 0 44 50 44 150
c0 101 -17 151 -44 151c-26 0 -43 -49 -43 -151z" />
    <glyph glyph-name="ampersand" unicode="&#x26;" horiz-adv-x="617" 
d="M454 -3c-29 0 -33 12 -37 28s-6 19 -16 31l-22 27c-58 -63 -124 -98 -184 -98c-88 0 -171 75 -171 187c0 85 48 162 120 209c-36 50 -63 108 -63 172c0 106 72 174 167 174c91 0 145 -64 145 -142c0 -67 -40 -130 -111 -178l127 -161c36 75 61 171 61 272
c0 53 -7 64 -22 77c-7 7 -15 14 -15 26c0 13 9 23 15 28c10 8 38 22 52 22c28 0 35 -54 35 -122c0 -144 -33 -266 -82 -359l71 -89c42 -52 92 -40 92 -79c0 -15 -8 -25 -29 -25c-11 0 -30 3 -67 3s-52 -3 -66 -3zM150 203c0 -82 38 -127 85 -127c32 0 69 22 103 59l-153 193
c-20 -31 -35 -73 -35 -125zM193 579c0 -48 23 -87 54 -128c30 37 48 83 48 126c0 46 -21 85 -50 85c-28 0 -52 -34 -52 -83z" />
    <glyph glyph-name="quotesingle" unicode="'" horiz-adv-x="162" 
d="M81 430c16 0 27 14 30 37l21 154c2 16 5 35 5 51c0 34 -23 56 -56 56s-56 -23 -56 -56c0 -16 3 -35 5 -51l21 -154c3 -22 12 -37 30 -37z" />
    <glyph glyph-name="parenleft" unicode="(" horiz-adv-x="284" 
d="M169 332c0 -164 41 -280 75 -350c12 -26 25 -41 25 -57s-11 -25 -27 -25c-26 0 -62 24 -96 65c-57 69 -120 186 -120 367c0 176 62 299 121 369c32 39 70 64 96 64c16 0 26 -8 26 -23c0 -17 -15 -36 -25 -59c-32 -65 -75 -182 -75 -351z" />
    <glyph glyph-name="parenright" unicode=")" horiz-adv-x="284" 
d="M115 332c0 169 -43 286 -75 351c-10 23 -25 42 -25 59c0 15 10 23 26 23c26 0 64 -25 96 -64c59 -70 121 -193 121 -369c0 -181 -63 -298 -120 -367c-34 -41 -70 -65 -96 -65c-16 0 -27 9 -27 25s13 31 25 57c34 70 75 186 75 350z" />
    <glyph glyph-name="asterisk" unicode="*" horiz-adv-x="420" 
d="M128 358c-23 0 -53 22 -53 46c0 9 3 18 10 28c12 18 35 42 65 65c5 4 6 7 6 9c0 5 -5 7 -20 9c-33 3 -57 8 -79 16c-21 7 -30 18 -30 37c0 24 14 53 43 53c24 0 58 -28 96 -47c3 -2 6 -3 9 -3s4 2 4 5c0 2 0 6 -3 15c-6 29 -12 68 -12 87c0 30 15 44 46 44s46 -14 46 -44
c0 -19 -6 -58 -12 -87c-3 -9 -3 -13 -3 -15c0 -3 1 -5 4 -5s5 1 9 3c39 19 72 47 96 47c29 0 43 -29 43 -53c0 -19 -9 -30 -31 -37c-21 -8 -45 -13 -78 -16c-15 -2 -20 -4 -20 -9c0 -2 1 -5 6 -9c30 -24 52 -48 65 -65c8 -10 11 -19 11 -28c0 -24 -32 -46 -54 -46
c-12 0 -22 5 -31 19c-15 22 -31 52 -44 88c-2 5 -4 7 -7 7s-5 -2 -7 -7c-13 -36 -28 -66 -44 -88c-9 -14 -19 -19 -31 -19z" />
    <glyph glyph-name="plus" unicode="+" horiz-adv-x="453" 
d="M227 65c-26 0 -44 9 -44 32v156c0 8 -4 13 -13 13h-110c-23 0 -31 17 -31 42s8 42 31 42h110c8 0 13 4 13 13v146c0 23 18 31 44 31c25 0 43 -8 43 -31v-146c0 -8 4 -13 13 -13h110c23 0 31 -17 31 -42s-9 -42 -31 -42h-110c-8 0 -13 -4 -13 -13v-156
c0 -23 -18 -32 -43 -32z" />
    <glyph glyph-name="comma" unicode="," horiz-adv-x="212" 
d="M64 -145c-14 0 -23 9 -23 22c0 12 6 22 21 38c17 18 31 39 31 58c0 18 -7 26 -32 41c-20 12 -38 25 -38 57c0 44 38 78 84 78c49 0 78 -32 78 -92c0 -101 -72 -202 -121 -202z" />
    <glyph glyph-name="hyphen" unicode="-" horiz-adv-x="274" 
d="M67 211c-20 0 -32 6 -32 38v26c0 26 8 37 32 37h141c19 0 32 -7 32 -37v-26c0 -26 -8 -38 -33 -38h-140z" />
    <glyph glyph-name="period" unicode="." horiz-adv-x="203" 
d="M107 148c-50 0 -84 -37 -84 -83c0 -47 27 -74 71 -74c50 0 86 37 86 83c0 47 -30 74 -73 74z" />
    <glyph glyph-name="slash" unicode="/" horiz-adv-x="296" 
d="M54 -30c-23 0 -36 7 -36 24c0 7 3 20 6 32l167 654c7 27 27 33 52 33c24 0 36 -8 36 -24c0 -8 -4 -20 -7 -33l-167 -653c-6 -27 -26 -33 -51 -33z" />
    <glyph glyph-name="zero" unicode="0" horiz-adv-x="474" 
d="M237 -15c-121 0 -205 133 -205 371s84 372 205 372s206 -134 206 -372s-85 -371 -206 -371zM163 356c0 -197 30 -300 74 -300s74 103 74 300s-30 301 -74 301s-74 -104 -74 -301z" />
    <glyph glyph-name="one" unicode="1" horiz-adv-x="319" 
d="M73 -2c-20 0 -29 12 -29 25c0 47 64 20 64 92v422c0 35 -9 50 -26 50s-35 -10 -51 -10s-26 11 -26 27c0 14 9 25 22 31c38 15 69 23 131 48c55 22 76 40 94 40c15 0 23 -12 23 -26c0 -37 -35 -39 -35 -97v-485c0 -72 64 -45 64 -92c0 -12 -9 -25 -28 -25
c-24 0 -49 3 -102 3c-52 0 -77 -3 -101 -3z" />
    <glyph glyph-name="two" unicode="2" horiz-adv-x="452" 
d="M341 -23c-20 0 -24 23 -56 23h-168c-20 0 -48 -3 -74 -3c-24 0 -33 16 -33 32c0 15 4 23 18 49c47 85 116 183 150 250c36 68 63 123 63 190c0 61 -25 109 -65 109c-39 0 -64 -42 -86 -91c-9 -19 -19 -28 -32 -28c-16 0 -27 13 -27 31c0 12 5 26 10 41
c30 84 92 146 182 146c91 0 167 -80 167 -189c0 -101 -41 -173 -85 -233c-60 -81 -118 -137 -167 -196h139c35 0 57 7 101 85c10 17 20 28 33 28s23 -12 23 -28s-7 -37 -21 -78l-33 -96c-11 -31 -22 -42 -39 -42z" />
    <glyph glyph-name="three" unicode="3" horiz-adv-x="444" 
d="M214 -15c-103 0 -165 72 -186 133c-7 21 -10 34 -10 46c0 21 12 35 29 35c15 0 24 -12 32 -27c22 -43 54 -94 104 -94c48 0 84 53 84 138c0 82 -38 139 -76 139c-13 0 -24 -5 -36 -5c-19 0 -29 15 -29 31c0 24 36 35 55 59c41 57 82 121 115 177h-122
c-38 0 -49 -17 -89 -86c-9 -15 -18 -25 -32 -25c-12 0 -23 7 -23 25c0 22 8 40 17 72l26 82c10 33 17 50 36 50c20 0 28 -23 59 -23h133c17 0 54 3 65 3c33 0 40 -22 40 -37c0 -17 -4 -24 -28 -60c-45 -69 -79 -120 -118 -173c92 -13 154 -107 154 -223
c0 -132 -84 -237 -200 -237z" />
    <glyph glyph-name="four" unicode="4" horiz-adv-x="439" 
d="M196 -3c-18 0 -28 12 -28 24c0 44 49 19 49 89v57h-166c-28 0 -47 11 -47 47c0 27 15 53 32 95l147 353c17 43 37 53 74 53h40c33 0 54 -7 54 -42v-403h34c22 0 30 -6 30 -38v-26c0 -30 -7 -39 -30 -39h-34v-57c0 -71 42 -48 42 -89c0 -12 -9 -24 -28 -24
c-18 0 -37 3 -81 3s-69 -3 -88 -3zM91 270h131v321z" />
    <glyph glyph-name="five" unicode="5" horiz-adv-x="432" 
d="M202 -15c-93 0 -142 53 -169 95c-12 18 -18 33 -18 46c0 18 12 33 28 33c11 0 20 -6 34 -23c22 -29 52 -61 94 -61c52 0 87 53 87 137s-36 142 -92 142c-46 0 -71 -30 -92 -30c-13 0 -30 13 -26 39l41 317c2 21 12 32 36 32h196c13 0 23 2 37 19c11 13 19 18 28 18
c11 0 20 -9 20 -23s-10 -39 -17 -59l-15 -35c-9 -22 -24 -32 -42 -32h-186l-20 -157c27 11 58 18 89 18c118 0 190 -103 190 -232c0 -140 -85 -244 -203 -244z" />
    <glyph glyph-name="six" unicode="6" horiz-adv-x="456" 
d="M237 55c42 0 65 71 65 173c0 108 -27 167 -69 167c-34 0 -68 -44 -68 -150c0 -96 24 -190 72 -190zM32 336c0 221 75 390 220 390c49 0 86 -22 109 -44c16 -15 29 -30 29 -50c0 -18 -11 -32 -28 -32c-11 0 -20 7 -28 14c-16 14 -35 31 -62 31c-63 0 -97 -97 -102 -237
c24 38 59 68 105 68c88 0 159 -90 159 -235c0 -151 -84 -256 -199 -256c-133 0 -203 121 -203 351z" />
    <glyph glyph-name="seven" unicode="7" horiz-adv-x="386" 
d="M118 -1c-27 0 -41 13 -41 32c0 22 19 49 36 87c56 133 127 306 184 485h-149c-36 0 -47 -23 -86 -85c-11 -16 -20 -25 -33 -25s-23 9 -23 27c0 16 9 39 18 70l31 95c9 30 19 50 38 50c21 0 24 -23 56 -23h123c16 0 56 3 66 3c36 0 41 -22 41 -36c0 -13 -7 -24 -13 -49
c-51 -194 -96 -387 -151 -590c-8 -29 -24 -41 -50 -41h-47z" />
    <glyph glyph-name="eight" unicode="8" horiz-adv-x="465" 
d="M231 -15c-116 0 -204 85 -204 198c0 80 33 147 100 187c-46 39 -74 91 -74 167c0 100 66 191 181 191c107 0 175 -74 175 -171c0 -68 -33 -125 -82 -158c75 -52 111 -115 111 -205c0 -120 -85 -209 -207 -209zM138 196c0 -80 38 -142 93 -142c47 0 84 40 84 116
c0 89 -76 130 -139 166c-24 -30 -38 -79 -38 -140zM175 563c0 -70 46 -105 101 -134c21 28 31 72 31 115c0 65 -29 116 -71 116c-38 0 -61 -40 -61 -97z" />
    <glyph glyph-name="nine" unicode="9" horiz-adv-x="463" 
d="M226 655c-43 0 -67 -67 -67 -172c0 -113 30 -169 69 -169c38 0 69 48 69 151c0 95 -24 190 -71 190zM28 476c0 138 78 249 197 249c128 0 206 -114 206 -364c0 -199 -61 -376 -232 -376c-53 0 -94 20 -126 49c-16 14 -31 32 -31 53c0 19 11 34 30 34c11 0 20 -8 27 -14
c23 -19 49 -40 85 -40c76 0 111 96 116 237c-23 -41 -62 -71 -108 -71c-88 0 -164 85 -164 243z" />
    <glyph glyph-name="colon" unicode=":" horiz-adv-x="233" 
d="M125 460c-49 0 -83 -36 -83 -81c0 -46 27 -73 71 -73c49 0 85 36 85 82s-30 72 -73 72zM36 64c0 -46 26 -73 70 -73c50 0 86 36 86 82s-30 72 -73 72c-50 0 -83 -36 -83 -81z" />
    <glyph glyph-name="semicolon" unicode=";" horiz-adv-x="240" 
d="M84 -145c-14 0 -23 9 -23 22c0 12 6 22 21 38c17 18 31 39 31 58c0 18 -7 26 -32 41c-20 12 -38 25 -38 57c0 44 38 78 84 78c49 0 78 -32 78 -92c0 -101 -72 -202 -121 -202zM36 375c0 -46 27 -73 71 -73c49 0 85 37 85 82c0 46 -30 72 -72 72c-50 0 -84 -36 -84 -81z
" />
    <glyph glyph-name="less" unicode="&#x3c;" horiz-adv-x="373" 
d="M321 86c-8 0 -16 4 -24 9l-235 152c-22 14 -35 24 -35 57c0 34 13 44 35 58l235 152c8 5 16 9 24 9c11 0 18 -10 18 -31c0 -38 -8 -51 -33 -66l-189 -114c-4 -2 -5 -4 -5 -8c0 -3 2 -5 5 -7l189 -114c25 -15 33 -28 33 -66c0 -21 -7 -31 -18 -31z" />
    <glyph glyph-name="equal" unicode="=" horiz-adv-x="476" 
d="M72 359c-17 0 -29 14 -29 43c0 28 12 41 29 41h331c18 0 29 -13 29 -41c0 -29 -11 -43 -29 -43h-331zM43 210c0 28 12 41 29 41h331c18 0 29 -13 29 -41c0 -29 -11 -43 -29 -43h-331c-17 0 -29 14 -29 43z" />
    <glyph glyph-name="greater" unicode="&#x3e;" horiz-adv-x="373" 
d="M52 86c-11 0 -18 10 -18 31c0 38 8 51 33 66l189 114c3 2 5 4 5 7c0 4 -1 6 -5 8l-189 114c-25 15 -33 28 -33 66c0 21 7 31 18 31c8 0 16 -4 24 -9l235 -152c22 -14 35 -24 35 -58c0 -33 -13 -43 -35 -57l-235 -152c-8 -5 -16 -9 -24 -9z" />
    <glyph glyph-name="question" unicode="?" horiz-adv-x="409" 
d="M180 184c-18 0 -27 12 -30 25c-6 27 -15 83 -15 126c0 46 10 73 63 137c59 69 77 105 77 137c0 35 -22 54 -51 54c-49 0 -78 -54 -94 -116c-5 -22 -15 -32 -29 -32c-7 0 -17 4 -32 16c-41 36 -53 64 -53 84c0 51 88 119 196 119c95 0 177 -52 177 -159
c0 -85 -54 -145 -105 -200c-41 -45 -56 -64 -62 -88c-5 -20 -8 -47 -14 -78c-3 -13 -11 -25 -28 -25zM116 57c0 -42 25 -66 66 -66c46 0 79 33 79 74c0 42 -28 66 -67 66c-46 0 -78 -33 -78 -74z" />
    <glyph glyph-name="at" unicode="@" horiz-adv-x="767" 
d="M345 -187c-186 0 -321 150 -321 362c0 273 175 471 393 471c189 0 323 -145 323 -364c0 -175 -98 -302 -195 -302c-55 0 -88 32 -99 90c-28 -46 -73 -79 -126 -79c-66 0 -121 76 -121 198c0 152 74 271 178 271c58 0 88 -38 108 -38c19 0 39 30 58 30c13 0 21 -11 20 -29
l-21 -269c-1 -25 -4 -55 -4 -64c0 -26 7 -44 24 -44c42 0 80 97 80 228c0 187 -96 307 -230 307c-156 0 -281 -167 -281 -388c0 -181 91 -311 239 -311c83 0 119 32 137 32c11 0 22 -6 22 -23c0 -20 -14 -30 -41 -45s-84 -33 -143 -33zM317 222c0 -95 30 -150 64 -150
c33 0 59 48 64 128c2 29 3 56 3 68c0 72 -24 133 -63 133c-48 0 -68 -93 -68 -179z" />
    <glyph glyph-name="A" unicode="A" horiz-adv-x="555" 
d="M20 -2c-15 0 -23 10 -23 22c0 40 41 22 59 88l106 408c13 50 26 104 35 146c10 51 28 58 81 58s68 -7 79 -58c10 -45 22 -95 35 -146l107 -406c17 -67 56 -51 56 -91c0 -12 -10 -21 -23 -21c-21 0 -46 3 -89 3s-74 -3 -97 -3c-19 0 -33 9 -33 25c0 36 53 25 53 64
c0 11 -2 22 -5 33l-25 100c-3 11 -6 23 -28 23h-124c-12 0 -21 -2 -26 -23l-25 -97c-3 -13 -6 -26 -6 -34c0 -40 51 -30 51 -66c0 -16 -13 -25 -33 -25c-23 0 -46 3 -67 3s-37 -3 -58 -3zM185 327c-2 -9 -3 -19 13 -19h99c15 0 14 9 12 19l-62 238z" />
    <glyph glyph-name="B" unicode="B" horiz-adv-x="550" 
d="M60 -2c-19 0 -29 13 -29 26c0 39 43 16 43 85v493c0 69 -43 47 -43 86c0 15 11 26 29 26c17 0 37 -3 80 -3c46 0 85 5 138 5c130 0 211 -70 211 -179c0 -67 -29 -125 -99 -151c80 -27 135 -94 135 -187c0 -123 -71 -202 -221 -202c-52 0 -122 4 -164 4
c-43 0 -63 -3 -80 -3zM206 119c0 -34 3 -54 51 -54h17c66 0 107 49 107 134c0 91 -46 150 -125 150h-26c-12 0 -24 -3 -24 -27v-203zM206 436c0 -12 2 -23 25 -23h23c56 0 93 35 93 115c0 74 -34 120 -92 120h-3c-31 0 -46 -10 -46 -50v-162z" />
    <glyph glyph-name="C" unicode="C" horiz-adv-x="510" 
d="M276 -15c-139 0 -247 128 -247 358c0 222 116 384 252 384c49 0 76 -22 89 -22c18 0 26 27 48 27c19 0 29 -18 36 -50l21 -90c9 -41 15 -65 15 -80c0 -18 -12 -30 -25 -30c-14 0 -24 10 -34 31c-45 92 -75 144 -130 144c-74 0 -130 -121 -130 -289
c0 -170 60 -288 147 -288c56 0 96 39 122 104c6 14 14 25 31 25c14 0 25 -14 25 -31c0 -12 -5 -28 -11 -44c-31 -79 -106 -149 -209 -149z" />
    <glyph glyph-name="D" unicode="D" horiz-adv-x="592" 
d="M277 -3c-43 0 -86 4 -136 4c-44 0 -62 -3 -80 -3c-20 0 -30 11 -30 25c0 40 43 17 43 86v494c0 68 -43 46 -43 86c0 14 11 25 30 25c18 0 36 -3 80 -3c41 0 84 5 126 5c161 0 297 -153 297 -372c0 -206 -102 -347 -287 -347zM206 113c0 -32 8 -48 44 -48h12
c103 0 155 108 155 287c0 176 -64 298 -160 298h-7c-30 0 -44 -11 -44 -49v-488z" />
    <glyph glyph-name="E" unicode="E" horiz-adv-x="514" 
d="M417 -23c-28 0 -29 23 -60 23h-217c-43 0 -61 -3 -79 -3c-20 0 -30 12 -30 26c0 39 43 16 43 85v496c0 68 -43 46 -43 86c0 14 11 25 30 25c17 0 35 -3 79 -3h189c32 0 35 23 60 23c22 0 30 -24 39 -50l30 -83c13 -36 19 -54 19 -71c0 -16 -11 -26 -24 -26
c-14 0 -22 9 -33 25c-49 72 -78 116 -139 116h-32c-30 0 -43 -7 -43 -46v-181c0 -21 10 -24 22 -24h39c41 0 42 74 74 74c15 0 25 -10 25 -34c0 -23 -3 -48 -3 -73s3 -51 3 -73c0 -25 -10 -34 -25 -34c-32 0 -33 74 -74 74h-39c-14 0 -22 -4 -22 -24v-190
c0 -28 4 -48 41 -48h61c52 0 86 34 144 123c12 17 21 26 34 26c12 0 23 -11 23 -27c0 -19 -6 -36 -20 -75l-33 -93c-10 -28 -21 -44 -39 -44z" />
    <glyph glyph-name="F" unicode="F" horiz-adv-x="476" 
d="M62 -3c-21 0 -31 14 -31 26c0 40 43 17 43 86v495c0 68 -43 47 -43 86c0 14 11 25 30 25c18 0 36 -3 79 -3h189c31 0 33 23 58 23c18 0 28 -15 40 -50l29 -82c13 -38 19 -55 19 -71c0 -17 -10 -27 -24 -27s-23 11 -33 25c-55 81 -82 116 -140 116h-31
c-26 0 -41 -7 -41 -48v-188c0 -20 8 -24 22 -24h45c45 0 46 76 78 76c15 0 25 -10 25 -33c0 -24 -4 -51 -4 -76c0 -26 4 -53 4 -76c0 -24 -10 -34 -25 -34c-32 0 -33 77 -78 77h-45c-14 0 -22 -5 -22 -24v-187c0 -69 55 -46 55 -85c0 -14 -10 -27 -30 -27c-19 0 -42 3 -89 3
c-43 0 -62 -3 -80 -3z" />
    <glyph glyph-name="G" unicode="G" horiz-adv-x="565" 
d="M309 -14c-162 0 -280 118 -280 355c0 230 119 386 257 386c58 0 82 -20 99 -20c16 0 22 24 43 24c20 0 28 -18 38 -52l24 -87c13 -46 17 -66 17 -81c0 -18 -10 -29 -23 -29c-14 0 -24 10 -33 25c-47 77 -85 149 -146 149c-89 0 -132 -139 -132 -301
c0 -158 46 -293 153 -293c34 0 49 18 49 40v141c0 69 -44 45 -44 86c0 13 11 25 30 25h157c19 0 29 -12 29 -25c0 -40 -42 -17 -42 -86v-120c0 -46 19 -41 19 -67c0 -13 -5 -21 -26 -30c-29 -14 -103 -40 -189 -40z" />
    <glyph glyph-name="H" unicode="H" horiz-adv-x="606" 
d="M387 -2c-18 0 -30 12 -30 25c0 39 43 19 43 86v195c0 20 -7 24 -21 24h-151c-14 0 -22 -4 -22 -24v-195c0 -67 43 -47 43 -86c0 -13 -11 -25 -30 -25c-17 0 -35 3 -79 3s-61 -3 -79 -3c-19 0 -30 12 -30 25c0 39 43 19 43 86v494c0 67 -43 47 -43 86c0 14 14 25 32 25
c19 0 33 -3 77 -3s62 3 79 3c19 0 30 -11 30 -25c0 -39 -43 -19 -43 -86v-185c0 -21 10 -24 22 -24h151c12 0 21 4 21 24v185c0 67 -43 47 -43 86c0 14 12 25 30 25c17 0 36 -3 80 -3c43 0 60 3 78 3s30 -11 30 -26c0 -38 -43 -18 -43 -85v-494c0 -67 43 -47 43 -86
c0 -13 -11 -25 -30 -25c-18 0 -35 3 -78 3c-44 0 -63 -3 -80 -3z" />
    <glyph glyph-name="I" unicode="I" horiz-adv-x="280" 
d="M61 -2c-19 0 -30 12 -30 25c0 39 43 19 43 86v494c0 67 -43 47 -43 86c0 14 14 25 32 25c19 0 33 -3 77 -3s62 3 79 3c19 0 30 -11 30 -25c0 -39 -43 -19 -43 -86v-494c0 -67 43 -47 43 -86c0 -13 -11 -25 -30 -25c-17 0 -35 3 -79 3s-61 -3 -79 -3z" />
    <glyph glyph-name="J" unicode="J" horiz-adv-x="406" 
d="M174 -13c-87 0 -169 43 -169 95c0 16 7 54 28 122c7 23 17 33 30 33c16 0 24 -11 27 -30c16 -108 29 -152 70 -152c40 0 49 63 49 106v442c0 67 -48 47 -48 86c0 13 11 25 30 25c18 0 36 -3 84 -3c44 0 62 3 79 3c19 0 29 -12 29 -25c0 -39 -42 -19 -42 -86v-434
c0 -108 -42 -182 -167 -182z" />
    <glyph glyph-name="K" unicode="K" horiz-adv-x="565" 
d="M61 -2c-19 0 -30 12 -30 25c0 39 43 19 43 86v494c0 67 -43 47 -43 86c0 14 14 25 32 25c19 0 33 -3 77 -3s62 3 79 3c19 0 30 -11 30 -25c0 -39 -43 -19 -43 -86v-207l157 207c12 16 17 25 17 38c0 27 -34 18 -34 48c0 16 13 25 33 25c23 0 39 -3 71 -3c29 0 54 3 75 3
c15 0 25 -9 25 -22c0 -38 -47 -23 -87 -75l-109 -140l160 -376c23 -54 57 -42 57 -76c0 -15 -11 -27 -33 -27c-13 0 -34 3 -78 3c-41 0 -60 -3 -83 -3s-34 12 -34 26c0 31 32 27 32 60c0 10 -3 20 -9 35l-101 244l-59 -76v-178c0 -67 43 -47 43 -86c0 -13 -11 -25 -30 -25
c-17 0 -35 3 -79 3s-61 -3 -79 -3z" />
    <glyph glyph-name="L" unicode="L" horiz-adv-x="480" 
d="M386 -23c-23 0 -27 23 -60 23h-186c-43 0 -63 -3 -80 -3c-20 0 -29 12 -29 25c0 40 43 17 43 86v495c0 67 -43 47 -43 86c0 14 14 25 32 25c19 0 33 -3 77 -3s64 3 81 3c19 0 30 -11 30 -25c0 -39 -45 -19 -45 -86v-496c0 -23 7 -40 34 -40h36c51 0 78 42 143 128
c11 15 20 26 34 26s26 -10 26 -28c0 -17 -8 -39 -22 -78l-33 -93c-10 -28 -20 -45 -38 -45z" />
    <glyph glyph-name="M" unicode="M" horiz-adv-x="742" 
d="M41 -2c-21 0 -30 9 -30 25c0 38 51 27 57 81l51 443c3 25 5 50 5 61c0 55 -43 43 -43 81c0 14 9 25 34 25c14 0 50 -3 85 -3c36 0 56 3 75 3s29 -12 29 -26c0 -35 -33 -27 -33 -69c0 -17 9 -44 22 -81l84 -247l75 247c11 35 17 62 17 80c0 47 -36 34 -36 69
c0 17 13 27 29 27c20 0 44 -3 84 -3c31 0 58 3 75 3c19 0 29 -11 29 -25c0 -37 -37 -26 -37 -71c0 -15 5 -38 9 -71l56 -445c7 -52 53 -40 53 -79c0 -15 -10 -25 -29 -25c-18 0 -43 3 -82 3c-38 0 -68 -3 -91 -3c-19 0 -33 9 -33 25c0 36 48 27 48 65c0 11 -1 21 -2 36
l-41 355l-112 -369c-7 -22 -24 -28 -37 -28c-20 0 -31 9 -37 27l-131 371l-38 -350c-2 -17 -4 -31 -4 -41c0 -35 53 -29 53 -66c0 -16 -13 -25 -32 -25c-21 0 -47 3 -67 3s-40 -3 -55 -3z" />
    <glyph glyph-name="N" unicode="N" horiz-adv-x="568" 
d="M461 -8c-25 0 -37 14 -50 36l-264 469l1 -387c0 -67 58 -41 58 -85c0 -17 -13 -27 -32 -27c-17 0 -36 3 -61 3c-20 0 -37 -3 -56 -3c-20 0 -29 13 -29 26c0 39 45 18 45 86v492c0 68 -45 46 -45 86c0 15 13 27 33 27c17 0 33 -3 50 -3c20 0 29 2 45 2c21 0 31 -9 41 -26
l228 -417v331c0 68 -58 41 -58 86c0 16 12 27 33 27s39 -3 58 -3c18 0 38 3 57 3s29 -13 29 -26c0 -40 -45 -18 -45 -87v-570c0 -25 -18 -40 -38 -40z" />
    <glyph glyph-name="O" unicode="O" horiz-adv-x="605" 
d="M301 -15c-153 0 -273 138 -273 360c0 218 122 383 274 383c156 0 275 -166 275 -381c0 -220 -111 -362 -276 -362zM175 355c0 -157 42 -297 128 -297c89 0 127 136 127 298c0 157 -39 301 -127 301s-128 -141 -128 -302z" />
    <glyph glyph-name="P" unicode="P" horiz-adv-x="519" 
d="M61 -2c-19 0 -30 12 -30 25c0 39 43 19 43 86v494c0 69 -43 46 -43 87c0 13 12 24 31 24s34 -3 76 -3c33 0 74 6 116 6c166 0 252 -94 252 -249c0 -138 -58 -240 -243 -240c-49 0 -57 9 -57 -15v-103c0 -68 56 -44 56 -87c0 -13 -12 -25 -30 -25c-17 0 -45 3 -92 3
c-44 0 -61 -3 -79 -3zM206 335c0 -31 17 -41 46 -41c73 0 109 68 109 174c0 119 -46 183 -111 183c-44 0 -44 -31 -44 -49v-267z" />
    <glyph glyph-name="Q" unicode="Q" horiz-adv-x="613" 
d="M469 -131c-53 0 -95 52 -110 123c-19 -5 -38 -7 -58 -7c-153 0 -273 138 -273 360c0 218 122 383 274 383c156 0 275 -166 275 -381c0 -145 -53 -263 -141 -322c11 -29 24 -47 43 -47c26 0 54 49 75 49c15 0 23 -10 23 -24c0 -21 -11 -40 -41 -88
c-22 -37 -41 -46 -67 -46zM175 355c0 -157 42 -298 135 -298c14 0 27 2 38 6c-14 91 -33 129 -55 129c-19 0 -29 -25 -43 -25c-10 0 -18 7 -18 22c0 25 35 63 74 63c51 0 82 -44 100 -124c17 46 26 118 26 228c0 157 -41 301 -129 301s-128 -141 -128 -302z" />
    <glyph glyph-name="R" unicode="R" horiz-adv-x="561" 
d="M61 -2c-19 0 -30 12 -30 25c0 39 43 19 43 86v494c0 69 -43 47 -43 86c0 13 10 25 34 25c11 0 39 -3 67 -3s84 7 127 7c159 0 249 -98 249 -236c0 -95 -39 -170 -110 -202l76 -152c40 -80 83 -68 83 -106c0 -14 -12 -24 -26 -24c-21 0 -54 3 -94 3c-33 0 -62 -3 -81 -3
c-20 0 -31 9 -31 25c0 27 26 25 26 58c0 14 -7 28 -15 44l-53 108c-11 21 -18 26 -30 26c-9 -1 -17 -1 -31 0c-12 0 -16 -8 -16 -21v-129c0 -67 44 -47 44 -86c0 -13 -11 -25 -29 -25c-17 0 -37 3 -81 3s-61 -3 -79 -3zM206 356c0 -17 2 -35 51 -35c68 0 108 41 108 151
c0 118 -50 179 -113 179c-36 0 -46 -14 -46 -50v-245z" />
    <glyph glyph-name="S" unicode="S" horiz-adv-x="506" 
d="M108 -21c-19 0 -26 17 -33 38l-32 97c-15 45 -25 72 -25 89c0 19 13 31 26 31c19 0 26 -14 35 -28c48 -74 110 -148 186 -148c53 0 94 37 94 100s-39 103 -129 155c-86 50 -195 116 -195 237c0 104 82 178 177 178c50 0 79 -20 93 -20c17 0 19 28 43 28
c23 0 29 -24 46 -61l20 -47c20 -46 31 -76 31 -91c0 -13 -11 -24 -23 -24c-14 0 -22 9 -37 29c-51 65 -91 115 -148 115c-46 0 -75 -36 -75 -78c0 -50 35 -82 110 -127c112 -67 215 -135 215 -260c0 -127 -93 -207 -202 -207c-64 0 -104 27 -124 27c-21 0 -24 -33 -53 -33z
" />
    <glyph glyph-name="T" unicode="T" horiz-adv-x="552" 
d="M186 -2c-19 0 -30 12 -30 26c0 42 54 19 54 86v492c0 32 -11 43 -33 43h-9c-40 0 -64 -38 -112 -115c-8 -13 -19 -25 -33 -25c-13 0 -25 10 -25 28c0 15 6 35 17 69l25 83c12 36 23 50 40 50c25 0 28 -23 55 -23h282c26 0 29 23 54 23c17 0 29 -14 40 -50l26 -83
c10 -34 16 -54 16 -69c0 -18 -12 -28 -24 -28c-14 0 -25 12 -34 25c-48 77 -71 115 -111 115h-10c-21 0 -32 -11 -32 -43v-492c0 -67 53 -44 53 -86c0 -14 -10 -26 -29 -26c-18 0 -43 3 -91 3c-47 0 -70 -3 -89 -3z" />
    <glyph glyph-name="U" unicode="U" horiz-adv-x="536" 
d="M274 -14c-130 0 -222 68 -222 204c0 27 1 49 2 68l15 312c1 19 2 34 2 42c0 34 -13 41 -24 49c-9 6 -18 11 -18 28c0 12 8 25 29 25c18 0 36 -3 80 -3c43 0 67 3 83 3c21 0 30 -12 30 -25c0 -15 -10 -24 -19 -30c-12 -8 -26 -19 -28 -56l-17 -350c0 -7 -2 -36 -2 -57
c0 -80 39 -124 109 -125c64 0 113 38 113 124c0 15 -1 42 -2 63l-16 345c-2 37 -19 45 -34 53c-13 7 -26 12 -26 32c0 13 10 26 28 26c17 0 45 -3 67 -3c17 0 38 3 57 3c18 0 28 -12 28 -25c0 -17 -10 -23 -19 -28c-12 -8 -27 -16 -27 -49c0 -9 1 -24 2 -42l17 -319
c1 -7 3 -41 3 -65c0 -137 -95 -200 -211 -200z" />
    <glyph glyph-name="V" unicode="V" horiz-adv-x="570" 
d="M284 -11c-49 0 -63 12 -70 39l-152 565c-20 74 -62 58 -62 96c0 15 11 25 29 25c19 0 45 -3 89 -3c46 0 72 3 97 3c20 0 33 -8 33 -25c0 -39 -50 -28 -50 -72c0 -12 4 -33 9 -54l109 -421l112 428c5 17 8 36 8 45c0 48 -55 36 -55 74c0 17 11 25 31 25c25 0 47 -3 69 -3
c23 0 42 3 64 3c18 0 28 -9 28 -22c0 -40 -43 -20 -64 -96l-153 -568c-6 -24 -14 -39 -72 -39z" />
    <glyph glyph-name="W" unicode="W" horiz-adv-x="815" 
d="M559 -11c-50 0 -59 13 -64 36l-87 362l-85 -361c-6 -25 -20 -37 -67 -37c-52 0 -57 16 -63 37l-140 576c-16 67 -56 51 -56 89c0 14 12 23 28 23c20 0 42 -3 87 -3c42 0 57 3 81 3c20 0 31 -8 31 -25c0 -33 -37 -26 -37 -66c0 -12 4 -32 9 -55l92 -395l84 361l-16 68
c-16 65 -49 53 -49 88c0 15 13 24 27 24c21 0 39 -3 85 -3s63 3 86 3c19 0 30 -8 30 -25c0 -35 -47 -26 -47 -66c0 -10 4 -31 9 -55l92 -395l87 389c8 35 10 49 10 61c0 40 -51 31 -51 66c0 15 11 25 30 25c23 0 44 -3 64 -3s43 3 61 3c19 0 29 -9 29 -22
c0 -39 -44 -22 -59 -88l-136 -578c-5 -23 -16 -37 -65 -37z" />
    <glyph glyph-name="X" unicode="X" horiz-adv-x="547" 
d="M329 -2c-20 0 -33 10 -33 25c0 36 43 25 43 60c0 13 -8 29 -18 49l-72 143l-84 -150c-11 -20 -16 -32 -16 -43c0 -36 43 -24 43 -59c0 -15 -11 -25 -31 -25c-21 0 -45 3 -72 3c-24 0 -46 -3 -63 -3c-15 0 -28 9 -28 25c0 36 39 22 89 107l126 217l-128 257
c-32 64 -71 52 -71 86c0 15 12 24 27 24c17 0 48 -3 91 -3c41 0 76 3 96 3c19 0 32 -8 32 -24c0 -36 -39 -21 -39 -57c0 -10 7 -27 18 -48l63 -126l70 127c11 18 17 33 17 43c0 36 -41 24 -41 60c0 16 13 25 32 25c14 0 46 -3 66 -3c18 0 49 3 61 3c15 0 27 -8 27 -23
c0 -35 -36 -26 -69 -85l-126 -220l135 -271c37 -73 75 -56 75 -91c0 -16 -13 -26 -30 -26c-18 0 -49 3 -91 3c-41 0 -80 -3 -99 -3z" />
    <glyph glyph-name="Y" unicode="Y" horiz-adv-x="524" 
d="M171 -2c-20 0 -29 12 -29 26c0 43 53 17 53 86v169l-138 336c-21 50 -50 44 -50 76c0 14 11 23 27 23c18 0 41 -3 84 -3c39 0 64 3 87 3c19 0 32 -9 32 -25c0 -35 -40 -22 -40 -60c0 -10 3 -18 12 -40l84 -215l84 209c7 17 13 32 13 43c0 40 -46 29 -46 63
c0 16 10 25 29 25c22 0 45 -3 63 -3s41 3 60 3c15 0 25 -9 25 -22c0 -35 -30 -24 -53 -79l-140 -333v-170c0 -69 53 -43 53 -86c0 -14 -10 -26 -30 -26c-21 0 -42 3 -91 3c-46 0 -68 -3 -89 -3z" />
    <glyph glyph-name="Z" unicode="Z" horiz-adv-x="502" 
d="M400 -23c-23 0 -27 23 -60 23h-225c-38 0 -60 -3 -76 -3c-19 0 -30 14 -30 27c0 7 2 15 6 23l298 599h-90c-63 0 -89 -42 -140 -117c-13 -21 -23 -29 -34 -29c-13 0 -26 10 -26 27s9 36 23 75l28 83c13 37 24 50 39 50c23 0 26 -23 58 -23h195c40 0 60 3 75 3
c21 0 34 -13 34 -27c0 -7 -4 -17 -9 -27l-295 -594h110c59 0 88 33 154 137c11 17 22 24 34 24s25 -12 25 -26c0 -20 -8 -43 -22 -83l-34 -98c-10 -27 -19 -44 -38 -44z" />
    <glyph glyph-name="bracketleft" unicode="[" horiz-adv-x="288" 
d="M115 -85c-33 0 -56 22 -56 56v722c0 34 23 56 56 56h128c21 0 39 -8 39 -32c0 -26 -17 -34 -39 -34h-44c-11 0 -18 -5 -18 -18v-666c0 -11 5 -19 18 -19h44c22 0 39 -7 39 -33c0 -24 -17 -32 -39 -32h-128z" />
    <glyph glyph-name="backslash" unicode="\" horiz-adv-x="296" 
d="M242 -30c-25 0 -45 6 -51 33l-167 653c-3 13 -7 25 -7 33c0 16 12 24 36 24c25 0 45 -6 52 -33l167 -654c3 -12 6 -25 6 -32c0 -17 -13 -24 -36 -24z" />
    <glyph glyph-name="bracketright" unicode="]" horiz-adv-x="288" 
d="M45 -85c-22 0 -39 8 -39 32c0 26 17 33 39 33h44c13 0 18 8 18 19v666c0 13 -7 18 -18 18h-44c-22 0 -39 8 -39 34c0 24 18 32 39 32h128c33 0 56 -22 56 -56v-722c0 -34 -23 -56 -56 -56h-128z" />
    <glyph glyph-name="asciicircum" unicode="^" horiz-adv-x="367" 
d="M56 406c-23 0 -36 9 -36 24c0 7 4 17 9 28l104 223c12 27 24 36 51 36c26 0 38 -9 50 -36l104 -223c5 -11 9 -21 9 -28c0 -15 -13 -24 -36 -24c-31 0 -52 11 -64 39l-56 142c-2 5 -3 8 -7 8c-5 0 -6 -3 -8 -8l-56 -142c-12 -28 -33 -39 -64 -39z" />
    <glyph glyph-name="underscore" unicode="_" horiz-adv-x="331" 
d="M17 -126c-19 0 -31 4 -31 35v20c0 26 7 34 31 34h298c19 0 30 -4 30 -34v-20c1 -28 -8 -35 -30 -35h-298z" />
    <glyph glyph-name="grave" unicode="`" horiz-adv-x="325" 
d="M184 571c-13 0 -23 3 -38 20c-25 27 -55 71 -74 94c-18 23 -30 36 -30 51c0 16 9 22 51 22c34 0 45 -6 53 -24c19 -36 37 -77 55 -122c3 -9 7 -18 7 -25c0 -9 -10 -16 -24 -16z" />
    <glyph glyph-name="a" unicode="a" horiz-adv-x="447" 
d="M362 -8c-37 0 -71 21 -86 68c-28 -40 -72 -72 -125 -72c-79 0 -129 63 -129 152s56 161 149 161c33 0 58 -8 77 -18l-1 13c-9 90 -32 130 -72 130c-30 0 -53 -21 -78 -47c-8 -8 -18 -14 -26 -14c-9 0 -23 8 -23 24c0 14 11 30 24 45c33 40 81 74 142 74
c88 0 140 -69 151 -179l17 -167c8 -70 22 -77 62 -88c8 -2 14 -9 14 -19c0 -24 -35 -63 -96 -63zM144 152c0 -52 22 -89 54 -89c28 0 54 28 67 58l-11 107c-12 9 -27 14 -43 14c-39 0 -67 -33 -67 -90z" />
    <glyph glyph-name="b" unicode="b" horiz-adv-x="497" 
d="M275 -14c-83 0 -105 36 -129 36c-22 0 -48 -31 -68 -31c-17 0 -25 13 -25 32v576c0 63 -52 32 -52 73c0 19 20 30 76 59c47 24 64 29 73 29c21 0 24 -20 24 -35v-303c27 49 72 87 137 87c90 0 160 -97 160 -253c0 -161 -86 -270 -196 -270zM174 216
c0 -96 35 -165 92 -165c43 0 76 55 76 168c0 119 -41 202 -90 202c-44 0 -78 -58 -78 -151v-54z" />
    <glyph glyph-name="c" unicode="c" horiz-adv-x="407" 
d="M222 -13c-112 0 -196 93 -196 254c0 164 98 272 201 272c90 0 155 -68 155 -112c0 -23 -15 -57 -51 -92c-11 -11 -18 -14 -27 -14c-13 0 -22 9 -24 28c-8 59 -15 131 -62 131c-42 0 -67 -66 -67 -166c0 -130 56 -214 123 -214c35 0 60 26 82 60c6 10 12 13 20 13
c10 0 18 -10 18 -22c0 -9 -2 -20 -6 -30c-19 -49 -71 -108 -166 -108z" />
    <glyph glyph-name="d" unicode="d" horiz-adv-x="504" 
d="M186 -14c-89 0 -160 95 -160 254c0 158 83 270 192 270c42 0 75 -17 100 -44v135c0 63 -54 31 -54 74c0 19 20 30 79 57c53 25 62 28 71 28c21 0 25 -21 25 -42v-572c0 -62 48 -42 48 -81c0 -21 -18 -29 -79 -53c-43 -18 -56 -22 -65 -22c-23 0 -25 27 -25 42v40
c-26 -49 -69 -86 -132 -86zM155 276c0 -127 43 -202 88 -202c43 0 75 53 75 146v47c0 106 -39 178 -90 178c-43 0 -73 -68 -73 -169z" />
    <glyph glyph-name="e" unicode="e" horiz-adv-x="426" 
d="M222 -13c-119 0 -197 103 -197 258c0 160 94 268 202 268c106 0 170 -99 170 -203c0 -33 -11 -41 -36 -47l-205 -57c19 -77 62 -134 118 -134c34 0 63 22 86 53c12 13 18 18 27 18c11 0 19 -10 19 -22c0 -7 -3 -18 -8 -28c-27 -60 -95 -106 -176 -106zM146 292l1 -24
l93 27c16 5 34 15 34 38c0 62 -29 111 -63 111c-38 1 -65 -53 -65 -152z" />
    <glyph glyph-name="f" unicode="f" horiz-adv-x="293" 
d="M65 -2c-19 0 -27 13 -27 24c0 39 40 14 40 91v322h-43c-11 0 -20 6 -22 20c-1 4 -3 17 -3 26c0 12 8 19 21 19h42c-9 40 -26 72 -26 125c0 88 54 143 142 143c69 0 133 -32 133 -74c0 -22 -13 -52 -34 -85c-9 -14 -19 -22 -29 -22c-11 0 -19 7 -22 25
c-8 57 -11 99 -44 99c-23 0 -37 -27 -37 -68c0 -55 25 -92 37 -143h77c13 0 21 -6 21 -18c0 -9 -1 -20 -3 -27c-2 -13 -9 -20 -22 -20h-67v-322c0 -77 52 -48 52 -91c0 -10 -8 -24 -27 -24s-41 3 -85 3c-39 0 -57 -3 -74 -3z" />
    <glyph glyph-name="g" unicode="g" horiz-adv-x="451" 
d="M224 -194c-126 0 -205 52 -205 124c0 39 24 76 71 97c-31 15 -56 43 -56 83c0 36 23 73 58 99c-40 26 -62 69 -62 125c0 95 70 178 202 178c9 0 18 0 27 -1c6 94 57 147 89 147c18 0 36 -10 66 -34c11 -9 21 -21 21 -36c0 -16 -11 -25 -28 -25c-48 -2 -94 -7 -101 -61
c69 -21 107 -75 107 -148c0 -93 -66 -175 -202 -175c-26 0 -49 3 -70 9c-11 -10 -18 -20 -18 -32c0 -17 15 -23 50 -29c53 -9 106 -14 144 -21c82 -15 139 -52 139 -132c0 -98 -83 -168 -232 -168zM111 -56c0 -58 55 -81 118 -81c80 0 114 38 114 77c0 33 -25 44 -57 50
c-35 6 -83 13 -139 22c-26 -15 -36 -44 -36 -68zM148 352c0 -75 37 -117 76 -117c45 0 70 43 70 103c0 75 -37 117 -75 117c-45 0 -71 -42 -71 -103z" />
    <glyph glyph-name="h" unicode="h" horiz-adv-x="489" 
d="M52 -2c-20 0 -28 13 -28 24c0 39 41 14 41 91v487c0 63 -46 31 -46 72c0 20 19 30 75 59c46 23 56 29 68 29c20 0 24 -19 24 -35v-313h1c25 62 64 99 116 99c93 0 108 -120 114 -184l22 -203c10 -93 46 -61 46 -103c0 -14 -11 -23 -28 -23c-19 0 -34 3 -73 3
c-42 0 -57 -3 -75 -3c-19 0 -29 11 -29 24c0 37 40 18 40 74c0 8 -2 23 -4 39l-16 157c-7 73 -14 121 -51 121c-33 0 -63 -39 -63 -127v-173c0 -77 41 -52 41 -91c0 -11 -9 -24 -27 -24c-17 0 -35 3 -75 3c-39 0 -57 -3 -73 -3z" />
    <glyph glyph-name="i" unicode="i" horiz-adv-x="257" 
d="M59 -2c-19 0 -28 14 -28 24c0 39 41 14 41 92v232c0 63 -46 31 -46 72c0 18 21 31 74 59c40 21 57 30 69 30c21 0 24 -21 24 -42v-351c0 -78 41 -53 41 -92c0 -10 -8 -24 -27 -24c-17 0 -35 3 -74 3c-40 0 -57 -3 -74 -3zM50 649c0 43 43 92 96 92c35 0 57 -22 57 -57
c0 -44 -43 -92 -96 -92c-35 0 -57 21 -57 57z" />
    <glyph glyph-name="j" unicode="j" horiz-adv-x="239" 
d="M18 -193c-38 0 -53 19 -53 58c0 42 6 82 30 82c9 0 16 -5 22 -18c15 -38 25 -55 39 -55c10 0 15 9 15 26c0 26 -6 56 -6 91v355c0 63 -45 31 -45 72c0 19 20 31 74 59c43 22 58 30 68 30c21 0 25 -21 25 -42v-468c0 -120 -85 -190 -169 -190zM44 649c0 43 43 92 96 92
c35 0 57 -22 57 -57c0 -44 -43 -92 -96 -92c-35 0 -57 21 -57 57z" />
    <glyph glyph-name="k" unicode="k" horiz-adv-x="482" 
d="M53 -2c-22 0 -29 13 -29 25c0 36 41 13 41 90v487c0 62 -46 33 -46 71c0 19 13 28 74 60c59 30 62 29 70 29c22 0 23 -28 23 -35v-449l99 120c8 10 15 20 15 34c0 27 -30 22 -30 46c0 17 9 26 30 26c15 0 43 -3 62 -3c18 0 62 3 75 3c15 0 25 -8 25 -24
c0 -35 -46 -26 -79 -65l-58 -68l113 -259c18 -42 50 -35 50 -64c0 -16 -10 -24 -27 -24c-13 0 -41 3 -78 3c-38 0 -59 -3 -74 -3c-23 0 -33 8 -33 25c0 31 29 21 29 55c0 11 -3 21 -11 39l-55 127l-53 -62v-69c0 -77 41 -54 41 -89c0 -13 -7 -26 -29 -26c-14 0 -33 3 -73 3
c-38 0 -58 -3 -72 -3z" />
    <glyph glyph-name="l" unicode="l" horiz-adv-x="251" 
d="M52 -2c-20 0 -28 13 -28 24c0 39 41 14 41 91v487c0 63 -46 31 -46 72c0 20 19 30 75 59c55 28 58 29 67 29c21 0 25 -19 25 -42v-605c0 -77 41 -52 41 -91c0 -11 -9 -24 -27 -24c-17 0 -35 3 -75 3c-39 0 -57 -3 -73 -3z" />
    <glyph glyph-name="m" unicode="m" horiz-adv-x="724" 
d="M544 -2c-20 0 -30 11 -30 24c0 37 40 17 40 74c0 9 -2 26 -3 41l-16 159c-6 62 -13 118 -49 118c-28 0 -56 -33 -56 -126v-174c0 -78 44 -53 44 -92c0 -10 -8 -24 -27 -24c-18 0 -36 3 -78 3c-39 0 -56 -3 -73 -3c-19 0 -28 14 -28 24c0 39 41 14 41 92v175
c0 60 -9 125 -50 125c-32 0 -66 -34 -66 -130v-170c0 -78 41 -53 41 -92c0 -10 -8 -24 -27 -24c-17 0 -35 3 -74 3c-40 0 -57 -3 -74 -3c-20 0 -28 14 -28 24c0 39 41 14 41 92v232c0 62 -46 31 -46 72c0 20 20 30 75 59c47 25 58 30 68 30c23 0 24 -27 24 -42v-54h1
c22 54 66 100 121 100c54 0 87 -44 103 -102c22 58 60 102 120 102c97 0 107 -119 115 -197l20 -190c10 -93 47 -61 47 -103c0 -14 -11 -23 -28 -23c-19 0 -34 3 -74 3c-41 0 -56 -3 -74 -3z" />
    <glyph glyph-name="n" unicode="n" horiz-adv-x="497" 
d="M317 -2c-20 0 -30 11 -30 24c0 37 40 18 40 74c0 8 -2 23 -3 39l-17 157c-7 73 -14 121 -51 121c-33 0 -63 -39 -63 -127v-172c0 -78 41 -53 41 -92c0 -10 -8 -24 -27 -24c-17 0 -35 3 -74 3c-40 0 -57 -3 -74 -3c-19 0 -28 14 -28 24c0 39 41 14 41 92v232
c0 63 -46 31 -46 72c0 18 21 31 74 59c40 21 57 30 69 30c21 0 24 -21 24 -42v-53h1c25 62 64 99 117 99c92 0 107 -120 114 -184l21 -203c10 -93 46 -61 46 -103c0 -14 -11 -23 -28 -23c-18 0 -33 3 -73 3c-41 0 -57 -3 -74 -3z" />
    <glyph glyph-name="o" unicode="o" horiz-adv-x="482" 
d="M232 -15c-129 0 -207 108 -207 256c0 158 92 273 225 273c131 0 207 -111 207 -255c0 -161 -95 -274 -225 -274zM156 284c0 -130 40 -233 97 -233c47 0 72 68 72 165c0 138 -42 232 -97 232c-46 0 -72 -66 -72 -164z" />
    <glyph glyph-name="p" unicode="p" horiz-adv-x="506" 
d="M53 -183c-20 0 -27 13 -27 25c0 39 39 13 39 91v413c0 62 -45 31 -45 72c0 19 16 28 75 59c42 21 55 30 67 30c24 0 25 -29 25 -43v-37c27 50 70 86 133 86c89 0 160 -103 160 -258c0 -164 -80 -268 -184 -268c-58 0 -87 21 -109 45v-99c0 -77 48 -50 48 -91
c0 -11 -8 -25 -27 -25c-18 0 -40 3 -82 3c-39 0 -56 -3 -73 -3zM187 218c0 -99 35 -167 89 -167c42 0 74 60 74 171c0 117 -39 203 -87 203c-43 0 -76 -59 -76 -154v-53z" />
    <glyph glyph-name="q" unicode="q" horiz-adv-x="487" 
d="M291 -183c-19 0 -27 14 -27 25c0 41 49 14 49 91v137c-27 -48 -70 -83 -130 -83c-87 0 -157 96 -157 256c0 159 82 270 190 270c73 0 101 -39 124 -39c22 0 48 33 69 33c17 0 25 -14 25 -32v-542c0 -78 40 -52 40 -91c0 -12 -8 -25 -27 -25c-17 0 -34 3 -74 3
c-42 0 -63 -3 -82 -3zM155 277c0 -126 41 -203 86 -203c41 0 72 54 72 147v47c0 109 -29 180 -84 180c-45 0 -74 -68 -74 -171z" />
    <glyph glyph-name="r" unicode="r" horiz-adv-x="391" 
d="M59 -2c-19 0 -28 14 -28 24c0 40 41 14 41 92v232c0 62 -46 31 -46 72c0 20 20 30 75 59c37 20 57 30 68 30c21 0 24 -24 24 -42v-92c20 83 71 139 122 139c41 0 71 -26 71 -57c0 -22 -8 -47 -27 -102c-7 -18 -15 -27 -28 -27c-12 0 -21 9 -28 28c-11 28 -23 51 -46 51
c-26 0 -64 -69 -64 -201v-90c0 -78 49 -48 49 -92c0 -10 -7 -24 -26 -24s-40 3 -83 3c-40 0 -57 -3 -74 -3z" />
    <glyph glyph-name="s" unicode="s" horiz-adv-x="410" 
d="M94 -18c-19 0 -27 20 -33 38l-23 68c-12 34 -18 52 -18 64c0 16 12 25 24 25c13 0 22 -12 29 -21c42 -58 86 -106 143 -106c37 0 63 24 63 57c0 44 -39 64 -101 95c-74 38 -145 76 -145 169c0 82 61 138 135 138c45 0 72 -18 84 -18c11 0 17 20 35 20s26 -17 34 -36
l26 -57c10 -23 18 -44 18 -53c0 -14 -10 -22 -20 -22c-12 0 -20 8 -31 20c-44 49 -83 79 -120 79c-29 0 -50 -19 -50 -49c0 -38 37 -54 93 -85c77 -42 153 -76 153 -176c0 -94 -78 -145 -158 -145c-48 0 -81 20 -97 20c-20 0 -17 -25 -41 -25z" />
    <glyph glyph-name="t" unicode="t" horiz-adv-x="318" 
d="M181 -12c-64 0 -114 47 -114 101c0 21 4 91 4 160v186h-34c-16 0 -29 11 -29 28c0 16 9 24 27 35c44 27 72 68 99 147c13 33 21 41 35 41c13 0 23 -9 23 -31v-155h91c13 0 20 -6 20 -20c0 -8 -1 -18 -3 -25c-3 -14 -10 -20 -21 -20h-87v-289c0 -60 14 -76 34 -76
c19 0 30 16 43 32c5 6 13 14 22 14c13 0 21 -10 21 -24c0 -13 -8 -30 -19 -46c-24 -35 -58 -58 -112 -58z" />
    <glyph glyph-name="u" unicode="u" horiz-adv-x="501" 
d="M188 -13c-72 0 -123 58 -123 163v200c0 63 -51 42 -51 80c0 20 18 30 78 54c48 19 59 23 70 23c20 0 25 -23 25 -43v-278c0 -69 15 -105 56 -105c33 0 69 34 69 125v144c0 63 -59 40 -59 80c0 20 20 29 87 55c43 16 59 22 69 22c24 0 24 -30 24 -43v-323
c0 -63 55 -51 55 -86c0 -23 -19 -32 -84 -49c-39 -10 -54 -14 -66 -14c-18 0 -26 18 -26 36v55c-24 -59 -65 -96 -124 -96z" />
    <glyph glyph-name="v" unicode="v" horiz-adv-x="447" 
d="M224 -7c-50 0 -58 14 -65 39l-104 363c-18 62 -53 49 -53 84c0 14 11 23 24 23c19 0 44 -3 86 -3c39 0 56 3 76 3s29 -9 29 -24c0 -36 -33 -24 -33 -70c0 -11 5 -31 12 -59l57 -220l56 220c8 28 13 50 13 64c0 41 -36 31 -36 65c0 15 10 24 31 24c14 0 32 -3 51 -3
c18 0 38 3 52 3s24 -9 24 -23c0 -35 -37 -23 -53 -83l-99 -364c-6 -26 -14 -39 -68 -39z" />
    <glyph glyph-name="w" unicode="w" horiz-adv-x="691" 
d="M471 -7c-51 0 -57 17 -64 40l-58 221l-59 -221c-5 -20 -12 -40 -68 -40c-47 0 -57 14 -65 40l-103 357c-20 67 -54 53 -54 88c0 15 13 24 26 24c18 0 45 -3 85 -3c31 0 50 3 69 3c21 0 32 -9 32 -24c0 -34 -29 -25 -29 -71c0 -10 4 -33 9 -54l61 -231l67 244l-7 25
c-18 67 -49 52 -49 87c0 15 13 24 26 24c17 0 41 -3 81 -3c34 0 59 3 79 3s32 -9 32 -24c0 -35 -36 -30 -38 -71c-2 -15 1 -29 7 -54l50 -227l56 227c7 29 11 45 11 57c0 43 -37 33 -37 68c0 15 12 24 31 24c16 0 32 -3 52 -3c18 0 38 3 52 3c13 0 25 -9 25 -24
c0 -35 -37 -22 -54 -88l-97 -357c-7 -23 -14 -40 -69 -40z" />
    <glyph glyph-name="x" unicode="x" horiz-adv-x="439" 
d="M251 -2c-22 0 -32 8 -32 23c0 30 28 20 28 54c0 15 -9 30 -17 44l-37 67l-42 -71c-9 -16 -15 -29 -15 -40c0 -31 29 -24 29 -54c0 -15 -11 -23 -30 -23c-15 0 -38 3 -57 3s-40 -3 -54 -3c-15 0 -25 9 -25 23c0 33 35 27 68 78l93 146l-87 153c-31 52 -63 49 -63 81
c0 14 11 23 24 23c19 0 42 -3 83 -3c40 0 60 3 79 3c20 0 31 -9 31 -24c0 -30 -28 -20 -28 -52c0 -15 7 -28 16 -45l30 -53l33 55c11 19 16 31 16 42c0 30 -26 24 -26 53c0 15 10 24 27 24s33 -3 53 -3c18 0 42 3 56 3s24 -9 24 -23c0 -34 -32 -28 -61 -72l-90 -136l98 -169
c31 -52 65 -49 65 -81c0 -14 -12 -23 -25 -23c-19 0 -42 3 -82 3c-39 0 -62 -3 -82 -3z" />
    <glyph glyph-name="y" unicode="y" horiz-adv-x="449" 
d="M122 -193c-27 0 -53 10 -61 23c-15 22 -31 92 -31 122c0 18 9 32 22 32c8 0 16 -7 21 -17c28 -48 45 -71 72 -71c21 0 37 32 49 84l-135 403c-25 74 -59 62 -59 96c0 14 11 23 24 23c19 0 44 -3 85 -3c39 0 61 3 81 3s30 -9 30 -24c0 -36 -33 -24 -33 -70
c0 -11 5 -31 13 -58l56 -192l53 191c7 28 12 45 12 62c0 41 -34 31 -34 67c0 15 9 24 29 24c15 0 32 -3 52 -3c18 0 37 3 51 3s24 -9 24 -23c0 -34 -36 -22 -57 -94l-120 -420c-30 -102 -81 -158 -144 -158z" />
    <glyph glyph-name="z" unicode="z" horiz-adv-x="413" 
d="M331 -21c-21 0 -26 21 -51 21h-156c-38 0 -61 -4 -78 -4c-20 0 -31 13 -31 27c0 11 5 19 9 28l201 387h-53c-41 0 -62 -22 -93 -73c-9 -15 -15 -22 -29 -22c-11 0 -21 9 -21 23c0 10 6 29 11 48l22 75c6 23 14 33 29 33c20 0 25 -22 50 -22h134c44 0 61 3 78 3
c20 0 32 -11 32 -25c0 -10 -6 -18 -10 -26l-200 -390h55c53 0 82 28 120 91c7 11 17 21 28 21c12 0 22 -9 22 -25c0 -14 -6 -32 -11 -49l-25 -86c-5 -15 -12 -35 -33 -35z" />
    <glyph glyph-name="braceleft" unicode="{" horiz-adv-x="299" 
d="M192 -89c-81 0 -126 60 -126 137c0 67 21 124 21 176c0 50 -22 64 -38 72c-13 5 -32 13 -32 36c0 24 19 32 31 37c18 8 39 24 39 72c0 51 -21 110 -21 177c0 76 45 135 126 135c9 0 38 0 65 -3c22 -3 32 -11 32 -33c0 -23 -13 -32 -32 -32c-6 0 -22 2 -28 2
c-26 0 -38 -24 -38 -58c0 -57 21 -129 21 -186c0 -49 -20 -89 -61 -111c43 -22 61 -63 61 -110c0 -58 -21 -128 -21 -186c0 -34 11 -58 38 -58c6 0 22 2 28 2c19 0 32 -9 32 -32c0 -22 -12 -30 -31 -33c-22 -3 -55 -4 -66 -4z" />
    <glyph glyph-name="bar" unicode="|" horiz-adv-x="219" 
d="M110 -147c-33 0 -49 12 -49 46v917c0 34 16 45 49 45s48 -11 48 -45v-917c0 -34 -15 -46 -48 -46z" />
    <glyph glyph-name="braceright" unicode="}" horiz-adv-x="300" 
d="M108 -89c-11 0 -44 1 -66 4c-19 3 -31 11 -31 33c0 23 13 32 32 32c6 0 22 -2 28 -2c27 0 38 24 38 58c0 58 -21 128 -21 186c0 47 18 88 61 110c-41 22 -61 62 -61 111c0 57 21 129 21 186c0 34 -12 58 -38 58c-6 0 -22 -2 -28 -2c-19 0 -32 9 -32 32c0 22 10 30 32 33
c27 3 56 3 65 3c81 0 126 -59 126 -135c0 -67 -21 -126 -21 -177c0 -48 21 -64 39 -72c12 -5 31 -13 31 -37c0 -23 -19 -31 -32 -36c-16 -8 -38 -22 -38 -72c0 -52 21 -109 21 -176c0 -77 -45 -137 -126 -137z" />
    <glyph glyph-name="asciitilde" unicode="~" horiz-adv-x="431" 
d="M77 232c-25 0 -44 16 -44 36c0 6 1 17 7 31c17 50 57 95 108 95c65 0 107 -73 136 -73c18 0 28 14 43 55c6 12 13 20 28 20c24 0 44 -16 44 -35c0 -6 -2 -18 -7 -31c-17 -51 -57 -96 -108 -96c-65 0 -110 73 -138 73c-18 0 -27 -17 -42 -54c-5 -13 -13 -21 -27 -21z" />
    <glyph glyph-name="uni00A0" unicode="&#xa0;" horiz-adv-x="175" 
 />
    <glyph glyph-name="exclamdown" unicode="&#xa1;" horiz-adv-x="228" 
d="M112 325c16 0 24 -8 29 -26c14 -117 44 -331 44 -423c0 -61 -20 -98 -74 -98c-53 0 -74 37 -74 98c0 92 31 307 45 422c5 20 14 27 30 27zM37 445c0 -42 27 -67 67 -67c45 0 77 34 77 75c0 42 -25 66 -65 66c-46 0 -79 -33 -79 -74z" />
    <glyph glyph-name="cent" unicode="&#xa2;" horiz-adv-x="433" 
d="M231 -140c-24 0 -30 17 -30 40v87c-100 14 -167 109 -167 252c0 152 82 257 164 270v72c0 23 6 40 31 40c23 0 29 -16 29 -40v-78c20 -6 35 -14 45 -14c15 0 21 24 35 24c12 0 20 -12 29 -46l20 -75c10 -39 16 -54 16 -69c0 -17 -9 -25 -21 -25c-10 0 -18 9 -27 24
c-47 82 -71 128 -109 128c-34 0 -72 -74 -72 -192c0 -121 43 -189 96 -189c40 0 73 30 91 63c7 12 13 21 26 21s22 -11 22 -25c0 -10 -5 -22 -11 -37c-18 -40 -65 -92 -138 -103v-88c0 -24 -5 -40 -29 -40z" />
    <glyph glyph-name="sterling" unicode="&#xa3;" horiz-adv-x="479" 
d="M340 -17c-60 0 -115 46 -158 68c-24 -37 -53 -64 -91 -64c-32 0 -64 22 -64 60c0 49 45 91 107 95c7 17 11 37 11 61c0 35 -6 68 -15 100h-51c-25 0 -42 15 -42 46c0 30 21 30 30 30h38c-18 52 -35 105 -35 161c0 109 85 187 184 187c96 0 179 -61 179 -114
c0 -21 -19 -57 -57 -93c-14 -13 -21 -17 -28 -17c-18 0 -26 15 -29 32c-9 57 -14 123 -58 123c-33 0 -54 -42 -54 -121c0 -44 9 -98 16 -158h114c25 0 42 -15 42 -46c0 -30 -21 -30 -30 -30h-119c1 -19 2 -38 2 -57c0 -44 -5 -83 -16 -118c42 -12 84 -28 117 -28
c31 0 50 11 75 44c9 13 18 23 29 23c13 0 23 -13 23 -40c0 -57 -39 -144 -120 -144z" />
    <glyph glyph-name="currency" unicode="&#xa4;" horiz-adv-x="512" 
d="M257 99c-38 0 -75 12 -106 32l-43 -44c-10 -10 -19 -15 -28 -15c-20 0 -49 28 -49 48c0 13 7 21 15 30l43 45c-20 33 -32 72 -32 115c0 42 12 81 32 113l-42 45c-10 10 -15 18 -15 28c0 21 30 49 50 49c10 0 17 -4 28 -14l41 -43c31 20 68 32 106 32s74 -12 105 -32
l40 42c10 10 19 15 29 15c19 0 48 -28 48 -49c0 -10 -4 -17 -15 -28l-40 -42c21 -33 33 -73 33 -116c0 -44 -12 -83 -34 -117l42 -42c11 -12 15 -19 15 -30c0 -20 -31 -48 -50 -48c-11 0 -20 7 -28 15l-41 42c-31 -20 -67 -31 -104 -31zM142 310c0 -73 50 -127 115 -127
c64 0 114 54 114 127s-50 126 -114 126c-65 0 -115 -53 -115 -126z" />
    <glyph glyph-name="yen" unicode="&#xa5;" horiz-adv-x="536" 
d="M174 -2c-20 0 -28 12 -28 25c0 45 53 18 53 87v46h-79c-18 0 -29 10 -29 31c0 22 11 32 29 32h79v82h-79c-18 0 -29 10 -29 31c0 22 11 32 29 32h66l-119 258c-19 41 -52 37 -52 69c0 15 9 23 23 23c21 0 45 -3 88 -3c39 0 68 3 90 3c19 0 33 -8 33 -25
c0 -35 -35 -22 -35 -59c0 -10 5 -22 9 -32l77 -186l81 181c5 11 9 23 9 34c0 38 -39 27 -39 62c0 17 15 25 33 25c22 0 41 -3 59 -3c19 0 34 3 56 3c14 0 23 -9 23 -22c0 -35 -36 -26 -55 -69l-120 -259h63c19 0 29 -10 29 -32c0 -21 -10 -31 -29 -31h-78v-82h78
c19 0 29 -10 29 -32c0 -23 -11 -31 -29 -31h-78v-46c0 -69 53 -42 53 -87c0 -13 -9 -25 -28 -25c-21 0 -44 3 -92 3s-71 -3 -91 -3z" />
    <glyph glyph-name="brokenbar" unicode="&#xa6;" horiz-adv-x="219" 
d="M110 444c-33 0 -52 11 -52 45v327c0 34 19 45 52 45s52 -11 52 -45v-327c0 -34 -19 -45 -52 -45zM58 -100v327c0 34 19 45 52 45s52 -11 52 -45v-327c0 -34 -19 -45 -52 -45s-52 11 -52 45z" />
    <glyph glyph-name="section" unicode="&#xa7;" horiz-adv-x="491" 
d="M107 -89c-16 0 -24 20 -31 38l-26 70c-14 35 -22 53 -22 69c0 17 9 28 21 28c14 0 24 -11 34 -24c49 -63 103 -115 167 -115c41 0 68 29 68 65c0 60 -49 74 -110 96c-89 32 -171 66 -171 173c0 65 36 119 89 144c-36 27 -61 64 -61 120c0 86 66 149 152 149
c45 0 81 -17 95 -17c16 0 16 21 35 21c16 0 26 -18 36 -38l30 -59c9 -19 21 -42 21 -55c0 -15 -8 -24 -20 -24s-22 10 -33 23c-43 47 -98 89 -143 89c-35 0 -55 -22 -55 -54c0 -51 45 -67 105 -88c88 -32 174 -65 174 -173c0 -67 -40 -117 -98 -141c41 -28 70 -67 70 -130
c0 -102 -81 -161 -181 -161c-55 0 -89 20 -104 20c-19 0 -21 -26 -42 -26zM155 358c0 -63 35 -77 105 -102c15 -5 29 -11 44 -17c26 12 42 40 42 67c0 65 -50 78 -110 98c-17 6 -35 12 -51 19c-19 -11 -30 -37 -30 -65z" />
    <glyph glyph-name="dieresis" unicode="&#xa8;" horiz-adv-x="325" 
d="M245 593c-37 0 -64 27 -64 64c0 38 27 67 66 67c38 0 64 -27 64 -65s-26 -66 -66 -66zM13 657c0 38 28 67 67 67c37 0 63 -27 63 -65c0 -39 -26 -66 -65 -66c-37 0 -65 27 -65 64z" />
    <glyph glyph-name="copyright" unicode="&#xa9;" horiz-adv-x="628" 
d="M314 -16c-161 0 -279 152 -279 372c0 221 119 376 279 376c161 0 279 -155 279 -376c0 -220 -118 -372 -279 -372zM100 356c0 -181 86 -311 214 -311s214 130 214 311c0 182 -86 314 -214 314c-127 0 -214 -133 -214 -314zM177 350c0 122 65 207 136 207
c30 0 46 -14 57 -14c12 0 15 15 26 15c10 0 15 -5 21 -28l14 -53c7 -23 9 -33 9 -43c0 -11 -8 -17 -17 -17c-8 0 -16 5 -23 18c-26 49 -38 76 -62 76c-32 0 -58 -53 -58 -146c0 -90 28 -141 64 -141c27 0 44 21 58 46c4 9 9 16 20 16c10 0 19 -7 19 -20c0 -5 -1 -13 -6 -25
c-12 -35 -52 -81 -113 -81c-86 0 -145 72 -145 190z" />
    <glyph glyph-name="ordfeminine" unicode="&#xaa;" horiz-adv-x="346" 
d="M270 349c-26 0 -50 15 -64 41c-17 -25 -45 -43 -86 -43c-57 0 -99 45 -99 107s42 113 111 113c24 0 41 -6 53 -11l-1 14c-3 39 -13 86 -52 86c-17 0 -33 -10 -46 -22c-13 -9 -19 -13 -26 -13c-11 0 -19 8 -19 19s7 23 16 33c25 30 64 46 107 46c87 0 105 -64 111 -124
l12 -122c3 -35 7 -52 38 -61c7 -2 13 -6 13 -15c0 -17 -23 -48 -68 -48zM118 464c0 -36 18 -60 40 -60c16 0 29 10 38 25l-7 84c-9 6 -20 9 -29 9c-25 0 -42 -22 -42 -58z" />
    <glyph glyph-name="guillemotleft" unicode="&#xab;" horiz-adv-x="450" 
d="M205 33c-15 0 -32 18 -53 42l-90 104c-17 19 -33 38 -33 64c0 24 16 42 34 62l89 104c22 26 38 44 52 44c13 0 23 -10 23 -25c0 -16 -13 -40 -30 -71l-56 -105c-2 -3 -3 -6 -3 -9s1 -6 2 -9l57 -106c17 -31 30 -55 30 -71c0 -15 -9 -24 -22 -24zM219 243
c0 24 16 42 34 62l89 104c22 26 38 44 52 44c13 0 23 -10 23 -25c0 -16 -13 -40 -30 -71l-56 -105c-2 -3 -3 -6 -3 -9s1 -6 2 -9l57 -106c17 -31 30 -55 30 -71c0 -15 -9 -24 -22 -24c-15 0 -32 18 -53 42l-90 104c-17 19 -33 38 -33 64z" />
    <glyph glyph-name="logicalnot" unicode="&#xac;" horiz-adv-x="394" 
d="M311 103c-29 0 -44 10 -44 28v170c0 8 -4 12 -10 12h-203c-17 0 -26 14 -26 42c0 30 9 42 26 42h271c18 0 29 -7 29 -29v-237c0 -18 -14 -28 -43 -28z" />
    <glyph glyph-name="registered" unicode="&#xae;" horiz-adv-x="524" 
d="M262 148c-135 0 -226 126 -226 289s91 290 226 290s227 -126 227 -290s-92 -289 -227 -289zM91 437c0 -133 61 -237 171 -237c111 0 172 105 172 237c0 133 -61 237 -172 237c-110 0 -171 -103 -171 -237zM155 307c0 13 16 11 16 40v191c0 28 -16 20 -16 38
c0 6 6 13 15 13c8 0 13 -2 34 -2c14 0 33 3 61 3c66 0 102 -39 102 -96c0 -37 -18 -65 -46 -80l30 -66c13 -27 28 -28 28 -41c0 -8 -4 -12 -11 -12c-8 0 -19 2 -39 2c-18 0 -31 -2 -40 -2c-6 0 -12 3 -12 12c0 11 12 9 12 26c0 5 -3 14 -7 25l-13 29c-4 10 -7 14 -13 14h-11
c-4 0 -7 -2 -7 -11v-43c0 -29 15 -25 15 -40c0 -8 -5 -12 -12 -12c-8 0 -16 2 -36 2c-22 0 -29 -2 -37 -2c-9 0 -13 5 -13 12zM238 448c0 -12 6 -14 12 -14h8c19 0 38 19 38 61c0 43 -17 61 -37 61c-16 0 -21 -8 -21 -19v-89z" />
    <glyph glyph-name="macron" unicode="&#xaf;" horiz-adv-x="325" 
d="M69 622c-17 0 -24 15 -24 39c0 27 7 39 24 39l93 -1c28 0 68 1 94 1c17 0 24 -15 24 -39c0 -23 -7 -39 -24 -39c-27 0 -66 2 -93 2c-28 0 -68 -2 -94 -2z" />
    <glyph glyph-name="degree" unicode="&#xb0;" horiz-adv-x="334" 
d="M167 425c-81 0 -149 67 -149 153c0 85 65 152 149 152s149 -67 149 -152c0 -86 -65 -153 -149 -153zM94 578c0 -45 32 -80 73 -80s73 35 73 80s-33 80 -73 80c-42 0 -73 -36 -73 -80z" />
    <glyph glyph-name="plusminus" unicode="&#xb1;" horiz-adv-x="422" 
d="M52 31c-17 0 -26 13 -26 43c0 28 9 42 26 42h318c17 0 26 -14 26 -42c0 -30 -9 -43 -26 -43h-318zM26 312c0 25 8 42 31 42h97c8 0 13 4 13 13v145c0 23 18 32 44 32c25 0 43 -9 43 -32v-145c0 -9 5 -13 14 -13h96c23 0 32 -17 32 -42c0 -26 -9 -42 -32 -42h-96
c-9 0 -14 -5 -14 -14v-83c0 -23 -18 -32 -43 -32c-26 0 -44 9 -44 32v83c0 9 -4 14 -13 14h-97c-23 0 -31 17 -31 42z" />
    <glyph glyph-name="uni00B2" unicode="&#xb2;" horiz-adv-x="326" 
d="M244 248c-15 0 -17 15 -42 15h-111c-12 0 -30 -2 -51 -2c-19 0 -28 12 -28 24c0 9 1 17 11 35c13 20 79 126 98 158c35 62 45 94 45 129c0 30 -14 50 -38 50s-38 -20 -53 -50c-6 -10 -12 -19 -26 -19c-11 0 -22 8 -22 26c0 11 3 20 7 31c21 56 63 94 126 94
c74 0 119 -53 119 -126c0 -61 -29 -103 -60 -141c-39 -49 -73 -78 -113 -124h84c28 0 51 14 77 51c8 11 14 18 23 18c13 0 19 -9 19 -22s-6 -29 -14 -51l-23 -65c-8 -21 -13 -31 -28 -31z" />
    <glyph glyph-name="uni00B3" unicode="&#xb3;" horiz-adv-x="320" 
d="M145 252c-68 0 -105 39 -120 81c-5 15 -6 26 -6 35c0 16 11 25 23 25c13 0 19 -5 27 -21c13 -25 30 -42 56 -42c29 0 55 25 55 81c0 49 -27 74 -55 74c-11 0 -18 -3 -25 -3c-12 0 -20 12 -20 23c0 19 22 33 41 53c23 26 56 63 81 95h-61c-38 0 -48 -12 -73 -52
c-6 -9 -12 -18 -23 -18c-8 0 -17 8 -17 22c0 11 5 29 10 47l19 59c5 17 9 32 24 32c18 0 20 -16 44 -16h88c10 0 31 2 40 2c27 0 38 -15 38 -33c0 -11 -3 -24 -17 -39c-19 -24 -58 -66 -92 -102c69 -8 113 -77 113 -144c0 -86 -57 -159 -150 -159z" />
    <glyph glyph-name="acute" unicode="&#xb4;" horiz-adv-x="325" 
d="M135 571c-15 0 -23 7 -23 16c0 7 4 17 7 25c15 39 37 86 54 121c10 19 22 24 54 24c42 0 50 -6 50 -23c0 -13 -9 -24 -30 -50c-20 -25 -47 -67 -74 -93c-14 -16 -24 -20 -38 -20z" />
    <glyph glyph-name="uni00B5" unicode="&#xb5;" horiz-adv-x="427" 
d="M94 -185c-35 0 -40 11 -40 34v622c0 22 3 34 40 34c34 0 38 -12 38 -34v-295c0 -64 24 -104 67 -104c44 0 67 39 67 108v291c0 24 5 34 39 34c35 0 39 -12 39 -34v-361c0 -24 6 -37 24 -37c7 0 14 3 20 3c12 0 18 -10 19 -36c1 -29 -9 -36 -25 -43c-9 -4 -20 -6 -31 -6
c-36 0 -62 17 -75 49c-16 -32 -45 -50 -82 -50c-23 0 -45 10 -62 26v-167c0 -23 -4 -34 -38 -34z" />
    <glyph glyph-name="paragraph" unicode="&#xb6;" horiz-adv-x="514" 
d="M252 -7c-34 0 -43 17 -43 43v225c-114 5 -184 90 -184 235c0 120 71 220 211 220c66 0 99 -5 131 -5c50 0 72 3 95 3c18 0 27 -11 27 -24c0 -43 -56 -20 -56 -87v-567c0 -24 -7 -43 -41 -43c-36 0 -43 19 -43 43v570c0 22 -5 40 -28 40c-22 0 -28 -18 -28 -40v-570
c0 -26 -8 -43 -41 -43z" />
    <glyph glyph-name="periodcentered" unicode="&#xb7;" horiz-adv-x="215" 
d="M113 314c-50 0 -84 -37 -84 -83c0 -47 27 -74 71 -74c50 0 86 37 86 83c0 47 -30 74 -73 74z" />
    <glyph glyph-name="cedilla" unicode="&#xb8;" horiz-adv-x="325" 
d="M163 -200c-28 0 -54 6 -71 20c-8 7 -13 14 -13 24s7 20 18 20c6 0 10 -2 17 -6c13 -6 27 -14 43 -14c20 0 30 13 30 30s-9 27 -26 27c-11 0 -22 -5 -33 -10c-8 3 -23 18 -27 29l22 98h41l-14 -67c8 3 17 4 25 4c43 0 74 -32 74 -74c0 -48 -35 -81 -86 -81z" />
    <glyph glyph-name="uni00B9" unicode="&#xb9;" horiz-adv-x="249" 
d="M58 261c-14 0 -22 10 -22 19c0 28 41 15 41 64v266c0 18 -5 30 -17 30s-20 -5 -31 -5s-20 10 -20 24c0 8 6 17 18 22c22 8 44 13 95 34c42 16 53 24 67 24c12 0 19 -9 19 -21c0 -24 -24 -27 -24 -61v-313c0 -49 40 -36 40 -64c0 -9 -8 -19 -22 -19c-17 0 -32 2 -72 2
s-55 -2 -72 -2z" />
    <glyph glyph-name="ordmasculine" unicode="&#xba;" horiz-adv-x="351" 
d="M173 340c-92 0 -152 74 -152 186c0 107 61 195 159 195c92 0 151 -74 151 -186c0 -106 -62 -195 -158 -195zM124 554c0 -100 24 -164 58 -164c31 0 45 35 45 116c0 100 -23 165 -58 165c-29 0 -45 -35 -45 -117z" />
    <glyph glyph-name="guillemotright" unicode="&#xbb;" horiz-adv-x="450" 
d="M245 33c-13 0 -22 9 -22 24c0 16 13 40 30 71l57 106c1 3 2 6 2 9s-1 6 -3 9l-56 105c-17 31 -30 55 -30 71c0 15 10 25 23 25c14 0 30 -18 52 -44l89 -104c18 -20 34 -38 34 -62c0 -26 -16 -45 -33 -64l-90 -104c-21 -24 -38 -42 -53 -42zM32 57c0 16 13 40 30 71
l57 106c1 3 2 6 2 9s-1 6 -3 9l-56 105c-17 31 -30 55 -30 71c0 15 10 25 23 25c14 0 30 -18 52 -44l89 -104c18 -20 34 -38 34 -62c0 -26 -16 -45 -33 -64l-90 -104c-21 -24 -38 -42 -53 -42c-13 0 -22 9 -22 24z" />
    <glyph glyph-name="onequarter" unicode="&#xbc;" horiz-adv-x="775" 
d="M244 -15c-27 0 -39 18 -39 35c0 13 4 26 14 50l266 600c11 26 23 48 46 48c27 0 40 -17 40 -33c0 -14 -4 -26 -15 -51l-266 -601c-12 -28 -25 -48 -46 -48zM19 645c0 8 6 17 18 22c22 8 44 13 95 34c42 16 53 24 67 24c12 0 19 -9 19 -21c0 -24 -24 -27 -24 -61v-313
c0 -49 40 -36 40 -64c0 -9 -8 -19 -22 -19c-17 0 -32 2 -72 2s-55 -2 -72 -2c-14 0 -22 10 -22 19c0 28 41 15 41 64v266c0 18 -5 30 -17 30s-20 -5 -31 -5s-20 10 -20 24zM454 135c0 20 10 39 25 75l94 212c12 29 24 44 58 44h36c22 0 42 -4 42 -33v-248h18
c13 0 23 0 23 -29v-22c0 -17 0 -29 -23 -29h-18v-28c0 -47 26 -36 26 -60c0 -9 -8 -19 -22 -19c-13 0 -23 2 -56 2c-34 0 -50 -2 -62 -2c-15 0 -22 10 -22 19c0 25 30 14 30 60v28h-113c-19 0 -36 7 -36 30zM522 185h88v205z" />
    <glyph glyph-name="onehalf" unicode="&#xbd;" horiz-adv-x="796" 
d="M236 -15c-27 0 -39 18 -39 35c0 13 4 26 14 50l266 600c11 26 23 48 46 48c27 0 40 -17 40 -33c0 -14 -4 -26 -15 -51l-266 -601c-12 -28 -25 -48 -46 -48zM19 645c0 8 6 17 18 22c22 8 44 13 95 34c42 16 53 24 67 24c12 0 19 -9 19 -21c0 -24 -24 -27 -24 -61v-313
c0 -49 40 -36 40 -64c0 -9 -8 -19 -22 -19c-17 0 -32 2 -72 2s-55 -2 -72 -2c-14 0 -22 10 -22 19c0 28 41 15 41 64v266c0 18 -5 30 -17 30s-20 -5 -31 -5s-20 10 -20 24zM478 22c0 9 1 17 11 35c13 20 79 126 98 158c35 62 45 94 45 129c0 30 -14 50 -38 50
s-38 -20 -53 -50c-6 -10 -12 -19 -26 -19c-11 0 -22 8 -22 26c0 11 3 20 7 31c21 56 63 94 126 94c74 0 119 -53 119 -126c0 -61 -29 -103 -60 -141c-39 -49 -73 -78 -113 -124h84c28 0 51 14 77 51c8 11 14 18 23 18c13 0 19 -9 19 -22s-6 -29 -14 -51l-23 -65
c-8 -21 -13 -31 -28 -31s-17 15 -42 15h-111c-12 0 -30 -2 -51 -2c-19 0 -28 12 -28 24z" />
    <glyph glyph-name="threequarters" unicode="&#xbe;" horiz-adv-x="800" 
d="M273 -15c-27 0 -39 18 -39 35c0 13 4 26 14 50l266 600c11 26 23 48 46 48c27 0 40 -17 40 -33c0 -14 -4 -26 -15 -51l-266 -601c-12 -28 -25 -48 -46 -48zM22 354c0 16 11 25 23 25c13 0 19 -5 27 -21c13 -25 30 -42 56 -42c29 0 55 25 55 81c0 49 -27 74 -55 74
c-11 0 -18 -3 -25 -3c-12 0 -20 12 -20 23c0 19 22 33 41 53c23 26 56 63 81 95h-61c-38 0 -48 -12 -73 -52c-6 -9 -12 -18 -23 -18c-8 0 -17 8 -17 22c0 11 5 29 10 47l19 59c5 17 9 32 24 32c18 0 20 -16 44 -16h88c10 0 31 2 40 2c27 0 38 -15 38 -33
c0 -11 -3 -24 -17 -39c-19 -24 -58 -66 -92 -102c69 -8 113 -77 113 -144c0 -86 -57 -159 -150 -159c-68 0 -105 39 -120 81c-5 15 -6 26 -6 35zM482 135c0 20 10 39 25 75l94 212c12 29 24 44 58 44h36c22 0 42 -4 42 -33v-248h18c13 0 23 0 23 -29v-22
c0 -17 0 -29 -23 -29h-18v-28c0 -47 26 -36 26 -60c0 -9 -8 -19 -22 -19c-13 0 -23 2 -56 2c-34 0 -50 -2 -62 -2c-15 0 -22 10 -22 19c0 25 30 14 30 60v28h-113c-19 0 -36 7 -36 30zM550 185h88v205z" />
    <glyph glyph-name="questiondown" unicode="&#xbf;" horiz-adv-x="409" 
d="M217 327c18 0 27 -12 30 -25c6 -27 15 -83 15 -126c0 -46 -10 -73 -63 -137c-59 -69 -77 -105 -77 -137c0 -35 22 -54 51 -54c49 0 78 54 94 116c5 22 15 32 29 32c7 0 17 -4 32 -16c41 -36 53 -64 53 -84c0 -51 -88 -119 -196 -119c-95 0 -177 52 -177 159
c0 85 54 145 105 200c41 45 56 64 62 88c5 20 8 47 14 78c3 13 11 25 28 25zM137 445c0 -42 27 -66 67 -66c46 0 77 33 77 74c0 42 -25 67 -65 67c-46 0 -79 -33 -79 -75z" />
    <glyph glyph-name="Agrave" unicode="&#xc0;" horiz-adv-x="555" 
d="M20 -2c-15 0 -23 10 -23 22c0 40 41 22 59 88l106 408c13 50 26 104 35 146c10 51 28 58 81 58s68 -7 79 -58c10 -45 22 -95 35 -146l107 -406c17 -67 56 -51 56 -91c0 -12 -10 -21 -23 -21c-21 0 -46 3 -89 3s-74 -3 -97 -3c-19 0 -33 9 -33 25c0 36 53 25 53 64
c0 11 -2 22 -5 33l-25 100c-3 11 -6 23 -28 23h-124c-12 0 -21 -2 -26 -23l-25 -97c-3 -13 -6 -26 -6 -34c0 -40 51 -30 51 -66c0 -16 -13 -25 -33 -25c-23 0 -46 3 -67 3s-37 -3 -58 -3zM155 918c0 16 9 22 51 22c34 0 45 -6 53 -24c19 -36 37 -77 55 -122
c3 -9 7 -18 7 -25c0 -9 -10 -16 -24 -16c-13 0 -23 3 -38 20c-25 27 -55 71 -74 94c-18 23 -30 36 -30 51zM185 327c-2 -9 -3 -19 13 -19h99c15 0 14 9 12 19l-62 238z" />
    <glyph glyph-name="Aacute" unicode="&#xc1;" horiz-adv-x="555" 
d="M20 -2c-15 0 -23 10 -23 22c0 40 41 22 59 88l106 408c13 50 26 104 35 146c10 51 28 58 81 58s68 -7 79 -58c10 -45 22 -95 35 -146l107 -406c17 -67 56 -51 56 -91c0 -12 -10 -21 -23 -21c-21 0 -46 3 -89 3s-74 -3 -97 -3c-19 0 -33 9 -33 25c0 36 53 25 53 64
c0 11 -2 22 -5 33l-25 100c-3 11 -6 23 -28 23h-124c-12 0 -21 -2 -26 -23l-25 -97c-3 -13 -6 -26 -6 -34c0 -40 51 -30 51 -66c0 -16 -13 -25 -33 -25c-23 0 -46 3 -67 3s-37 -3 -58 -3zM185 327c-2 -9 -3 -19 13 -19h99c15 0 14 9 12 19l-62 238zM233 769c0 7 4 17 7 25
c15 39 37 86 54 121c10 19 22 24 54 24c42 0 50 -6 50 -23c0 -13 -9 -24 -30 -50c-20 -25 -47 -67 -74 -93c-14 -16 -24 -20 -38 -20c-15 0 -23 7 -23 16z" />
    <glyph glyph-name="Acircumflex" unicode="&#xc2;" horiz-adv-x="555" 
d="M20 -2c-15 0 -23 10 -23 22c0 40 41 22 59 88l106 408c13 50 26 104 35 146c10 51 28 58 81 58s68 -7 79 -58c10 -45 22 -95 35 -146l107 -406c17 -67 56 -51 56 -91c0 -12 -10 -21 -23 -21c-21 0 -46 3 -89 3s-74 -3 -97 -3c-19 0 -33 9 -33 25c0 36 53 25 53 64
c0 11 -2 22 -5 33l-25 100c-3 11 -6 23 -28 23h-124c-12 0 -21 -2 -26 -23l-25 -97c-3 -13 -6 -26 -6 -34c0 -40 51 -30 51 -66c0 -16 -13 -25 -33 -25c-23 0 -46 3 -67 3s-37 -3 -58 -3zM156 782c0 9 2 15 9 28c20 40 34 66 57 104c11 19 21 27 54 27c32 0 42 -7 54 -28
c19 -32 42 -71 56 -102c7 -13 10 -19 10 -29c0 -13 -10 -22 -26 -22c-11 0 -22 6 -34 22l-60 80l-61 -80c-14 -18 -25 -22 -34 -22c-16 0 -25 9 -25 22zM185 327c-2 -9 -3 -19 13 -19h99c15 0 14 9 12 19l-62 238z" />
    <glyph glyph-name="Atilde" unicode="&#xc3;" horiz-adv-x="555" 
d="M20 -2c-15 0 -23 10 -23 22c0 40 41 22 59 88l106 408c13 50 26 104 35 146c10 51 28 58 81 58s68 -7 79 -58c10 -45 22 -95 35 -146l107 -406c17 -67 56 -51 56 -91c0 -12 -10 -21 -23 -21c-21 0 -46 3 -89 3s-74 -3 -97 -3c-19 0 -33 9 -33 25c0 36 53 25 53 64
c0 11 -2 22 -5 33l-25 100c-3 11 -6 23 -28 23h-124c-12 0 -21 -2 -26 -23l-25 -97c-3 -13 -6 -26 -6 -34c0 -40 51 -30 51 -66c0 -16 -13 -25 -33 -25c-23 0 -46 3 -67 3s-37 -3 -58 -3zM148 805c0 6 1 18 6 36c11 42 33 81 73 81c52 0 75 -77 100 -77c11 0 18 11 26 35
c6 18 14 34 28 34c16 0 24 -10 24 -26c0 -8 -2 -22 -6 -37c-11 -45 -35 -81 -74 -81c-53 0 -79 76 -99 76c-11 0 -18 -11 -26 -33c-8 -23 -15 -35 -28 -35c-15 0 -24 9 -24 27zM185 327c-2 -9 -3 -19 13 -19h99c15 0 14 9 12 19l-62 238z" />
    <glyph glyph-name="Adieresis" unicode="&#xc4;" horiz-adv-x="555" 
d="M20 -2c-15 0 -23 10 -23 22c0 40 41 22 59 88l106 408c13 50 26 104 35 146c10 51 28 58 81 58s68 -7 79 -58c10 -45 22 -95 35 -146l107 -406c17 -67 56 -51 56 -91c0 -12 -10 -21 -23 -21c-21 0 -46 3 -89 3s-74 -3 -97 -3c-19 0 -33 9 -33 25c0 36 53 25 53 64
c0 11 -2 22 -5 33l-25 100c-3 11 -6 23 -28 23h-124c-12 0 -21 -2 -26 -23l-25 -97c-3 -13 -6 -26 -6 -34c0 -40 51 -30 51 -66c0 -16 -13 -25 -33 -25c-23 0 -46 3 -67 3s-37 -3 -58 -3zM127 839c0 38 28 67 67 67c37 0 63 -27 63 -65c0 -39 -26 -66 -65 -66
c-37 0 -65 27 -65 64zM185 327c-2 -9 -3 -19 13 -19h99c15 0 14 9 12 19l-62 238zM295 839c0 38 27 67 66 67c38 0 64 -27 64 -65s-26 -66 -66 -66c-37 0 -64 27 -64 64z" />
    <glyph glyph-name="Aring" unicode="&#xc5;" horiz-adv-x="555" 
d="M20 -2c-15 0 -23 10 -23 22c0 40 41 22 59 88l106 408c13 50 26 104 35 146c10 51 28 58 81 58s68 -7 79 -58c10 -45 22 -95 35 -146l107 -406c17 -67 56 -51 56 -91c0 -12 -10 -21 -23 -21c-21 0 -46 3 -89 3s-74 -3 -97 -3c-19 0 -33 9 -33 25c0 36 53 25 53 64
c0 11 -2 22 -5 33l-25 100c-3 11 -6 23 -28 23h-124c-12 0 -21 -2 -26 -23l-25 -97c-3 -13 -6 -26 -6 -34c0 -40 51 -30 51 -66c0 -16 -13 -25 -33 -25c-23 0 -46 3 -67 3s-37 -3 -58 -3zM178 848c0 65 37 102 101 102c62 0 97 -35 97 -98c0 -69 -35 -108 -100 -108
s-98 37 -98 104zM185 327c-2 -9 -3 -19 13 -19h99c15 0 14 9 12 19l-62 238zM240 845c0 -36 13 -57 36 -57c26 0 38 20 38 61c0 37 -13 58 -36 58c-25 0 -38 -20 -38 -62z" />
    <glyph glyph-name="AE" unicode="&#xc6;" horiz-adv-x="787" 
d="M691 -23c-20 0 -25 23 -56 23h-212c-43 0 -63 -3 -80 -3c-21 0 -29 12 -29 25c0 40 42 17 42 86v118c0 9 -1 21 -15 21h-116c-16 0 -23 -6 -32 -25l-45 -99c-7 -17 -14 -31 -14 -44c0 -30 45 -23 45 -57c0 -16 -14 -25 -35 -25c-25 0 -43 3 -65 3c-25 0 -52 -3 -70 -3
c-14 0 -23 10 -23 21c0 45 45 16 78 90l202 448c8 20 20 41 20 61c0 46 -45 32 -45 71c0 16 13 27 32 27c18 0 38 -3 83 -3h256c31 0 35 23 55 23c22 0 31 -24 40 -50l29 -83c13 -36 19 -54 19 -71s-10 -26 -23 -26c-14 0 -22 9 -33 25c-49 72 -78 116 -138 116h-31
c-25 0 -40 -7 -40 -48v-179c0 -21 9 -24 22 -24h29c40 0 41 74 70 74c14 0 24 -10 24 -34c0 -23 -3 -48 -3 -73s3 -51 3 -73c0 -25 -10 -34 -24 -34c-29 0 -30 74 -70 74h-29c-14 0 -22 -4 -22 -24v-190c0 -28 4 -48 40 -48h52c54 0 86 35 144 123c12 17 22 26 33 26
c12 0 23 -11 23 -27c0 -19 -6 -36 -20 -75l-33 -93c-10 -28 -20 -44 -38 -44zM244 336c-6 -13 -9 -23 7 -23h90c10 0 15 5 15 22v255z" />
    <glyph glyph-name="Ccedilla" unicode="&#xc7;" horiz-adv-x="510" 
d="M276 -15h-7l-7 -34c8 3 17 4 25 4c43 0 74 -32 74 -74c0 -48 -35 -81 -86 -81c-28 0 -54 6 -71 20c-8 7 -13 14 -13 24s7 20 18 20c6 0 10 -2 17 -6c13 -6 27 -14 43 -14c20 0 30 13 30 30s-9 27 -26 27c-11 0 -22 -5 -33 -10c-8 3 -23 18 -27 29l16 70
c-116 26 -200 150 -200 353c0 222 116 384 252 384c49 0 76 -22 89 -22c18 0 26 27 48 27c19 0 29 -18 36 -50l21 -90c9 -41 15 -65 15 -80c0 -18 -12 -30 -25 -30c-14 0 -24 10 -34 31c-45 92 -75 144 -130 144c-74 0 -130 -121 -130 -289c0 -170 60 -288 147 -288
c56 0 96 39 122 104c6 14 14 25 31 25c14 0 25 -14 25 -31c0 -12 -5 -28 -11 -44c-31 -79 -106 -149 -209 -149z" />
    <glyph glyph-name="Egrave" unicode="&#xc8;" horiz-adv-x="514" 
d="M417 -23c-28 0 -29 23 -60 23h-217c-43 0 -61 -3 -79 -3c-20 0 -30 12 -30 26c0 39 43 16 43 85v496c0 68 -43 46 -43 86c0 14 11 25 30 25c17 0 35 -3 79 -3h189c32 0 35 23 60 23c22 0 30 -24 39 -50l30 -83c13 -36 19 -54 19 -71c0 -16 -11 -26 -24 -26
c-14 0 -22 9 -33 25c-49 72 -78 116 -139 116h-32c-30 0 -43 -7 -43 -46v-181c0 -21 10 -24 22 -24h39c41 0 42 74 74 74c15 0 25 -10 25 -34c0 -23 -3 -48 -3 -73s3 -51 3 -73c0 -25 -10 -34 -25 -34c-32 0 -33 74 -74 74h-39c-14 0 -22 -4 -22 -24v-190
c0 -28 4 -48 41 -48h61c52 0 86 34 144 123c12 17 21 26 34 26c12 0 23 -11 23 -27c0 -19 -6 -36 -20 -75l-33 -93c-10 -28 -21 -44 -39 -44zM136 918c0 16 9 22 51 22c34 0 45 -6 53 -24c19 -36 37 -77 55 -122c3 -9 7 -18 7 -25c0 -9 -10 -16 -24 -16c-13 0 -23 3 -38 20
c-25 27 -55 71 -74 94c-18 23 -30 36 -30 51z" />
    <glyph glyph-name="Eacute" unicode="&#xc9;" horiz-adv-x="514" 
d="M417 -23c-28 0 -29 23 -60 23h-217c-43 0 -61 -3 -79 -3c-20 0 -30 12 -30 26c0 39 43 16 43 85v496c0 68 -43 46 -43 86c0 14 11 25 30 25c17 0 35 -3 79 -3h189c32 0 35 23 60 23c22 0 30 -24 39 -50l30 -83c13 -36 19 -54 19 -71c0 -16 -11 -26 -24 -26
c-14 0 -22 9 -33 25c-49 72 -78 116 -139 116h-32c-30 0 -43 -7 -43 -46v-181c0 -21 10 -24 22 -24h39c41 0 42 74 74 74c15 0 25 -10 25 -34c0 -23 -3 -48 -3 -73s3 -51 3 -73c0 -25 -10 -34 -25 -34c-32 0 -33 74 -74 74h-39c-14 0 -22 -4 -22 -24v-190
c0 -28 4 -48 41 -48h61c52 0 86 34 144 123c12 17 21 26 34 26c12 0 23 -11 23 -27c0 -19 -6 -36 -20 -75l-33 -93c-10 -28 -21 -44 -39 -44zM214 769c0 7 4 17 7 25c15 39 37 86 54 121c10 19 22 24 54 24c42 0 50 -6 50 -23c0 -13 -9 -24 -30 -50c-20 -25 -47 -67 -74 -93
c-14 -16 -24 -20 -38 -20c-15 0 -23 7 -23 16z" />
    <glyph glyph-name="Ecircumflex" unicode="&#xca;" horiz-adv-x="514" 
d="M417 -23c-28 0 -29 23 -60 23h-217c-43 0 -61 -3 -79 -3c-20 0 -30 12 -30 26c0 39 43 16 43 85v496c0 68 -43 46 -43 86c0 14 11 25 30 25c17 0 35 -3 79 -3h189c32 0 35 23 60 23c22 0 30 -24 39 -50l30 -83c13 -36 19 -54 19 -71c0 -16 -11 -26 -24 -26
c-14 0 -22 9 -33 25c-49 72 -78 116 -139 116h-32c-30 0 -43 -7 -43 -46v-181c0 -21 10 -24 22 -24h39c41 0 42 74 74 74c15 0 25 -10 25 -34c0 -23 -3 -48 -3 -73s3 -51 3 -73c0 -25 -10 -34 -25 -34c-32 0 -33 74 -74 74h-39c-14 0 -22 -4 -22 -24v-190
c0 -28 4 -48 41 -48h61c52 0 86 34 144 123c12 17 21 26 34 26c12 0 23 -11 23 -27c0 -19 -6 -36 -20 -75l-33 -93c-10 -28 -21 -44 -39 -44zM137 782c0 9 2 15 9 28c20 40 34 66 57 104c11 19 21 27 54 27c32 0 42 -7 54 -28c19 -32 42 -71 56 -102c7 -13 10 -19 10 -29
c0 -13 -10 -22 -26 -22c-11 0 -22 6 -34 22l-60 80l-61 -80c-14 -18 -25 -22 -34 -22c-16 0 -25 9 -25 22z" />
    <glyph glyph-name="Edieresis" unicode="&#xcb;" horiz-adv-x="514" 
d="M417 -23c-28 0 -29 23 -60 23h-217c-43 0 -61 -3 -79 -3c-20 0 -30 12 -30 26c0 39 43 16 43 85v496c0 68 -43 46 -43 86c0 14 11 25 30 25c17 0 35 -3 79 -3h189c32 0 35 23 60 23c22 0 30 -24 39 -50l30 -83c13 -36 19 -54 19 -71c0 -16 -11 -26 -24 -26
c-14 0 -22 9 -33 25c-49 72 -78 116 -139 116h-32c-30 0 -43 -7 -43 -46v-181c0 -21 10 -24 22 -24h39c41 0 42 74 74 74c15 0 25 -10 25 -34c0 -23 -3 -48 -3 -73s3 -51 3 -73c0 -25 -10 -34 -25 -34c-32 0 -33 74 -74 74h-39c-14 0 -22 -4 -22 -24v-190
c0 -28 4 -48 41 -48h61c52 0 86 34 144 123c12 17 21 26 34 26c12 0 23 -11 23 -27c0 -19 -6 -36 -20 -75l-33 -93c-10 -28 -21 -44 -39 -44zM108 839c0 38 28 67 67 67c37 0 63 -27 63 -65c0 -39 -26 -66 -65 -66c-37 0 -65 27 -65 64zM276 839c0 38 27 67 66 67
c38 0 64 -27 64 -65s-26 -66 -66 -66c-37 0 -64 27 -64 64z" />
    <glyph glyph-name="Igrave" unicode="&#xcc;" horiz-adv-x="280" 
d="M61 -2c-19 0 -30 12 -30 25c0 39 43 19 43 86v494c0 67 -43 47 -43 86c0 14 14 25 32 25c19 0 33 -3 77 -3s62 3 79 3c19 0 30 -11 30 -25c0 -39 -43 -19 -43 -86v-494c0 -67 43 -47 43 -86c0 -13 -11 -25 -30 -25c-17 0 -35 3 -79 3s-61 -3 -79 -3zM24 918
c0 16 9 22 51 22c34 0 45 -6 53 -24c19 -36 37 -77 55 -122c3 -9 7 -18 7 -25c0 -9 -10 -16 -24 -16c-13 0 -23 3 -38 20c-25 27 -55 71 -74 94c-18 23 -30 36 -30 51z" />
    <glyph glyph-name="Iacute" unicode="&#xcd;" horiz-adv-x="280" 
d="M61 -2c-19 0 -30 12 -30 25c0 39 43 19 43 86v494c0 67 -43 47 -43 86c0 14 14 25 32 25c19 0 33 -3 77 -3s62 3 79 3c19 0 30 -11 30 -25c0 -39 -43 -19 -43 -86v-494c0 -67 43 -47 43 -86c0 -13 -11 -25 -30 -25c-17 0 -35 3 -79 3s-61 -3 -79 -3zM102 769
c0 7 4 17 7 25c15 39 37 86 54 121c10 19 22 24 54 24c42 0 50 -6 50 -23c0 -13 -9 -24 -30 -50c-20 -25 -47 -67 -74 -93c-14 -16 -24 -20 -38 -20c-15 0 -23 7 -23 16z" />
    <glyph glyph-name="Icircumflex" unicode="&#xce;" horiz-adv-x="280" 
d="M61 -2c-19 0 -30 12 -30 25c0 39 43 19 43 86v494c0 67 -43 47 -43 86c0 14 14 25 32 25c19 0 33 -3 77 -3s62 3 79 3c19 0 30 -11 30 -25c0 -39 -43 -19 -43 -86v-494c0 -67 43 -47 43 -86c0 -13 -11 -25 -30 -25c-17 0 -35 3 -79 3s-61 -3 -79 -3zM25 782
c0 9 2 15 9 28c20 40 34 66 57 104c11 19 21 27 54 27c32 0 42 -7 54 -28c19 -32 42 -71 56 -102c7 -13 10 -19 10 -29c0 -13 -10 -22 -26 -22c-11 0 -22 6 -34 22l-60 80l-61 -80c-14 -18 -25 -22 -34 -22c-16 0 -25 9 -25 22z" />
    <glyph glyph-name="Idieresis" unicode="&#xcf;" horiz-adv-x="280" 
d="M61 -2c-19 0 -30 12 -30 25c0 39 43 19 43 86v494c0 67 -43 47 -43 86c0 14 14 25 32 25c19 0 33 -3 77 -3s62 3 79 3c19 0 30 -11 30 -25c0 -39 -43 -19 -43 -86v-494c0 -67 43 -47 43 -86c0 -13 -11 -25 -30 -25c-17 0 -35 3 -79 3s-61 -3 -79 -3zM-4 839
c0 38 28 67 67 67c37 0 63 -27 63 -65c0 -39 -26 -66 -65 -66c-37 0 -65 27 -65 64zM164 839c0 38 27 67 66 67c38 0 64 -27 64 -65s-26 -66 -66 -66c-37 0 -64 27 -64 64z" />
    <glyph glyph-name="Eth" unicode="&#xd0;" horiz-adv-x="594" 
d="M50 330c-21 0 -30 10 -30 34s9 33 30 33h26v206c0 68 -43 46 -43 86c0 14 11 25 30 25c18 0 36 -3 80 -3c41 0 84 5 126 5c161 0 297 -153 297 -372c0 -206 -102 -347 -287 -347c-43 0 -86 4 -136 4c-44 0 -62 -3 -80 -3c-20 0 -30 11 -30 25c0 40 43 17 43 86v221h-26z
M208 113c0 -32 8 -48 44 -48h12c103 0 155 108 155 287c0 176 -64 298 -160 298h-7c-30 0 -44 -11 -44 -49v-204h84c20 0 29 -9 29 -33s-9 -34 -29 -34h-84v-217z" />
    <glyph glyph-name="Ntilde" unicode="&#xd1;" horiz-adv-x="568" 
d="M461 -8c-25 0 -37 14 -50 36l-264 469l1 -387c0 -67 58 -41 58 -85c0 -17 -13 -27 -32 -27c-17 0 -36 3 -61 3c-20 0 -37 -3 -56 -3c-20 0 -29 13 -29 26c0 39 45 18 45 86v492c0 68 -45 46 -45 86c0 15 13 27 33 27c17 0 33 -3 50 -3c20 0 29 2 45 2c21 0 31 -9 41 -26
l228 -417v331c0 68 -58 41 -58 86c0 16 12 27 33 27s39 -3 58 -3c18 0 38 3 57 3s29 -13 29 -26c0 -40 -45 -18 -45 -87v-570c0 -25 -18 -40 -38 -40zM160 806c0 6 1 18 6 36c11 42 33 81 73 81c52 0 75 -77 100 -77c11 0 18 11 26 35c6 18 14 34 28 34c16 0 24 -10 24 -26
c0 -8 -2 -22 -6 -37c-11 -45 -35 -81 -74 -81c-53 0 -79 76 -99 76c-11 0 -18 -11 -26 -33c-8 -23 -15 -35 -28 -35c-15 0 -24 9 -24 27z" />
    <glyph glyph-name="Ograve" unicode="&#xd2;" horiz-adv-x="605" 
d="M301 -15c-153 0 -273 138 -273 360c0 218 122 383 274 383c156 0 275 -166 275 -381c0 -220 -111 -362 -276 -362zM175 355c0 -157 42 -297 128 -297c89 0 127 136 127 298c0 157 -39 301 -127 301s-128 -141 -128 -302zM181 922c0 16 9 22 51 22c34 0 45 -6 53 -24
c19 -36 37 -77 55 -122c3 -9 7 -18 7 -25c0 -9 -10 -16 -24 -16c-13 0 -23 3 -38 20c-25 27 -55 71 -74 94c-18 23 -30 36 -30 51z" />
    <glyph glyph-name="Oacute" unicode="&#xd3;" horiz-adv-x="605" 
d="M301 -15c-153 0 -273 138 -273 360c0 218 122 383 274 383c156 0 275 -166 275 -381c0 -220 -111 -362 -276 -362zM175 355c0 -157 42 -297 128 -297c89 0 127 136 127 298c0 157 -39 301 -127 301s-128 -141 -128 -302zM259 773c0 7 4 17 7 25c15 39 37 86 54 121
c10 19 22 24 54 24c42 0 50 -6 50 -23c0 -13 -9 -24 -30 -50c-20 -25 -47 -67 -74 -93c-14 -16 -24 -20 -38 -20c-15 0 -23 7 -23 16z" />
    <glyph glyph-name="Ocircumflex" unicode="&#xd4;" horiz-adv-x="605" 
d="M301 -15c-153 0 -273 138 -273 360c0 218 122 383 274 383c156 0 275 -166 275 -381c0 -220 -111 -362 -276 -362zM175 355c0 -157 42 -297 128 -297c89 0 127 136 127 298c0 157 -39 301 -127 301s-128 -141 -128 -302zM182 786c0 9 2 15 9 28c20 40 34 66 57 104
c11 19 21 27 54 27c32 0 42 -7 54 -28c19 -32 42 -71 56 -102c7 -13 10 -19 10 -29c0 -13 -10 -22 -26 -22c-11 0 -22 6 -34 22l-60 80l-61 -80c-14 -18 -25 -22 -34 -22c-16 0 -25 9 -25 22z" />
    <glyph glyph-name="Otilde" unicode="&#xd5;" horiz-adv-x="605" 
d="M301 -15c-153 0 -273 138 -273 360c0 218 122 383 274 383c156 0 275 -166 275 -381c0 -220 -111 -362 -276 -362zM174 809c0 6 1 18 6 36c11 42 33 81 73 81c52 0 75 -77 100 -77c11 0 18 11 26 35c6 18 14 34 28 34c16 0 24 -10 24 -26c0 -8 -2 -22 -6 -37
c-11 -45 -35 -81 -74 -81c-53 0 -79 76 -99 76c-11 0 -18 -11 -26 -33c-8 -23 -15 -35 -28 -35c-15 0 -24 9 -24 27zM175 355c0 -157 42 -297 128 -297c89 0 127 136 127 298c0 157 -39 301 -127 301s-128 -141 -128 -302z" />
    <glyph glyph-name="Odieresis" unicode="&#xd6;" horiz-adv-x="605" 
d="M301 -15c-153 0 -273 138 -273 360c0 218 122 383 274 383c156 0 275 -166 275 -381c0 -220 -111 -362 -276 -362zM153 843c0 38 28 67 67 67c37 0 63 -27 63 -65c0 -39 -26 -66 -65 -66c-37 0 -65 27 -65 64zM175 355c0 -157 42 -297 128 -297c89 0 127 136 127 298
c0 157 -39 301 -127 301s-128 -141 -128 -302zM321 843c0 38 27 67 66 67c38 0 64 -27 64 -65s-26 -66 -66 -66c-37 0 -64 27 -64 64z" />
    <glyph glyph-name="multiply" unicode="&#xd7;" horiz-adv-x="386" 
d="M85 98c-17 0 -55 22 -55 44c0 6 2 11 7 18l98 133c4 5 6 8 6 12s-2 8 -6 13l-98 133c-5 7 -7 12 -7 18c0 21 37 44 55 44c6 0 11 -2 16 -9l83 -116c4 -7 6 -8 9 -8s5 1 10 8l83 116c4 7 10 9 15 9c18 0 56 -23 56 -44c0 -6 -3 -11 -8 -18l-98 -133c-4 -5 -6 -9 -6 -13
s2 -7 6 -12l98 -133c5 -7 8 -12 8 -18c0 -22 -38 -44 -56 -44c-4 0 -11 2 -15 8l-83 117c-5 7 -7 8 -10 8s-5 -1 -9 -8l-83 -117c-5 -6 -12 -8 -16 -8z" />
    <glyph glyph-name="Oslash" unicode="&#xd8;" horiz-adv-x="610" 
d="M67 -11c-12 0 -35 17 -35 35c0 8 6 18 12 27l45 64c-36 59 -57 137 -57 230c0 218 122 383 274 383c62 0 118 -26 163 -71l36 51c7 9 14 12 21 12c11 0 36 -15 36 -35c0 -7 -5 -15 -13 -26l-38 -54c44 -67 70 -157 70 -258c0 -220 -111 -362 -276 -362
c-67 0 -128 27 -176 76l-41 -59c-5 -7 -12 -13 -21 -13zM179 355c0 -37 2 -73 7 -107l219 312c-20 59 -53 97 -98 97c-88 0 -128 -141 -128 -302zM203 171c21 -68 55 -113 104 -113c89 0 127 136 127 298c0 46 -3 90 -10 130z" />
    <glyph glyph-name="Ugrave" unicode="&#xd9;" horiz-adv-x="536" 
d="M274 -14c-130 0 -222 68 -222 204c0 27 1 49 2 68l15 312c1 19 2 34 2 42c0 34 -13 41 -24 49c-9 6 -18 11 -18 28c0 12 8 25 29 25c18 0 36 -3 80 -3c43 0 67 3 83 3c21 0 30 -12 30 -25c0 -15 -10 -24 -19 -30c-12 -8 -26 -19 -28 -56l-17 -350c0 -7 -2 -36 -2 -57
c0 -80 39 -124 109 -125c64 0 113 38 113 124c0 15 -1 42 -2 63l-16 345c-2 37 -19 45 -34 53c-13 7 -26 12 -26 32c0 13 10 26 28 26c17 0 45 -3 67 -3c17 0 38 3 57 3c18 0 28 -12 28 -25c0 -17 -10 -23 -19 -28c-12 -8 -27 -16 -27 -49c0 -9 1 -24 2 -42l17 -319
c1 -7 3 -41 3 -65c0 -137 -95 -200 -211 -200zM154 918c0 16 9 22 51 22c34 0 45 -6 53 -24c19 -36 37 -77 55 -122c3 -9 7 -18 7 -25c0 -9 -10 -16 -24 -16c-13 0 -23 3 -38 20c-25 27 -55 71 -74 94c-18 23 -30 36 -30 51z" />
    <glyph glyph-name="Uacute" unicode="&#xda;" horiz-adv-x="536" 
d="M274 -14c-130 0 -222 68 -222 204c0 27 1 49 2 68l15 312c1 19 2 34 2 42c0 34 -13 41 -24 49c-9 6 -18 11 -18 28c0 12 8 25 29 25c18 0 36 -3 80 -3c43 0 67 3 83 3c21 0 30 -12 30 -25c0 -15 -10 -24 -19 -30c-12 -8 -26 -19 -28 -56l-17 -350c0 -7 -2 -36 -2 -57
c0 -80 39 -124 109 -125c64 0 113 38 113 124c0 15 -1 42 -2 63l-16 345c-2 37 -19 45 -34 53c-13 7 -26 12 -26 32c0 13 10 26 28 26c17 0 45 -3 67 -3c17 0 38 3 57 3c18 0 28 -12 28 -25c0 -17 -10 -23 -19 -28c-12 -8 -27 -16 -27 -49c0 -9 1 -24 2 -42l17 -319
c1 -7 3 -41 3 -65c0 -137 -95 -200 -211 -200zM232 769c0 7 4 17 7 25c15 39 37 86 54 121c10 19 22 24 54 24c42 0 50 -6 50 -23c0 -13 -9 -24 -30 -50c-20 -25 -47 -67 -74 -93c-14 -16 -24 -20 -38 -20c-15 0 -23 7 -23 16z" />
    <glyph glyph-name="Ucircumflex" unicode="&#xdb;" horiz-adv-x="536" 
d="M274 -14c-130 0 -222 68 -222 204c0 27 1 49 2 68l15 312c1 19 2 34 2 42c0 34 -13 41 -24 49c-9 6 -18 11 -18 28c0 12 8 25 29 25c18 0 36 -3 80 -3c43 0 67 3 83 3c21 0 30 -12 30 -25c0 -15 -10 -24 -19 -30c-12 -8 -26 -19 -28 -56l-17 -350c0 -7 -2 -36 -2 -57
c0 -80 39 -124 109 -125c64 0 113 38 113 124c0 15 -1 42 -2 63l-16 345c-2 37 -19 45 -34 53c-13 7 -26 12 -26 32c0 13 10 26 28 26c17 0 45 -3 67 -3c17 0 38 3 57 3c18 0 28 -12 28 -25c0 -17 -10 -23 -19 -28c-12 -8 -27 -16 -27 -49c0 -9 1 -24 2 -42l17 -319
c1 -7 3 -41 3 -65c0 -137 -95 -200 -211 -200zM156 782c0 9 2 15 9 28c20 40 34 66 57 104c11 19 21 27 54 27c32 0 42 -7 54 -28c19 -32 42 -71 56 -102c7 -13 10 -19 10 -29c0 -13 -10 -22 -26 -22c-11 0 -22 6 -34 22l-60 80l-61 -80c-14 -18 -25 -22 -34 -22
c-16 0 -25 9 -25 22z" />
    <glyph glyph-name="Udieresis" unicode="&#xdc;" horiz-adv-x="536" 
d="M274 -14c-130 0 -222 68 -222 204c0 27 1 49 2 68l15 312c1 19 2 34 2 42c0 34 -13 41 -24 49c-9 6 -18 11 -18 28c0 12 8 25 29 25c18 0 36 -3 80 -3c43 0 67 3 83 3c21 0 30 -12 30 -25c0 -15 -10 -24 -19 -30c-12 -8 -26 -19 -28 -56l-17 -350c0 -7 -2 -36 -2 -57
c0 -80 39 -124 109 -125c64 0 113 38 113 124c0 15 -1 42 -2 63l-16 345c-2 37 -19 45 -34 53c-13 7 -26 12 -26 32c0 13 10 26 28 26c17 0 45 -3 67 -3c17 0 38 3 57 3c18 0 28 -12 28 -25c0 -17 -10 -23 -19 -28c-12 -8 -27 -16 -27 -49c0 -9 1 -24 2 -42l17 -319
c1 -7 3 -41 3 -65c0 -137 -95 -200 -211 -200zM126 839c0 38 28 67 67 67c37 0 63 -27 63 -65c0 -39 -26 -66 -65 -66c-37 0 -65 27 -65 64zM294 839c0 38 27 67 66 67c38 0 64 -27 64 -65s-26 -66 -66 -66c-37 0 -64 27 -64 64z" />
    <glyph glyph-name="Yacute" unicode="&#xdd;" horiz-adv-x="524" 
d="M171 -2c-20 0 -29 12 -29 26c0 43 53 17 53 86v169l-138 336c-21 50 -50 44 -50 76c0 14 11 23 27 23c18 0 41 -3 84 -3c39 0 64 3 87 3c19 0 32 -9 32 -25c0 -35 -40 -22 -40 -60c0 -10 3 -18 12 -40l84 -215l84 209c7 17 13 32 13 43c0 40 -46 29 -46 63
c0 16 10 25 29 25c22 0 45 -3 63 -3s41 3 60 3c15 0 25 -9 25 -22c0 -35 -30 -24 -53 -79l-140 -333v-170c0 -69 53 -43 53 -86c0 -14 -10 -26 -30 -26c-21 0 -42 3 -91 3c-46 0 -68 -3 -89 -3zM237 769c0 7 4 17 7 25c15 39 37 86 54 121c10 19 22 24 54 24
c42 0 50 -6 50 -23c0 -13 -9 -24 -30 -50c-20 -25 -47 -67 -74 -93c-14 -16 -24 -20 -38 -20c-15 0 -23 7 -23 16z" />
    <glyph glyph-name="Thorn" unicode="&#xde;" horiz-adv-x="531" 
d="M262 119c-20 0 -38 1 -56 4v-13c0 -69 56 -43 56 -88c0 -12 -10 -24 -28 -24c-20 0 -46 3 -94 3c-44 0 -62 -3 -81 -3s-28 12 -28 24c0 41 43 18 43 87v495c0 68 -43 45 -43 86c0 13 9 24 28 24s37 -3 81 -3c48 0 74 3 94 3c18 0 28 -11 28 -24c0 -44 -54 -20 -56 -84
c16 2 33 3 51 3c166 0 249 -94 249 -249c0 -138 -58 -241 -244 -241zM206 227c0 -31 17 -41 46 -41c73 0 109 67 109 174c0 119 -42 182 -108 182c-47 0 -47 -31 -47 -49v-266z" />
    <glyph glyph-name="germandbls" unicode="&#xdf;" horiz-adv-x="542" 
d="M287 -19c-15 0 -23 17 -29 38l-19 70c-9 31 -15 51 -15 68s11 25 21 25c13 0 20 -7 29 -23c33 -64 66 -113 103 -113c27 0 44 23 44 58c0 46 -32 77 -73 110c-63 52 -115 82 -115 164c0 94 80 129 83 229c2 63 -26 89 -56 89c-59 0 -73 -88 -73 -174v-407
c0 -79 36 -53 36 -93c0 -10 -7 -24 -26 -24c-17 0 -30 3 -71 3c-39 0 -57 -3 -74 -3c-19 0 -27 13 -27 24c0 40 40 14 40 93v388c0 144 42 265 191 265c92 0 174 -55 174 -151c0 -110 -93 -131 -93 -200c0 -42 35 -68 78 -101c64 -50 116 -103 116 -186
c0 -95 -67 -144 -128 -144c-38 0 -62 20 -75 20c-16 0 -18 -25 -41 -25z" />
    <glyph glyph-name="agrave" unicode="&#xe0;" horiz-adv-x="447" 
d="M362 -8c-37 0 -71 21 -86 68c-28 -40 -72 -72 -125 -72c-79 0 -129 63 -129 152s56 161 149 161c33 0 58 -8 77 -18l-1 13c-9 90 -32 130 -72 130c-30 0 -53 -21 -78 -47c-8 -8 -18 -14 -26 -14c-9 0 -23 8 -23 24c0 14 11 30 24 45c33 40 81 74 142 74
c88 0 140 -69 151 -179l17 -167c8 -70 22 -77 62 -88c8 -2 14 -9 14 -19c0 -24 -35 -63 -96 -63zM97 732c0 16 9 22 51 22c34 0 45 -6 53 -24c19 -36 37 -77 55 -122c3 -9 7 -18 7 -25c0 -9 -10 -16 -24 -16c-13 0 -23 3 -38 20c-25 27 -55 71 -74 94c-18 23 -30 36 -30 51z
M144 152c0 -52 22 -89 54 -89c28 0 54 28 67 58l-11 107c-12 9 -27 14 -43 14c-39 0 -67 -33 -67 -90z" />
    <glyph glyph-name="aacute" unicode="&#xe1;" horiz-adv-x="447" 
d="M362 -8c-37 0 -71 21 -86 68c-28 -40 -72 -72 -125 -72c-79 0 -129 63 -129 152s56 161 149 161c33 0 58 -8 77 -18l-1 13c-9 90 -32 130 -72 130c-30 0 -53 -21 -78 -47c-8 -8 -18 -14 -26 -14c-9 0 -23 8 -23 24c0 14 11 30 24 45c33 40 81 74 142 74
c88 0 140 -69 151 -179l17 -167c8 -70 22 -77 62 -88c8 -2 14 -9 14 -19c0 -24 -35 -63 -96 -63zM144 152c0 -52 22 -89 54 -89c28 0 54 28 67 58l-11 107c-12 9 -27 14 -43 14c-39 0 -67 -33 -67 -90zM175 583c0 7 4 17 7 25c15 39 37 86 54 121c10 19 22 24 54 24
c42 0 50 -6 50 -23c0 -13 -9 -24 -30 -50c-20 -25 -47 -67 -74 -93c-14 -16 -24 -20 -38 -20c-15 0 -23 7 -23 16z" />
    <glyph glyph-name="acircumflex" unicode="&#xe2;" horiz-adv-x="447" 
d="M362 -8c-37 0 -71 21 -86 68c-28 -40 -72 -72 -125 -72c-79 0 -129 63 -129 152s56 161 149 161c33 0 58 -8 77 -18l-1 13c-9 90 -32 130 -72 130c-30 0 -53 -21 -78 -47c-8 -8 -18 -14 -26 -14c-9 0 -23 8 -23 24c0 14 11 30 24 45c33 40 81 74 142 74
c88 0 140 -69 151 -179l17 -167c8 -70 22 -77 62 -88c8 -2 14 -9 14 -19c0 -24 -35 -63 -96 -63zM98 596c0 9 2 15 9 28c20 40 34 66 57 104c11 19 21 27 54 27c32 0 42 -7 54 -28c19 -32 42 -71 56 -102c7 -13 10 -19 10 -29c0 -13 -10 -22 -26 -22c-11 0 -22 6 -34 22
l-60 80l-61 -80c-14 -18 -25 -22 -34 -22c-16 0 -25 9 -25 22zM144 152c0 -52 22 -89 54 -89c28 0 54 28 67 58l-11 107c-12 9 -27 14 -43 14c-39 0 -67 -33 -67 -90z" />
    <glyph glyph-name="atilde" unicode="&#xe3;" horiz-adv-x="447" 
d="M362 -8c-37 0 -71 21 -86 68c-28 -40 -72 -72 -125 -72c-79 0 -129 63 -129 152s56 161 149 161c33 0 58 -8 77 -18l-1 13c-9 90 -32 130 -72 130c-30 0 -53 -21 -78 -47c-8 -8 -18 -14 -26 -14c-9 0 -23 8 -23 24c0 14 11 30 24 45c33 40 81 74 142 74
c88 0 140 -69 151 -179l17 -167c8 -70 22 -77 62 -88c8 -2 14 -9 14 -19c0 -24 -35 -63 -96 -63zM90 619c0 6 1 18 6 36c11 42 33 81 73 81c52 0 75 -77 100 -77c11 0 18 11 26 35c6 18 14 34 28 34c16 0 24 -10 24 -26c0 -8 -2 -22 -6 -37c-11 -45 -35 -81 -74 -81
c-53 0 -79 76 -99 76c-11 0 -18 -11 -26 -33c-8 -23 -15 -35 -28 -35c-15 0 -24 9 -24 27zM144 152c0 -52 22 -89 54 -89c28 0 54 28 67 58l-11 107c-12 9 -27 14 -43 14c-39 0 -67 -33 -67 -90z" />
    <glyph glyph-name="adieresis" unicode="&#xe4;" horiz-adv-x="447" 
d="M362 -8c-37 0 -71 21 -86 68c-28 -40 -72 -72 -125 -72c-79 0 -129 63 -129 152s56 161 149 161c33 0 58 -8 77 -18l-1 13c-9 90 -32 130 -72 130c-30 0 -53 -21 -78 -47c-8 -8 -18 -14 -26 -14c-9 0 -23 8 -23 24c0 14 11 30 24 45c33 40 81 74 142 74
c88 0 140 -69 151 -179l17 -167c8 -70 22 -77 62 -88c8 -2 14 -9 14 -19c0 -24 -35 -63 -96 -63zM69 653c0 38 28 67 67 67c37 0 63 -27 63 -65c0 -39 -26 -66 -65 -66c-37 0 -65 27 -65 64zM144 152c0 -52 22 -89 54 -89c28 0 54 28 67 58l-11 107c-12 9 -27 14 -43 14
c-39 0 -67 -33 -67 -90zM237 653c0 38 27 67 66 67c38 0 64 -27 64 -65s-26 -66 -66 -66c-37 0 -64 27 -64 64z" />
    <glyph glyph-name="aring" unicode="&#xe5;" horiz-adv-x="447" 
d="M362 -8c-37 0 -71 21 -86 68c-28 -40 -72 -72 -125 -72c-79 0 -129 63 -129 152s56 161 149 161c33 0 58 -8 77 -18l-1 13c-9 90 -32 130 -72 130c-30 0 -53 -21 -78 -47c-8 -8 -18 -14 -26 -14c-9 0 -23 8 -23 24c0 14 11 30 24 45c33 40 81 74 142 74
c88 0 140 -69 151 -179l17 -167c8 -70 22 -77 62 -88c8 -2 14 -9 14 -19c0 -24 -35 -63 -96 -63zM120 662c0 65 37 102 101 102c62 0 97 -35 97 -98c0 -69 -35 -108 -100 -108s-98 37 -98 104zM144 152c0 -52 22 -89 54 -89c28 0 54 28 67 58l-11 107c-12 9 -27 14 -43 14
c-39 0 -67 -33 -67 -90zM182 659c0 -36 13 -57 36 -57c26 0 38 20 38 61c0 37 -13 58 -36 58c-25 0 -38 -20 -38 -62z" />
    <glyph glyph-name="ae" unicode="&#xe6;" horiz-adv-x="655" 
d="M451 -12c-72 0 -122 33 -153 86c-28 -48 -74 -86 -139 -86c-82 0 -136 63 -137 152c-2 89 56 161 149 161c33 0 59 -8 78 -18l-2 13c-10 90 -32 134 -72 134c-30 0 -53 -21 -78 -47c-8 -8 -18 -14 -26 -14c-9 0 -23 8 -23 24c0 14 11 30 24 44c33 41 81 75 142 75
c48 0 85 -22 111 -60c36 39 82 61 131 61c106 0 170 -99 170 -203c0 -33 -11 -41 -36 -47l-205 -57c19 -76 62 -132 118 -132c34 0 63 22 86 52c12 14 18 19 26 19c12 0 20 -11 20 -23c0 -7 -3 -18 -8 -28c-27 -59 -96 -106 -176 -106zM144 152c0 -52 27 -89 62 -89
c34 0 58 28 70 59c-8 23 -14 49 -17 77l-3 28c-13 9 -28 15 -45 15c-39 0 -67 -33 -67 -90zM375 292l1 -24l93 27c16 5 33 15 33 38c0 62 -28 111 -62 111c-38 1 -65 -53 -65 -152z" />
    <glyph glyph-name="ccedilla" unicode="&#xe7;" horiz-adv-x="407" 
d="M244 -200c-28 0 -54 6 -71 20c-8 7 -13 14 -13 24s7 20 18 20c6 0 10 -2 17 -6c13 -6 27 -14 43 -14c20 0 30 13 30 30s-9 27 -26 27c-11 0 -22 -5 -33 -10c-8 3 -23 18 -27 29l15 69c-99 12 -171 103 -171 252c0 164 98 272 201 272c90 0 155 -68 155 -112
c0 -23 -15 -57 -51 -92c-11 -11 -18 -14 -27 -14c-13 0 -22 9 -24 28c-8 59 -15 131 -62 131c-42 0 -67 -66 -67 -166c0 -130 56 -214 123 -214c35 0 60 26 82 60c6 10 12 13 20 13c10 0 18 -10 18 -22c0 -9 -2 -20 -6 -30c-18 -46 -65 -101 -149 -107l-8 -37c8 3 17 4 25 4
c43 0 74 -32 74 -74c0 -48 -35 -81 -86 -81z" />
    <glyph glyph-name="egrave" unicode="&#xe8;" horiz-adv-x="426" 
d="M222 -13c-119 0 -197 103 -197 258c0 160 94 268 202 268c106 0 170 -99 170 -203c0 -33 -11 -41 -36 -47l-205 -57c19 -77 62 -134 118 -134c34 0 63 22 86 53c12 13 18 18 27 18c11 0 19 -10 19 -22c0 -7 -3 -18 -8 -28c-27 -60 -95 -106 -176 -106zM101 720
c0 16 9 22 51 22c34 0 45 -6 53 -24c19 -36 37 -77 55 -122c3 -9 7 -18 7 -25c0 -9 -10 -16 -24 -16c-13 0 -23 3 -38 20c-25 27 -55 71 -74 94c-18 23 -30 36 -30 51zM146 292l1 -24l93 27c16 5 34 15 34 38c0 62 -29 111 -63 111c-38 1 -65 -53 -65 -152z" />
    <glyph glyph-name="eacute" unicode="&#xe9;" horiz-adv-x="426" 
d="M222 -13c-119 0 -197 103 -197 258c0 160 94 268 202 268c106 0 170 -99 170 -203c0 -33 -11 -41 -36 -47l-205 -57c19 -77 62 -134 118 -134c34 0 63 22 86 53c12 13 18 18 27 18c11 0 19 -10 19 -22c0 -7 -3 -18 -8 -28c-27 -60 -95 -106 -176 -106zM146 292l1 -24
l93 27c16 5 34 15 34 38c0 62 -29 111 -63 111c-38 1 -65 -53 -65 -152zM179 571c0 7 4 17 7 25c15 39 37 86 54 121c10 19 22 24 54 24c42 0 50 -6 50 -23c0 -13 -9 -24 -30 -50c-20 -25 -47 -67 -74 -93c-14 -16 -24 -20 -38 -20c-15 0 -23 7 -23 16z" />
    <glyph glyph-name="ecircumflex" unicode="&#xea;" horiz-adv-x="426" 
d="M222 -13c-119 0 -197 103 -197 258c0 160 94 268 202 268c106 0 170 -99 170 -203c0 -33 -11 -41 -36 -47l-205 -57c19 -77 62 -134 118 -134c34 0 63 22 86 53c12 13 18 18 27 18c11 0 19 -10 19 -22c0 -7 -3 -18 -8 -28c-27 -60 -95 -106 -176 -106zM102 584
c0 9 2 15 9 28c20 40 34 66 57 104c11 19 21 27 54 27c32 0 42 -7 54 -28c19 -32 42 -71 56 -102c7 -13 10 -19 10 -29c0 -13 -10 -22 -26 -22c-11 0 -22 6 -34 22l-60 80l-61 -80c-14 -18 -25 -22 -34 -22c-16 0 -25 9 -25 22zM146 292l1 -24l93 27c16 5 34 15 34 38
c0 62 -29 111 -63 111c-38 1 -65 -53 -65 -152z" />
    <glyph glyph-name="edieresis" unicode="&#xeb;" horiz-adv-x="426" 
d="M222 -13c-119 0 -197 103 -197 258c0 160 94 268 202 268c106 0 170 -99 170 -203c0 -33 -11 -41 -36 -47l-205 -57c19 -77 62 -134 118 -134c34 0 63 22 86 53c12 13 18 18 27 18c11 0 19 -10 19 -22c0 -7 -3 -18 -8 -28c-27 -60 -95 -106 -176 -106zM73 641
c0 38 28 67 67 67c37 0 63 -27 63 -65c0 -39 -26 -66 -65 -66c-37 0 -65 27 -65 64zM146 292l1 -24l93 27c16 5 34 15 34 38c0 62 -29 111 -63 111c-38 1 -65 -53 -65 -152zM241 641c0 38 27 67 66 67c38 0 64 -27 64 -65s-26 -66 -66 -66c-37 0 -64 27 -64 64z" />
    <glyph glyph-name="igrave" unicode="&#xec;" horiz-adv-x="256" 
d="M59 -2c-19 0 -28 14 -28 24c0 39 41 14 41 92v232c0 63 -46 31 -46 72c0 18 21 31 74 59c40 21 57 30 69 30c21 0 24 -21 24 -42v-351c0 -78 41 -53 41 -92c0 -10 -8 -24 -27 -24c-17 0 -35 3 -74 3c-40 0 -57 -3 -74 -3zM10 732c0 16 9 22 51 22c34 0 45 -6 53 -24
c19 -36 37 -77 55 -122c3 -9 7 -18 7 -25c0 -9 -10 -16 -24 -16c-13 0 -23 3 -38 20c-25 27 -55 71 -74 94c-18 23 -30 36 -30 51z" />
    <glyph glyph-name="iacute" unicode="&#xed;" horiz-adv-x="256" 
d="M59 -2c-19 0 -28 14 -28 24c0 39 41 14 41 92v232c0 63 -46 31 -46 72c0 18 21 31 74 59c40 21 57 30 69 30c21 0 24 -21 24 -42v-351c0 -78 41 -53 41 -92c0 -10 -8 -24 -27 -24c-17 0 -35 3 -74 3c-40 0 -57 -3 -74 -3zM88 583c0 7 4 17 7 25c15 39 37 86 54 121
c10 19 22 24 54 24c42 0 50 -6 50 -23c0 -13 -9 -24 -30 -50c-20 -25 -47 -67 -74 -93c-14 -16 -24 -20 -38 -20c-15 0 -23 7 -23 16z" />
    <glyph glyph-name="icircumflex" unicode="&#xee;" horiz-adv-x="256" 
d="M59 -2c-19 0 -28 14 -28 24c0 39 41 14 41 92v232c0 63 -46 31 -46 72c0 18 21 31 74 59c40 21 57 30 69 30c21 0 24 -21 24 -42v-351c0 -78 41 -53 41 -92c0 -10 -8 -24 -27 -24c-17 0 -35 3 -74 3c-40 0 -57 -3 -74 -3zM11 596c0 9 2 15 9 28c20 40 34 66 57 104
c11 19 21 27 54 27c32 0 42 -7 54 -28c19 -32 42 -71 56 -102c7 -13 10 -19 10 -29c0 -13 -10 -22 -26 -22c-11 0 -22 6 -34 22l-60 80l-61 -80c-14 -18 -25 -22 -34 -22c-16 0 -25 9 -25 22z" />
    <glyph glyph-name="idieresis" unicode="&#xef;" horiz-adv-x="256" 
d="M59 -2c-19 0 -28 14 -28 24c0 39 41 14 41 92v232c0 63 -46 31 -46 72c0 18 21 31 74 59c40 21 57 30 69 30c21 0 24 -21 24 -42v-351c0 -78 41 -53 41 -92c0 -10 -8 -24 -27 -24c-17 0 -35 3 -74 3c-40 0 -57 -3 -74 -3zM-18 653c0 38 28 67 67 67c37 0 63 -27 63 -65
c0 -39 -26 -66 -65 -66c-37 0 -65 27 -65 64zM150 653c0 38 27 67 66 67c38 0 64 -27 64 -65s-26 -66 -66 -66c-37 0 -64 27 -64 64z" />
    <glyph glyph-name="eth" unicode="&#xf0;" horiz-adv-x="471" 
d="M223 -14c-111 0 -197 98 -197 257s76 267 182 267c24 0 44 -6 62 -16c-12 36 -27 66 -44 93l-56 -41c-7 -5 -12 -7 -18 -7c-11 0 -25 12 -25 31c0 12 7 20 18 29l47 35c-8 9 -16 18 -25 26c-39 38 -53 42 -53 64c0 18 14 30 36 30c31 0 67 -14 97 -32
c11 -7 22 -15 32 -24l57 41c5 4 11 7 18 7c11 0 26 -13 26 -32c0 -12 -8 -20 -19 -28l-41 -30c67 -82 123 -215 123 -372c0 -198 -108 -298 -220 -298zM157 276c0 -130 45 -221 90 -221c37 0 69 51 69 177c0 127 -43 215 -91 215c-41 0 -68 -72 -68 -171z" />
    <glyph glyph-name="ntilde" unicode="&#xf1;" horiz-adv-x="497" 
d="M317 -2c-20 0 -30 11 -30 24c0 37 40 18 40 74c0 8 -2 23 -3 39l-17 157c-7 73 -14 121 -51 121c-33 0 -63 -39 -63 -127v-172c0 -78 41 -53 41 -92c0 -10 -8 -24 -27 -24c-17 0 -35 3 -74 3c-40 0 -57 -3 -74 -3c-19 0 -28 14 -28 24c0 39 41 14 41 92v232
c0 63 -46 31 -46 72c0 18 21 31 74 59c40 21 57 30 69 30c21 0 24 -21 24 -42v-53h1c25 62 64 99 117 99c92 0 107 -120 114 -184l21 -203c10 -93 46 -61 46 -103c0 -14 -11 -23 -28 -23c-18 0 -33 3 -73 3c-41 0 -57 -3 -74 -3zM120 619c0 6 1 18 6 36c11 42 33 81 73 81
c52 0 75 -77 100 -77c11 0 18 11 26 35c6 18 14 34 28 34c16 0 24 -10 24 -26c0 -8 -2 -22 -6 -37c-11 -45 -35 -81 -74 -81c-53 0 -79 76 -99 76c-11 0 -18 -11 -26 -33c-8 -23 -15 -35 -28 -35c-15 0 -24 9 -24 27z" />
    <glyph glyph-name="ograve" unicode="&#xf2;" horiz-adv-x="482" 
d="M232 -15c-129 0 -207 108 -207 256c0 158 92 273 225 273c131 0 207 -111 207 -255c0 -161 -95 -274 -225 -274zM119 721c0 16 9 22 51 22c34 0 45 -6 53 -24c19 -36 37 -77 55 -122c3 -9 7 -18 7 -25c0 -9 -10 -16 -24 -16c-13 0 -23 3 -38 20c-25 27 -55 71 -74 94
c-18 23 -30 36 -30 51zM156 284c0 -130 40 -233 97 -233c47 0 72 68 72 165c0 138 -42 232 -97 232c-46 0 -72 -66 -72 -164z" />
    <glyph glyph-name="oacute" unicode="&#xf3;" horiz-adv-x="482" 
d="M232 -15c-129 0 -207 108 -207 256c0 158 92 273 225 273c131 0 207 -111 207 -255c0 -161 -95 -274 -225 -274zM156 284c0 -130 40 -233 97 -233c47 0 72 68 72 165c0 138 -42 232 -97 232c-46 0 -72 -66 -72 -164zM197 572c0 7 4 17 7 25c15 39 37 86 54 121
c10 19 22 24 54 24c42 0 50 -6 50 -23c0 -13 -9 -24 -30 -50c-20 -25 -47 -67 -74 -93c-14 -16 -24 -20 -38 -20c-15 0 -23 7 -23 16z" />
    <glyph glyph-name="ocircumflex" unicode="&#xf4;" horiz-adv-x="482" 
d="M232 -15c-129 0 -207 108 -207 256c0 158 92 273 225 273c131 0 207 -111 207 -255c0 -161 -95 -274 -225 -274zM120 585c0 9 2 15 9 28c20 40 34 66 57 104c11 19 21 27 54 27c32 0 42 -7 54 -28c19 -32 42 -71 56 -102c7 -13 10 -19 10 -29c0 -13 -10 -22 -26 -22
c-11 0 -22 6 -34 22l-60 80l-61 -80c-14 -18 -25 -22 -34 -22c-16 0 -25 9 -25 22zM156 284c0 -130 40 -233 97 -233c47 0 72 68 72 165c0 138 -42 232 -97 232c-46 0 -72 -66 -72 -164z" />
    <glyph glyph-name="otilde" unicode="&#xf5;" horiz-adv-x="482" 
d="M232 -15c-129 0 -207 108 -207 256c0 158 92 273 225 273c131 0 207 -111 207 -255c0 -161 -95 -274 -225 -274zM112 608c0 6 1 18 6 36c11 42 33 81 73 81c52 0 75 -77 100 -77c11 0 18 11 26 35c6 18 14 34 28 34c16 0 24 -10 24 -26c0 -8 -2 -22 -6 -37
c-11 -45 -35 -81 -74 -81c-53 0 -79 76 -99 76c-11 0 -18 -11 -26 -33c-8 -23 -15 -35 -28 -35c-15 0 -24 9 -24 27zM156 284c0 -130 40 -233 97 -233c47 0 72 68 72 165c0 138 -42 232 -97 232c-46 0 -72 -66 -72 -164z" />
    <glyph glyph-name="odieresis" unicode="&#xf6;" horiz-adv-x="482" 
d="M232 -15c-129 0 -207 108 -207 256c0 158 92 273 225 273c131 0 207 -111 207 -255c0 -161 -95 -274 -225 -274zM91 642c0 38 28 67 67 67c37 0 63 -27 63 -65c0 -39 -26 -66 -65 -66c-37 0 -65 27 -65 64zM156 284c0 -130 40 -233 97 -233c47 0 72 68 72 165
c0 138 -42 232 -97 232c-46 0 -72 -66 -72 -164zM259 642c0 38 27 67 66 67c38 0 64 -27 64 -65s-26 -66 -66 -66c-37 0 -64 27 -64 64z" />
    <glyph glyph-name="divide" unicode="&#xf7;" horiz-adv-x="435" 
d="M58 262c-18 0 -29 14 -29 43c0 28 11 42 29 42h319c17 0 29 -13 29 -42s-12 -43 -29 -43h-319zM163 124c0 31 22 55 55 55c32 0 54 -24 54 -55s-22 -55 -54 -55c-33 0 -55 24 -55 55zM163 486c0 31 22 55 55 55c32 0 54 -24 54 -55s-22 -55 -54 -55c-33 0 -55 24 -55 55z
" />
    <glyph glyph-name="oslash" unicode="&#xf8;" horiz-adv-x="497" 
d="M62 -15c-11 0 -28 18 -28 32c0 7 4 16 13 26l27 32c-28 44 -43 101 -43 166c0 158 92 273 225 273c52 0 95 -18 129 -48l25 30c7 8 13 13 22 13c11 0 28 -16 28 -30c0 -8 -5 -16 -13 -25l-26 -31c27 -44 42 -101 42 -164c0 -161 -95 -274 -225 -274c-51 0 -94 17 -128 47
l-26 -32c-7 -9 -14 -15 -22 -15zM162 284c0 -36 3 -69 9 -99l137 187c-18 48 -44 76 -74 76c-46 0 -72 -66 -72 -164zM187 124c17 -45 42 -73 72 -73c47 0 72 68 72 165c0 35 -3 66 -7 94z" />
    <glyph glyph-name="ugrave" unicode="&#xf9;" horiz-adv-x="501" 
d="M188 -13c-72 0 -123 58 -123 163v200c0 63 -51 42 -51 80c0 20 18 30 78 54c48 19 59 23 70 23c20 0 25 -23 25 -43v-278c0 -69 15 -105 56 -105c33 0 69 34 69 125v144c0 63 -59 40 -59 80c0 20 20 29 87 55c43 16 59 22 69 22c24 0 24 -30 24 -43v-323
c0 -63 55 -51 55 -86c0 -23 -19 -32 -84 -49c-39 -10 -54 -14 -66 -14c-18 0 -26 18 -26 36v55c-24 -59 -65 -96 -124 -96zM122 732c0 16 9 22 51 22c34 0 45 -6 53 -24c19 -36 37 -77 55 -122c3 -9 7 -18 7 -25c0 -9 -10 -16 -24 -16c-13 0 -23 3 -38 20
c-25 27 -55 71 -74 94c-18 23 -30 36 -30 51z" />
    <glyph glyph-name="uacute" unicode="&#xfa;" horiz-adv-x="501" 
d="M188 -13c-72 0 -123 58 -123 163v200c0 63 -51 42 -51 80c0 20 18 30 78 54c48 19 59 23 70 23c20 0 25 -23 25 -43v-278c0 -69 15 -105 56 -105c33 0 69 34 69 125v144c0 63 -59 40 -59 80c0 20 20 29 87 55c43 16 59 22 69 22c24 0 24 -30 24 -43v-323
c0 -63 55 -51 55 -86c0 -23 -19 -32 -84 -49c-39 -10 -54 -14 -66 -14c-18 0 -26 18 -26 36v55c-24 -59 -65 -96 -124 -96zM201 583c0 7 4 17 7 25c15 39 37 86 54 121c10 19 22 24 54 24c42 0 50 -6 50 -23c0 -13 -9 -24 -30 -50c-20 -25 -47 -67 -74 -93
c-14 -16 -24 -20 -38 -20c-15 0 -23 7 -23 16z" />
    <glyph glyph-name="ucircumflex" unicode="&#xfb;" horiz-adv-x="501" 
d="M188 -13c-72 0 -123 58 -123 163v200c0 63 -51 42 -51 80c0 20 18 30 78 54c48 19 59 23 70 23c20 0 25 -23 25 -43v-278c0 -69 15 -105 56 -105c33 0 69 34 69 125v144c0 63 -59 40 -59 80c0 20 20 29 87 55c43 16 59 22 69 22c24 0 24 -30 24 -43v-323
c0 -63 55 -51 55 -86c0 -23 -19 -32 -84 -49c-39 -10 -54 -14 -66 -14c-18 0 -26 18 -26 36v55c-24 -59 -65 -96 -124 -96zM124 596c0 9 2 15 9 28c20 40 34 66 57 104c11 19 21 27 54 27c32 0 42 -7 54 -28c19 -32 42 -71 56 -102c7 -13 10 -19 10 -29
c0 -13 -10 -22 -26 -22c-11 0 -22 6 -34 22l-60 80l-61 -80c-14 -18 -25 -22 -34 -22c-16 0 -25 9 -25 22z" />
    <glyph glyph-name="udieresis" unicode="&#xfc;" horiz-adv-x="501" 
d="M188 -13c-72 0 -123 58 -123 163v200c0 63 -51 42 -51 80c0 20 18 30 78 54c48 19 59 23 70 23c20 0 25 -23 25 -43v-278c0 -69 15 -105 56 -105c33 0 69 34 69 125v144c0 63 -59 40 -59 80c0 20 20 29 87 55c43 16 59 22 69 22c24 0 24 -30 24 -43v-323
c0 -63 55 -51 55 -86c0 -23 -19 -32 -84 -49c-39 -10 -54 -14 -66 -14c-18 0 -26 18 -26 36v55c-24 -59 -65 -96 -124 -96zM95 653c0 38 28 67 67 67c37 0 63 -27 63 -65c0 -39 -26 -66 -65 -66c-37 0 -65 27 -65 64zM263 653c0 38 27 67 66 67c38 0 64 -27 64 -65
s-26 -66 -66 -66c-37 0 -64 27 -64 64z" />
    <glyph glyph-name="yacute" unicode="&#xfd;" horiz-adv-x="449" 
d="M122 -193c-27 0 -53 10 -61 23c-15 22 -31 92 -31 122c0 18 9 32 22 32c8 0 16 -7 21 -17c28 -48 45 -71 72 -71c21 0 37 32 49 84l-135 403c-25 74 -59 62 -59 96c0 14 11 23 24 23c19 0 44 -3 85 -3c39 0 61 3 81 3s30 -9 30 -24c0 -36 -33 -24 -33 -70
c0 -11 5 -31 13 -58l56 -192l53 191c7 28 12 45 12 62c0 41 -34 31 -34 67c0 15 9 24 29 24c15 0 32 -3 52 -3c18 0 37 3 51 3s24 -9 24 -23c0 -34 -36 -22 -57 -94l-120 -420c-30 -102 -81 -158 -144 -158zM198 583c0 7 4 17 7 25c15 39 37 86 54 121c10 19 22 24 54 24
c42 0 50 -6 50 -23c0 -13 -9 -24 -30 -50c-20 -25 -47 -67 -74 -93c-14 -16 -24 -20 -38 -20c-15 0 -23 7 -23 16z" />
    <glyph glyph-name="thorn" unicode="&#xfe;" horiz-adv-x="493" 
d="M41 -183c-20 0 -28 13 -28 25c0 39 40 13 40 91v667c0 63 -46 31 -46 72c0 20 19 30 75 59c55 28 58 29 67 29c21 0 25 -19 25 -42v-291c27 49 70 86 133 86c90 0 160 -103 160 -258c0 -164 -79 -268 -184 -268c-58 0 -87 21 -109 45v-99c0 -77 48 -50 48 -91
c0 -11 -8 -25 -26 -25c-19 0 -40 3 -83 3c-39 0 -56 -3 -72 -3zM174 218c0 -99 35 -167 90 -167c42 0 74 60 74 171c0 117 -40 203 -88 203c-43 0 -76 -59 -76 -154v-53z" />
    <glyph glyph-name="ydieresis" unicode="&#xff;" horiz-adv-x="449" 
d="M122 -193c-27 0 -53 10 -61 23c-15 22 -31 92 -31 122c0 18 9 32 22 32c8 0 16 -7 21 -17c28 -48 45 -71 72 -71c21 0 37 32 49 84l-135 403c-25 74 -59 62 -59 96c0 14 11 23 24 23c19 0 44 -3 85 -3c39 0 61 3 81 3s30 -9 30 -24c0 -36 -33 -24 -33 -70
c0 -11 5 -31 13 -58l56 -192l53 191c7 28 12 45 12 62c0 41 -34 31 -34 67c0 15 9 24 29 24c15 0 32 -3 52 -3c18 0 37 3 51 3s24 -9 24 -23c0 -34 -36 -22 -57 -94l-120 -420c-30 -102 -81 -158 -144 -158zM92 653c0 38 28 67 67 67c37 0 63 -27 63 -65
c0 -39 -26 -66 -65 -66c-37 0 -65 27 -65 64zM260 653c0 38 27 67 66 67c38 0 64 -27 64 -65s-26 -66 -66 -66c-37 0 -64 27 -64 64z" />
    <glyph glyph-name="Amacron" unicode="&#x100;" horiz-adv-x="555" 
d="M20 -2c-15 0 -23 10 -23 22c0 40 41 22 59 88l106 408c13 50 26 104 35 146c10 51 28 58 81 58s68 -7 79 -58c10 -45 22 -95 35 -146l107 -406c17 -67 56 -51 56 -91c0 -12 -10 -21 -23 -21c-21 0 -46 3 -89 3s-74 -3 -97 -3c-19 0 -33 9 -33 25c0 36 53 25 53 64
c0 11 -2 22 -5 33l-25 100c-3 11 -6 23 -28 23h-124c-12 0 -21 -2 -26 -23l-25 -97c-3 -13 -6 -26 -6 -34c0 -40 51 -30 51 -66c0 -16 -13 -25 -33 -25c-23 0 -46 3 -67 3s-37 -3 -58 -3zM158 843c0 27 7 39 24 39l93 -1c28 0 68 1 94 1c17 0 24 -15 24 -39
c0 -23 -7 -39 -24 -39c-27 0 -66 2 -93 2c-28 0 -68 -2 -94 -2c-17 0 -24 15 -24 39zM185 327c-2 -9 -3 -19 13 -19h99c15 0 14 9 12 19l-62 238z" />
    <glyph glyph-name="amacron" unicode="&#x101;" horiz-adv-x="447" 
d="M362 -8c-37 0 -71 21 -86 68c-28 -40 -72 -72 -125 -72c-79 0 -129 63 -129 152s56 161 149 161c33 0 58 -8 77 -18l-1 13c-9 90 -32 130 -72 130c-30 0 -53 -21 -78 -47c-8 -8 -18 -14 -26 -14c-9 0 -23 8 -23 24c0 14 11 30 24 45c33 40 81 74 142 74
c88 0 140 -69 151 -179l17 -167c8 -70 22 -77 62 -88c8 -2 14 -9 14 -19c0 -24 -35 -63 -96 -63zM100 657c0 27 7 39 24 39l93 -1c28 0 68 1 94 1c17 0 24 -15 24 -39c0 -23 -7 -39 -24 -39c-27 0 -66 2 -93 2c-28 0 -68 -2 -94 -2c-17 0 -24 15 -24 39zM144 152
c0 -52 22 -89 54 -89c28 0 54 28 67 58l-11 107c-12 9 -27 14 -43 14c-39 0 -67 -33 -67 -90z" />
    <glyph glyph-name="Abreve" unicode="&#x102;" horiz-adv-x="555" 
d="M20 -2c-15 0 -23 10 -23 22c0 40 41 22 59 88l106 408c13 50 26 104 35 146c10 51 28 58 81 58s68 -7 79 -58c10 -45 22 -95 35 -146l107 -406c17 -67 56 -51 56 -91c0 -12 -10 -21 -23 -21c-21 0 -46 3 -89 3s-74 -3 -97 -3c-19 0 -33 9 -33 25c0 36 53 25 53 64
c0 11 -2 22 -5 33l-25 100c-3 11 -6 23 -28 23h-124c-12 0 -21 -2 -26 -23l-25 -97c-3 -13 -6 -26 -6 -34c0 -40 51 -30 51 -66c0 -16 -13 -25 -33 -25c-23 0 -46 3 -67 3s-37 -3 -58 -3zM155 909c0 16 10 29 27 29c16 0 24 -16 34 -40c16 -39 31 -57 60 -57s42 20 57 57
c9 21 20 40 38 40c17 0 25 -13 25 -29c0 -13 -2 -27 -8 -44c-22 -67 -58 -103 -112 -103c-55 0 -97 36 -116 107c-3 14 -5 27 -5 40zM185 327c-2 -9 -3 -19 13 -19h99c15 0 14 9 12 19l-62 238z" />
    <glyph glyph-name="abreve" unicode="&#x103;" horiz-adv-x="447" 
d="M362 -8c-37 0 -71 21 -86 68c-28 -40 -72 -72 -125 -72c-79 0 -129 63 -129 152s56 161 149 161c33 0 58 -8 77 -18l-1 13c-9 90 -32 130 -72 130c-30 0 -53 -21 -78 -47c-8 -8 -18 -14 -26 -14c-9 0 -23 8 -23 24c0 14 11 30 24 45c33 40 81 74 142 74
c88 0 140 -69 151 -179l17 -167c8 -70 22 -77 62 -88c8 -2 14 -9 14 -19c0 -24 -35 -63 -96 -63zM97 723c0 16 10 29 27 29c16 0 24 -16 34 -40c16 -39 31 -57 60 -57s42 20 57 57c9 21 20 40 38 40c17 0 25 -13 25 -29c0 -13 -2 -27 -8 -44c-22 -67 -58 -103 -112 -103
c-55 0 -97 36 -116 107c-3 14 -5 27 -5 40zM144 152c0 -52 22 -89 54 -89c28 0 54 28 67 58l-11 107c-12 9 -27 14 -43 14c-39 0 -67 -33 -67 -90z" />
    <glyph glyph-name="Aogonek" unicode="&#x104;" horiz-adv-x="555" 
d="M20 -2c-15 0 -23 10 -23 22c0 40 41 22 59 88l106 408c13 50 26 104 35 146c10 51 28 58 81 58s68 -7 79 -58c10 -45 22 -95 35 -146l107 -406c17 -67 56 -51 56 -91c0 -12 -10 -21 -23 -21c-20 0 -43 3 -81 3c-23 -34 -42 -69 -42 -108c0 -25 9 -38 24 -38
c6 0 11 1 18 6c4 4 8 6 14 6c8 0 16 -7 16 -17s-5 -19 -13 -27c-16 -16 -36 -23 -56 -23c-38 0 -72 28 -72 78c0 42 24 83 60 122c-22 -1 -40 -2 -54 -2c-19 0 -33 9 -33 25c0 36 53 25 53 64c0 11 -2 22 -5 33l-25 100c-3 11 -6 23 -28 23h-124c-12 0 -21 -2 -26 -23
l-25 -97c-3 -13 -6 -26 -6 -34c0 -40 51 -30 51 -66c0 -16 -13 -25 -33 -25c-23 0 -46 3 -67 3s-37 -3 -58 -3zM185 327c-2 -9 -3 -19 13 -19h99c15 0 14 9 12 19l-62 238z" />
    <glyph glyph-name="aogonek" unicode="&#x105;" horiz-adv-x="447" 
d="M151 -12c-79 0 -129 63 -129 152s56 161 149 161c33 0 58 -8 77 -18l-1 13c-9 90 -32 130 -72 130c-30 0 -53 -21 -78 -47c-8 -8 -18 -14 -26 -14c-9 0 -23 8 -23 24c0 14 11 30 24 45c33 40 81 74 142 74c88 0 140 -69 151 -179l17 -167c8 -70 22 -77 62 -88
c8 -2 14 -9 14 -19c0 -19 -23 -49 -64 -59c-21 -32 -39 -66 -39 -103c0 -25 9 -38 24 -38c6 0 11 1 18 6c4 4 8 6 14 6c8 0 16 -7 16 -17s-5 -19 -13 -27c-16 -16 -36 -23 -56 -23c-38 0 -72 28 -72 78c0 40 22 79 55 116c-29 7 -53 28 -65 66c-28 -40 -72 -72 -125 -72z
M144 152c0 -52 22 -89 54 -89c28 0 54 28 67 58l-11 107c-12 9 -27 14 -43 14c-39 0 -67 -33 -67 -90z" />
    <glyph glyph-name="Cacute" unicode="&#x106;" horiz-adv-x="510" 
d="M276 -15c-139 0 -247 128 -247 358c0 222 116 384 252 384c49 0 76 -22 89 -22c18 0 26 27 48 27c19 0 29 -18 36 -50l21 -90c9 -41 15 -65 15 -80c0 -18 -12 -30 -25 -30c-14 0 -24 10 -34 31c-45 92 -75 144 -130 144c-74 0 -130 -121 -130 -289
c0 -170 60 -288 147 -288c56 0 96 39 122 104c6 14 14 25 31 25c14 0 25 -14 25 -31c0 -12 -5 -28 -11 -44c-31 -79 -106 -149 -209 -149zM229 769c0 7 4 17 7 25c15 39 37 86 54 121c10 19 22 24 54 24c42 0 50 -6 50 -23c0 -13 -9 -24 -30 -50c-20 -25 -47 -67 -74 -93
c-14 -16 -24 -20 -38 -20c-15 0 -23 7 -23 16z" />
    <glyph glyph-name="cacute" unicode="&#x107;" horiz-adv-x="407" 
d="M222 -13c-112 0 -196 93 -196 254c0 164 98 272 201 272c90 0 155 -68 155 -112c0 -23 -15 -57 -51 -92c-11 -11 -18 -14 -27 -14c-13 0 -22 9 -24 28c-8 59 -15 131 -62 131c-42 0 -67 -66 -67 -166c0 -130 56 -214 123 -214c35 0 60 26 82 60c6 10 12 13 20 13
c10 0 18 -10 18 -22c0 -9 -2 -20 -6 -30c-19 -49 -71 -108 -166 -108zM182 580c0 7 4 17 7 25c15 39 37 86 54 121c10 19 22 24 54 24c42 0 50 -6 50 -23c0 -13 -9 -24 -30 -50c-20 -25 -47 -67 -74 -93c-14 -16 -24 -20 -38 -20c-15 0 -23 7 -23 16z" />
    <glyph glyph-name="Ccircumflex" unicode="&#x108;" horiz-adv-x="510" 
d="M276 -15c-139 0 -247 128 -247 358c0 222 116 384 252 384c49 0 76 -22 89 -22c18 0 26 27 48 27c19 0 29 -18 36 -50l21 -90c9 -41 15 -65 15 -80c0 -18 -12 -30 -25 -30c-14 0 -24 10 -34 31c-45 92 -75 144 -130 144c-74 0 -130 -121 -130 -289
c0 -170 60 -288 147 -288c56 0 96 39 122 104c6 14 14 25 31 25c14 0 25 -14 25 -31c0 -12 -5 -28 -11 -44c-31 -79 -106 -149 -209 -149zM153 782c0 9 2 15 9 28c20 40 34 66 57 104c11 19 21 27 54 27c32 0 42 -7 54 -28c19 -32 42 -71 56 -102c7 -13 10 -19 10 -29
c0 -13 -10 -22 -26 -22c-11 0 -22 6 -34 22l-60 80l-61 -80c-14 -18 -25 -22 -34 -22c-16 0 -25 9 -25 22z" />
    <glyph glyph-name="ccircumflex" unicode="&#x109;" horiz-adv-x="407" 
d="M222 -13c-112 0 -196 93 -196 254c0 164 98 272 201 272c90 0 155 -68 155 -112c0 -23 -15 -57 -51 -92c-11 -11 -18 -14 -27 -14c-13 0 -22 9 -24 28c-8 59 -15 131 -62 131c-42 0 -67 -66 -67 -166c0 -130 56 -214 123 -214c35 0 60 26 82 60c6 10 12 13 20 13
c10 0 18 -10 18 -22c0 -9 -2 -20 -6 -30c-19 -49 -71 -108 -166 -108zM106 593c0 9 2 15 9 28c20 40 34 66 57 104c11 19 21 27 54 27c32 0 42 -7 54 -28c19 -32 42 -71 56 -102c7 -13 10 -19 10 -29c0 -13 -10 -22 -26 -22c-11 0 -22 6 -34 22l-60 80l-61 -80
c-14 -18 -25 -22 -34 -22c-16 0 -25 9 -25 22z" />
    <glyph glyph-name="Cdotaccent" unicode="&#x10a;" horiz-adv-x="510" 
d="M276 -15c-139 0 -247 128 -247 358c0 222 116 384 252 384c49 0 76 -22 89 -22c18 0 26 27 48 27c19 0 29 -18 36 -50l21 -90c9 -41 15 -65 15 -80c0 -18 -12 -30 -25 -30c-14 0 -24 10 -34 31c-45 92 -75 144 -130 144c-74 0 -130 -121 -130 -289
c0 -170 60 -288 147 -288c56 0 96 39 122 104c6 14 14 25 31 25c14 0 25 -14 25 -31c0 -12 -5 -28 -11 -44c-31 -79 -106 -149 -209 -149zM209 839c0 38 27 67 66 67c38 0 64 -27 64 -65c0 -39 -26 -66 -65 -66c-38 0 -65 27 -65 64z" />
    <glyph glyph-name="cdotaccent" unicode="&#x10b;" horiz-adv-x="407" 
d="M222 -13c-112 0 -196 93 -196 254c0 164 98 272 201 272c90 0 155 -68 155 -112c0 -23 -15 -57 -51 -92c-11 -11 -18 -14 -27 -14c-13 0 -22 9 -24 28c-8 59 -15 131 -62 131c-42 0 -67 -66 -67 -166c0 -130 56 -214 123 -214c35 0 60 26 82 60c6 10 12 13 20 13
c10 0 18 -10 18 -22c0 -9 -2 -20 -6 -30c-19 -49 -71 -108 -166 -108zM161 650c0 38 27 67 66 67c38 0 64 -27 64 -65c0 -39 -26 -66 -65 -66c-38 0 -65 27 -65 64z" />
    <glyph glyph-name="Ccaron" unicode="&#x10c;" horiz-adv-x="510" 
d="M276 -15c-139 0 -247 128 -247 358c0 222 116 384 252 384c49 0 76 -22 89 -22c18 0 26 27 48 27c19 0 29 -18 36 -50l21 -90c9 -41 15 -65 15 -80c0 -18 -12 -30 -25 -30c-14 0 -24 10 -34 31c-45 92 -75 144 -130 144c-74 0 -130 -121 -130 -289
c0 -170 60 -288 147 -288c56 0 96 39 122 104c6 14 14 25 31 25c14 0 25 -14 25 -31c0 -12 -5 -28 -11 -44c-31 -79 -106 -149 -209 -149zM152 925c0 13 10 22 26 22c11 0 22 -6 34 -22l61 -80l60 80c14 18 25 22 34 22c16 0 25 -9 25 -22c0 -9 -2 -15 -9 -28
c-20 -40 -34 -66 -57 -104c-11 -19 -21 -27 -54 -27c-32 0 -42 7 -54 28c-19 32 -42 71 -56 102c-7 13 -10 19 -10 29z" />
    <glyph glyph-name="ccaron" unicode="&#x10d;" horiz-adv-x="407" 
d="M222 -13c-112 0 -196 93 -196 254c0 164 98 272 201 272c90 0 155 -68 155 -112c0 -23 -15 -57 -51 -92c-11 -11 -18 -14 -27 -14c-13 0 -22 9 -24 28c-8 59 -15 131 -62 131c-42 0 -67 -66 -67 -166c0 -130 56 -214 123 -214c35 0 60 26 82 60c6 10 12 13 20 13
c10 0 18 -10 18 -22c0 -9 -2 -20 -6 -30c-19 -49 -71 -108 -166 -108zM105 736c0 13 10 22 26 22c11 0 22 -6 34 -22l61 -80l60 80c14 18 25 22 34 22c16 0 25 -9 25 -22c0 -9 -2 -15 -9 -28c-20 -40 -34 -66 -57 -104c-11 -19 -21 -27 -54 -27c-32 0 -42 7 -54 28
c-19 32 -42 71 -56 102c-7 13 -10 19 -10 29z" />
    <glyph glyph-name="Dcaron" unicode="&#x10e;" horiz-adv-x="592" 
d="M277 -3c-43 0 -86 4 -136 4c-44 0 -62 -3 -80 -3c-20 0 -30 11 -30 25c0 40 43 17 43 86v494c0 68 -43 46 -43 86c0 14 11 25 30 25c18 0 36 -3 80 -3c41 0 84 5 126 5c161 0 297 -153 297 -372c0 -206 -102 -347 -287 -347zM143 925c0 13 10 22 26 22c11 0 22 -6 34 -22
l61 -80l60 80c14 18 25 22 34 22c16 0 25 -9 25 -22c0 -9 -2 -15 -9 -28c-20 -40 -34 -66 -57 -104c-11 -19 -21 -27 -54 -27c-32 0 -42 7 -54 28c-19 32 -42 71 -56 102c-7 13 -10 19 -10 29zM206 113c0 -32 8 -48 44 -48h12c103 0 155 108 155 287c0 176 -64 298 -160 298
h-7c-30 0 -44 -11 -44 -49v-488z" />
    <glyph glyph-name="dcaron" unicode="&#x10f;" horiz-adv-x="504" 
d="M186 -14c-89 0 -160 95 -160 254c0 158 83 270 192 270c42 0 75 -17 100 -44v135c0 63 -54 31 -54 74c0 19 20 30 79 57c53 25 62 28 71 28c21 0 25 -21 25 -42v-572c0 -62 48 -42 48 -81c0 -21 -18 -29 -79 -53c-43 -18 -56 -22 -65 -22c-23 0 -25 27 -25 42v40
c-26 -49 -69 -86 -132 -86zM155 276c0 -127 43 -202 88 -202c43 0 75 53 75 146v47c0 106 -39 178 -90 178c-43 0 -73 -68 -73 -169zM490 535v210c0 20 7 33 34 33c35 0 52 -11 52 -33c0 -52 -16 -154 -30 -208c-4 -16 -17 -27 -31 -27c-15 0 -25 8 -25 25z" />
    <glyph glyph-name="Dcroat" unicode="&#x110;" horiz-adv-x="594" 
d="M50 330c-21 0 -30 10 -30 34s9 33 30 33h26v206c0 68 -43 46 -43 86c0 14 11 25 30 25c18 0 36 -3 80 -3c41 0 84 5 126 5c161 0 297 -153 297 -372c0 -206 -102 -347 -287 -347c-43 0 -86 4 -136 4c-44 0 -62 -3 -80 -3c-20 0 -30 11 -30 25c0 40 43 17 43 86v221h-26z
M208 113c0 -32 8 -48 44 -48h12c103 0 155 108 155 287c0 176 -64 298 -160 298h-7c-30 0 -44 -11 -44 -49v-204h84c20 0 29 -9 29 -33s-9 -34 -29 -34h-84v-217z" />
    <glyph glyph-name="dcroat" unicode="&#x111;" horiz-adv-x="504" 
d="M231 539c-20 0 -30 8 -30 31s8 31 29 31h88c-1 60 -54 27 -54 72c0 18 20 30 79 59c53 25 62 28 71 28c21 0 25 -21 25 -42v-117h40c20 0 30 -8 30 -31s-10 -31 -30 -31h-40v-390c0 -62 48 -42 48 -81c0 -21 -18 -31 -79 -55c-44 -18 -58 -23 -65 -23
c-23 0 -25 27 -25 42v37c-26 -47 -69 -83 -132 -83c-89 0 -160 92 -160 248c0 154 83 263 192 263c42 0 75 -16 100 -42v84h-87zM155 269c0 -124 43 -198 88 -198c43 0 75 52 75 143v45c0 105 -39 175 -90 175c-43 0 -73 -67 -73 -165z" />
    <glyph glyph-name="Emacron" unicode="&#x112;" horiz-adv-x="514" 
d="M417 -23c-28 0 -29 23 -60 23h-217c-43 0 -61 -3 -79 -3c-20 0 -30 12 -30 26c0 39 43 16 43 85v496c0 68 -43 46 -43 86c0 14 11 25 30 25c17 0 35 -3 79 -3h189c32 0 35 23 60 23c22 0 30 -24 39 -50l30 -83c13 -36 19 -54 19 -71c0 -16 -11 -26 -24 -26
c-14 0 -22 9 -33 25c-49 72 -78 116 -139 116h-32c-30 0 -43 -7 -43 -46v-181c0 -21 10 -24 22 -24h39c41 0 42 74 74 74c15 0 25 -10 25 -34c0 -23 -3 -48 -3 -73s3 -51 3 -73c0 -25 -10 -34 -25 -34c-32 0 -33 74 -74 74h-39c-14 0 -22 -4 -22 -24v-190
c0 -28 4 -48 41 -48h61c52 0 86 34 144 123c12 17 21 26 34 26c12 0 23 -11 23 -27c0 -19 -6 -36 -20 -75l-33 -93c-10 -28 -21 -44 -39 -44zM139 843c0 27 7 39 24 39l93 -1c28 0 68 1 94 1c17 0 24 -15 24 -39c0 -23 -7 -39 -24 -39c-27 0 -66 2 -93 2
c-28 0 -68 -2 -94 -2c-17 0 -24 15 -24 39z" />
    <glyph glyph-name="emacron" unicode="&#x113;" horiz-adv-x="426" 
d="M222 -13c-119 0 -197 103 -197 258c0 160 94 268 202 268c106 0 170 -99 170 -203c0 -33 -11 -41 -36 -47l-205 -57c19 -77 62 -134 118 -134c34 0 63 22 86 53c12 13 18 18 27 18c11 0 19 -10 19 -22c0 -7 -3 -18 -8 -28c-27 -60 -95 -106 -176 -106zM104 645
c0 27 7 39 24 39l93 -1c28 0 68 1 94 1c17 0 24 -15 24 -39c0 -23 -7 -39 -24 -39c-27 0 -66 2 -93 2c-28 0 -68 -2 -94 -2c-17 0 -24 15 -24 39zM146 292l1 -24l93 27c16 5 34 15 34 38c0 62 -29 111 -63 111c-38 1 -65 -53 -65 -152z" />
    <glyph glyph-name="Ebreve" unicode="&#x114;" horiz-adv-x="514" 
d="M417 -23c-28 0 -29 23 -60 23h-217c-43 0 -61 -3 -79 -3c-20 0 -30 12 -30 26c0 39 43 16 43 85v496c0 68 -43 46 -43 86c0 14 11 25 30 25c17 0 35 -3 79 -3h189c32 0 35 23 60 23c22 0 30 -24 39 -50l30 -83c13 -36 19 -54 19 -71c0 -16 -11 -26 -24 -26
c-14 0 -22 9 -33 25c-49 72 -78 116 -139 116h-32c-30 0 -43 -7 -43 -46v-181c0 -21 10 -24 22 -24h39c41 0 42 74 74 74c15 0 25 -10 25 -34c0 -23 -3 -48 -3 -73s3 -51 3 -73c0 -25 -10 -34 -25 -34c-32 0 -33 74 -74 74h-39c-14 0 -22 -4 -22 -24v-190
c0 -28 4 -48 41 -48h61c52 0 86 34 144 123c12 17 21 26 34 26c12 0 23 -11 23 -27c0 -19 -6 -36 -20 -75l-33 -93c-10 -28 -21 -44 -39 -44zM136 909c0 16 10 29 27 29c16 0 24 -16 34 -40c16 -39 31 -57 60 -57s42 20 57 57c9 21 20 40 38 40c17 0 25 -13 25 -29
c0 -13 -2 -27 -8 -44c-22 -67 -58 -103 -112 -103c-55 0 -97 36 -116 107c-3 14 -5 27 -5 40z" />
    <glyph glyph-name="ebreve" unicode="&#x115;" horiz-adv-x="426" 
d="M222 -13c-119 0 -197 103 -197 258c0 160 94 268 202 268c106 0 170 -99 170 -203c0 -33 -11 -41 -36 -47l-205 -57c19 -77 62 -134 118 -134c34 0 63 22 86 53c12 13 18 18 27 18c11 0 19 -10 19 -22c0 -7 -3 -18 -8 -28c-27 -60 -95 -106 -176 -106zM101 711
c0 16 10 29 27 29c16 0 24 -16 34 -40c16 -39 31 -57 60 -57s42 20 57 57c9 21 20 40 38 40c17 0 25 -13 25 -29c0 -13 -2 -27 -8 -44c-22 -67 -58 -103 -112 -103c-55 0 -97 36 -116 107c-3 14 -5 27 -5 40zM146 292l1 -24l93 27c16 5 34 15 34 38c0 62 -29 111 -63 111
c-38 1 -65 -53 -65 -152z" />
    <glyph glyph-name="Edotaccent" unicode="&#x116;" horiz-adv-x="514" 
d="M417 -23c-28 0 -29 23 -60 23h-217c-43 0 -61 -3 -79 -3c-20 0 -30 12 -30 26c0 39 43 16 43 85v496c0 68 -43 46 -43 86c0 14 11 25 30 25c17 0 35 -3 79 -3h189c32 0 35 23 60 23c22 0 30 -24 39 -50l30 -83c13 -36 19 -54 19 -71c0 -16 -11 -26 -24 -26
c-14 0 -22 9 -33 25c-49 72 -78 116 -139 116h-32c-30 0 -43 -7 -43 -46v-181c0 -21 10 -24 22 -24h39c41 0 42 74 74 74c15 0 25 -10 25 -34c0 -23 -3 -48 -3 -73s3 -51 3 -73c0 -25 -10 -34 -25 -34c-32 0 -33 74 -74 74h-39c-14 0 -22 -4 -22 -24v-190
c0 -28 4 -48 41 -48h61c52 0 86 34 144 123c12 17 21 26 34 26c12 0 23 -11 23 -27c0 -19 -6 -36 -20 -75l-33 -93c-10 -28 -21 -44 -39 -44zM193 839c0 38 27 67 66 67c38 0 64 -27 64 -65c0 -39 -26 -66 -65 -66c-38 0 -65 27 -65 64z" />
    <glyph glyph-name="edotaccent" unicode="&#x117;" horiz-adv-x="426" 
d="M222 -13c-119 0 -197 103 -197 258c0 160 94 268 202 268c106 0 170 -99 170 -203c0 -33 -11 -41 -36 -47l-205 -57c19 -77 62 -134 118 -134c34 0 63 22 86 53c12 13 18 18 27 18c11 0 19 -10 19 -22c0 -7 -3 -18 -8 -28c-27 -60 -95 -106 -176 -106zM146 292l1 -24
l93 27c16 5 34 15 34 38c0 62 -29 111 -63 111c-38 1 -65 -53 -65 -152zM158 641c0 38 27 67 66 67c38 0 64 -27 64 -65c0 -39 -26 -66 -65 -66c-38 0 -65 27 -65 64z" />
    <glyph glyph-name="Eogonek" unicode="&#x118;" horiz-adv-x="514" 
d="M417 -23c-20 0 -26 12 -39 18c-22 -32 -39 -65 -39 -102c0 -25 9 -38 24 -38c6 0 11 1 18 6c4 4 8 6 14 6c8 0 16 -7 16 -17s-5 -19 -13 -27c-16 -16 -36 -23 -56 -23c-38 0 -72 28 -72 78c0 42 24 83 60 122h-190c-43 0 -61 -3 -79 -3c-20 0 -30 12 -30 26
c0 39 43 16 43 85v496c0 68 -43 46 -43 86c0 14 11 25 30 25c17 0 35 -3 79 -3h189c32 0 35 23 60 23c22 0 30 -24 39 -50l30 -83c13 -36 19 -54 19 -71c0 -16 -11 -26 -24 -26c-14 0 -22 9 -33 25c-49 72 -78 116 -139 116h-32c-30 0 -43 -7 -43 -46v-181
c0 -21 10 -24 22 -24h39c41 0 42 74 74 74c15 0 25 -10 25 -34c0 -23 -3 -48 -3 -73s3 -51 3 -73c0 -25 -10 -34 -25 -34c-32 0 -33 74 -74 74h-39c-14 0 -22 -4 -22 -24v-190c0 -28 4 -48 41 -48h61c52 0 86 34 144 123c12 17 21 26 34 26c12 0 23 -11 23 -27
c0 -19 -6 -36 -20 -75l-33 -93c-10 -28 -21 -44 -39 -44z" />
    <glyph glyph-name="eogonek" unicode="&#x119;" horiz-adv-x="426" 
d="M222 -13c-119 0 -197 103 -197 258c0 160 94 268 202 268c106 0 170 -99 170 -203c0 -33 -11 -41 -36 -47l-205 -57c19 -77 62 -134 118 -134c34 0 63 22 86 53c12 13 18 18 27 18c11 0 19 -10 19 -22c0 -7 -3 -18 -8 -28c-17 -38 -52 -71 -95 -90
c-24 -34 -44 -70 -44 -110c0 -25 9 -38 24 -38c6 0 11 1 18 6c4 4 8 6 14 6c8 0 16 -7 16 -17s-5 -19 -13 -27c-16 -16 -36 -23 -56 -23c-38 0 -72 28 -72 78c0 37 19 74 49 110c-6 -1 -11 -1 -17 -1zM146 292l1 -24l93 27c16 5 34 15 34 38c0 62 -29 111 -63 111
c-38 1 -65 -53 -65 -152z" />
    <glyph glyph-name="Ecaron" unicode="&#x11a;" horiz-adv-x="514" 
d="M417 -23c-28 0 -29 23 -60 23h-217c-43 0 -61 -3 -79 -3c-20 0 -30 12 -30 26c0 39 43 16 43 85v496c0 68 -43 46 -43 86c0 14 11 25 30 25c17 0 35 -3 79 -3h189c32 0 35 23 60 23c22 0 30 -24 39 -50l30 -83c13 -36 19 -54 19 -71c0 -16 -11 -26 -24 -26
c-14 0 -22 9 -33 25c-49 72 -78 116 -139 116h-32c-30 0 -43 -7 -43 -46v-181c0 -21 10 -24 22 -24h39c41 0 42 74 74 74c15 0 25 -10 25 -34c0 -23 -3 -48 -3 -73s3 -51 3 -73c0 -25 -10 -34 -25 -34c-32 0 -33 74 -74 74h-39c-14 0 -22 -4 -22 -24v-190
c0 -28 4 -48 41 -48h61c52 0 86 34 144 123c12 17 21 26 34 26c12 0 23 -11 23 -27c0 -19 -6 -36 -20 -75l-33 -93c-10 -28 -21 -44 -39 -44zM137 925c0 13 10 22 26 22c11 0 22 -6 34 -22l61 -80l60 80c14 18 25 22 34 22c16 0 25 -9 25 -22c0 -9 -2 -15 -9 -28
c-20 -40 -34 -66 -57 -104c-11 -19 -21 -27 -54 -27c-32 0 -42 7 -54 28c-19 32 -42 71 -56 102c-7 13 -10 19 -10 29z" />
    <glyph glyph-name="ecaron" unicode="&#x11b;" horiz-adv-x="426" 
d="M222 -13c-119 0 -197 103 -197 258c0 160 94 268 202 268c106 0 170 -99 170 -203c0 -33 -11 -41 -36 -47l-205 -57c19 -77 62 -134 118 -134c34 0 63 22 86 53c12 13 18 18 27 18c11 0 19 -10 19 -22c0 -7 -3 -18 -8 -28c-27 -60 -95 -106 -176 -106zM101 727
c0 13 10 22 26 22c11 0 22 -6 34 -22l61 -80l60 80c14 18 25 22 34 22c16 0 25 -9 25 -22c0 -9 -2 -15 -9 -28c-20 -40 -34 -66 -57 -104c-11 -19 -21 -27 -54 -27c-32 0 -42 7 -54 28c-19 32 -42 71 -56 102c-7 13 -10 19 -10 29zM146 292l1 -24l93 27c16 5 34 15 34 38
c0 62 -29 111 -63 111c-38 1 -65 -53 -65 -152z" />
    <glyph glyph-name="Gcircumflex" unicode="&#x11c;" horiz-adv-x="565" 
d="M309 -14c-162 0 -280 118 -280 355c0 230 119 386 257 386c58 0 82 -20 99 -20c16 0 22 24 43 24c20 0 28 -18 38 -52l24 -87c13 -46 17 -66 17 -81c0 -18 -10 -29 -23 -29c-14 0 -24 10 -33 25c-47 77 -85 149 -146 149c-89 0 -132 -139 -132 -301
c0 -158 46 -293 153 -293c34 0 49 18 49 40v141c0 69 -44 45 -44 86c0 13 11 25 30 25h157c19 0 29 -12 29 -25c0 -40 -42 -17 -42 -86v-120c0 -46 19 -41 19 -67c0 -13 -5 -21 -26 -30c-29 -14 -103 -40 -189 -40zM161 782c0 9 2 15 9 28c20 40 34 66 57 104
c11 19 21 27 54 27c32 0 42 -7 54 -28c19 -32 42 -71 56 -102c7 -13 10 -19 10 -29c0 -13 -10 -22 -26 -22c-11 0 -22 6 -34 22l-60 80l-61 -80c-14 -18 -25 -22 -34 -22c-16 0 -25 9 -25 22z" />
    <glyph glyph-name="gcircumflex" unicode="&#x11d;" horiz-adv-x="472" 
d="M224 -194c-126 0 -205 52 -205 124c0 39 24 76 71 97c-31 15 -56 43 -56 83c0 36 23 73 58 99c-40 26 -62 69 -62 125c0 95 70 178 202 178c23 0 43 -2 62 -7c34 86 82 123 113 123c20 0 35 -16 55 -41c7 -10 16 -21 16 -35c-1 -13 -12 -23 -33 -21c-33 2 -73 4 -104 -44
c47 -27 72 -73 72 -133c0 -93 -66 -175 -202 -175c-26 0 -49 3 -70 9c-11 -10 -18 -20 -18 -32c0 -17 15 -23 50 -29c53 -9 106 -14 144 -21c82 -15 139 -52 139 -132c0 -98 -83 -168 -232 -168zM93 597c0 9 2 15 9 28c20 40 34 66 57 104c11 19 21 27 54 27
c32 0 42 -7 54 -28c19 -32 42 -71 56 -102c7 -13 10 -19 10 -29c0 -13 -10 -22 -26 -22c-11 0 -22 6 -34 22l-60 80l-61 -80c-14 -18 -25 -22 -34 -22c-16 0 -25 9 -25 22zM111 -56c0 -58 55 -81 118 -81c80 0 114 38 114 77c0 33 -25 44 -57 50c-35 6 -83 13 -139 22
c-26 -15 -36 -44 -36 -68zM148 352c0 -75 37 -117 76 -117c45 0 70 43 70 103c0 75 -37 117 -75 117c-45 0 -71 -42 -71 -103z" />
    <glyph glyph-name="Gbreve" unicode="&#x11e;" horiz-adv-x="565" 
d="M309 -14c-162 0 -280 118 -280 355c0 230 119 386 257 386c58 0 82 -20 99 -20c16 0 22 24 43 24c20 0 28 -18 38 -52l24 -87c13 -46 17 -66 17 -81c0 -18 -10 -29 -23 -29c-14 0 -24 10 -33 25c-47 77 -85 149 -146 149c-89 0 -132 -139 -132 -301
c0 -158 46 -293 153 -293c34 0 49 18 49 40v141c0 69 -44 45 -44 86c0 13 11 25 30 25h157c19 0 29 -12 29 -25c0 -40 -42 -17 -42 -86v-120c0 -46 19 -41 19 -67c0 -13 -5 -21 -26 -30c-29 -14 -103 -40 -189 -40zM160 909c0 16 10 29 27 29c16 0 24 -16 34 -40
c16 -39 31 -57 60 -57s42 20 57 57c9 21 20 40 38 40c17 0 25 -13 25 -29c0 -13 -2 -27 -8 -44c-22 -67 -58 -103 -112 -103c-55 0 -97 36 -116 107c-3 14 -5 27 -5 40z" />
    <glyph glyph-name="gbreve" unicode="&#x11f;" horiz-adv-x="472" 
d="M224 -194c-126 0 -205 52 -205 124c0 39 24 76 71 97c-31 15 -56 43 -56 83c0 36 23 73 58 99c-40 26 -62 69 -62 125c0 95 70 178 202 178c23 0 43 -2 62 -7c34 86 82 123 113 123c20 0 35 -16 55 -41c7 -10 16 -21 16 -35c-1 -13 -12 -23 -33 -21c-33 2 -73 4 -104 -44
c47 -27 72 -73 72 -133c0 -93 -66 -175 -202 -175c-26 0 -49 3 -70 9c-11 -10 -18 -20 -18 -32c0 -17 15 -23 50 -29c53 -9 106 -14 144 -21c82 -15 139 -52 139 -132c0 -98 -83 -168 -232 -168zM92 724c0 16 10 29 27 29c16 0 24 -16 34 -40c16 -39 31 -57 60 -57
s42 20 57 57c9 21 20 40 38 40c17 0 25 -13 25 -29c0 -13 -2 -27 -8 -44c-22 -67 -58 -103 -112 -103c-55 0 -97 36 -116 107c-3 14 -5 27 -5 40zM111 -56c0 -58 55 -81 118 -81c80 0 114 38 114 77c0 33 -25 44 -57 50c-35 6 -83 13 -139 22c-26 -15 -36 -44 -36 -68z
M148 352c0 -75 37 -117 76 -117c45 0 70 43 70 103c0 75 -37 117 -75 117c-45 0 -71 -42 -71 -103z" />
    <glyph glyph-name="Gdotaccent" unicode="&#x120;" horiz-adv-x="565" 
d="M309 -14c-162 0 -280 118 -280 355c0 230 119 386 257 386c58 0 82 -20 99 -20c16 0 22 24 43 24c20 0 28 -18 38 -52l24 -87c13 -46 17 -66 17 -81c0 -18 -10 -29 -23 -29c-14 0 -24 10 -33 25c-47 77 -85 149 -146 149c-89 0 -132 -139 -132 -301
c0 -158 46 -293 153 -293c34 0 49 18 49 40v141c0 69 -44 45 -44 86c0 13 11 25 30 25h157c19 0 29 -12 29 -25c0 -40 -42 -17 -42 -86v-120c0 -46 19 -41 19 -67c0 -13 -5 -21 -26 -30c-29 -14 -103 -40 -189 -40zM217 839c0 38 27 67 66 67c38 0 64 -27 64 -65
c0 -39 -26 -66 -65 -66c-38 0 -65 27 -65 64z" />
    <glyph glyph-name="gdotaccent" unicode="&#x121;" horiz-adv-x="472" 
d="M224 -194c-126 0 -205 52 -205 124c0 39 24 76 71 97c-31 15 -56 43 -56 83c0 36 23 73 58 99c-40 26 -62 69 -62 125c0 95 70 178 202 178c23 0 43 -2 62 -7c34 86 82 123 113 123c20 0 35 -16 55 -41c7 -10 16 -21 16 -35c-1 -13 -12 -23 -33 -21c-33 2 -73 4 -104 -44
c47 -27 72 -73 72 -133c0 -93 -66 -175 -202 -175c-26 0 -49 3 -70 9c-11 -10 -18 -20 -18 -32c0 -17 15 -23 50 -29c53 -9 106 -14 144 -21c82 -15 139 -52 139 -132c0 -98 -83 -168 -232 -168zM111 -56c0 -58 55 -81 118 -81c80 0 114 38 114 77c0 33 -25 44 -57 50
c-35 6 -83 13 -139 22c-26 -15 -36 -44 -36 -68zM148 352c0 -75 37 -117 76 -117c45 0 70 43 70 103c0 75 -37 117 -75 117c-45 0 -71 -42 -71 -103zM148 654c0 38 27 67 66 67c38 0 64 -27 64 -65c0 -39 -26 -66 -65 -66c-38 0 -65 27 -65 64z" />
    <glyph glyph-name="uni0122" unicode="&#x122;" horiz-adv-x="565" 
d="M309 -14c-162 0 -280 118 -280 355c0 230 119 386 257 386c58 0 82 -20 99 -20c16 0 22 24 43 24c20 0 28 -18 38 -52l24 -87c13 -46 17 -66 17 -81c0 -18 -10 -29 -23 -29c-14 0 -24 10 -33 25c-47 77 -85 149 -146 149c-89 0 -132 -139 -132 -301
c0 -158 46 -293 153 -293c34 0 49 18 49 40v141c0 69 -44 45 -44 86c0 13 11 25 30 25h157c19 0 29 -12 29 -25c0 -40 -42 -17 -42 -86v-120c0 -46 19 -41 19 -67c0 -13 -5 -21 -26 -30c-29 -14 -103 -40 -189 -40zM238 -97c0 35 27 58 66 58c41 0 66 -26 66 -74
c0 -75 -63 -145 -101 -145c-13 0 -22 8 -22 19s8 17 18 24c13 11 24 25 24 42c0 15 -10 21 -27 32c-15 9 -24 23 -24 44z" />
    <glyph glyph-name="uni0123" unicode="&#x123;" horiz-adv-x="472" 
d="M224 -194c-126 0 -205 52 -205 124c0 39 24 76 71 97c-31 15 -56 43 -56 83c0 36 23 73 58 99c-40 26 -62 69 -62 125c0 95 70 178 202 178c23 0 43 -2 62 -7c34 86 82 123 113 123c20 0 35 -16 55 -41c7 -10 16 -21 16 -35c-1 -13 -12 -23 -33 -21c-33 2 -73 4 -104 -44
c47 -27 72 -73 72 -133c0 -93 -66 -175 -202 -175c-26 0 -49 3 -70 9c-11 -10 -18 -20 -18 -32c0 -17 15 -23 50 -29c53 -9 106 -14 144 -21c82 -15 139 -52 139 -132c0 -98 -83 -168 -232 -168zM111 -56c0 -58 55 -81 118 -81c80 0 114 38 114 77c0 33 -25 44 -57 50
c-35 6 -83 13 -139 22c-26 -15 -36 -44 -36 -68zM143 642c0 71 60 137 96 137c12 0 20 -8 20 -18c0 -11 -7 -16 -17 -23c-12 -10 -22 -23 -22 -40c0 -14 9 -19 25 -30c14 -8 23 -21 23 -41c0 -33 -26 -55 -62 -55c-39 0 -63 25 -63 70zM148 352c0 -75 37 -117 76 -117
c45 0 70 43 70 103c0 75 -37 117 -75 117c-45 0 -71 -42 -71 -103z" />
    <glyph glyph-name="Hcircumflex" unicode="&#x124;" horiz-adv-x="606" 
d="M387 -2c-18 0 -30 12 -30 25c0 39 43 19 43 86v195c0 20 -7 24 -21 24h-151c-14 0 -22 -4 -22 -24v-195c0 -67 43 -47 43 -86c0 -13 -11 -25 -30 -25c-17 0 -35 3 -79 3s-61 -3 -79 -3c-19 0 -30 12 -30 25c0 39 43 19 43 86v494c0 67 -43 47 -43 86c0 14 14 25 32 25
c19 0 33 -3 77 -3s62 3 79 3c19 0 30 -11 30 -25c0 -39 -43 -19 -43 -86v-185c0 -21 10 -24 22 -24h151c12 0 21 4 21 24v185c0 67 -43 47 -43 86c0 14 12 25 30 25c17 0 36 -3 80 -3c43 0 60 3 78 3s30 -11 30 -26c0 -38 -43 -18 -43 -85v-494c0 -67 43 -47 43 -86
c0 -13 -11 -25 -30 -25c-18 0 -35 3 -78 3c-44 0 -63 -3 -80 -3zM184 782c0 9 2 15 9 28c20 40 34 66 57 104c11 19 21 27 54 27c32 0 42 -7 54 -28c19 -32 42 -71 56 -102c7 -13 10 -19 10 -29c0 -13 -10 -22 -26 -22c-11 0 -22 6 -34 22l-60 80l-61 -80
c-14 -18 -25 -22 -34 -22c-16 0 -25 9 -25 22z" />
    <glyph glyph-name="hcircumflex" unicode="&#x125;" horiz-adv-x="489" 
d="M52 -2c-20 0 -28 13 -28 24c0 39 41 14 41 91v487c0 63 -46 31 -46 72c0 20 19 30 75 59c46 23 56 29 68 29c20 0 24 -19 24 -35v-313h1c25 62 64 99 116 99c93 0 108 -120 114 -184l22 -203c10 -93 46 -61 46 -103c0 -14 -11 -23 -28 -23c-19 0 -34 3 -73 3
c-42 0 -57 -3 -75 -3c-19 0 -29 11 -29 24c0 37 40 18 40 74c0 8 -2 23 -4 39l-16 157c-7 73 -14 121 -51 121c-33 0 -63 -39 -63 -127v-173c0 -77 41 -52 41 -91c0 -11 -9 -24 -27 -24c-17 0 -35 3 -75 3c-39 0 -57 -3 -73 -3zM14 795c0 9 2 15 9 28c20 40 34 66 57 104
c11 19 21 27 54 27c32 0 42 -7 54 -28c19 -32 42 -71 56 -102c7 -13 10 -19 10 -29c0 -13 -10 -22 -26 -22c-11 0 -22 6 -34 22l-60 80l-61 -80c-14 -18 -25 -22 -34 -22c-16 0 -25 9 -25 22z" />
    <glyph glyph-name="Hbar" unicode="&#x126;" horiz-adv-x="608" 
d="M49 489c-20 0 -30 8 -30 33s10 34 30 34h26v47c0 67 -43 47 -43 86c0 14 14 25 32 25c19 0 33 -3 77 -3s62 3 79 3c19 0 30 -11 30 -25c0 -39 -43 -19 -43 -86v-49h194v49c0 67 -43 47 -43 86c0 14 12 25 30 25c17 0 36 -3 80 -3c43 0 60 3 78 3s30 -11 30 -26
c0 -38 -43 -18 -43 -85v-47h27c19 0 29 -9 29 -34s-10 -33 -29 -33h-27v-380c0 -67 43 -47 43 -86c0 -13 -11 -25 -30 -25c-18 0 -35 3 -78 3c-44 0 -63 -3 -80 -3c-18 0 -30 12 -30 25c0 39 43 19 43 86v195c0 20 -7 24 -21 24h-151c-14 0 -22 -4 -22 -24v-195
c0 -67 43 -47 43 -86c0 -13 -11 -25 -30 -25c-17 0 -35 3 -79 3s-61 -3 -79 -3c-19 0 -30 12 -30 25c0 39 43 19 43 86v380h-26zM207 418c0 -21 10 -24 22 -24h151c12 0 21 4 21 24v73h-194v-73z" />
    <glyph glyph-name="hbar" unicode="&#x127;" horiz-adv-x="489" 
d="M24 539c-21 0 -31 8 -31 31s10 31 31 31h41c-3 56 -46 28 -46 69c0 19 19 31 75 60c45 24 56 30 68 30c20 0 24 -19 24 -35v-124h85c21 0 31 -8 31 -31s-10 -31 -31 -31h-85v-139h1c25 61 64 97 116 97c93 0 108 -116 114 -179l22 -198c10 -90 46 -59 46 -99
c0 -14 -11 -23 -28 -23c-19 0 -34 3 -73 3c-42 0 -57 -3 -75 -3c-19 0 -29 10 -29 24c0 35 40 17 40 71c0 8 -2 22 -4 38l-16 153c-7 71 -14 118 -51 118c-33 0 -63 -38 -63 -123v-166c0 -77 41 -52 41 -91c0 -11 -9 -24 -27 -24c-17 0 -35 3 -75 3c-39 0 -57 -3 -73 -3
c-20 0 -28 13 -28 24c0 39 41 14 41 91v426h-41z" />
    <glyph glyph-name="Itilde" unicode="&#x128;" horiz-adv-x="280" 
d="M61 -2c-19 0 -30 12 -30 25c0 39 43 19 43 86v494c0 67 -43 47 -43 86c0 14 14 25 32 25c19 0 33 -3 77 -3s62 3 79 3c19 0 30 -11 30 -25c0 -39 -43 -19 -43 -86v-494c0 -67 43 -47 43 -86c0 -13 -11 -25 -30 -25c-17 0 -35 3 -79 3s-61 -3 -79 -3zM17 805
c0 6 1 18 6 36c11 42 33 81 73 81c52 0 75 -77 100 -77c11 0 18 11 26 35c6 18 14 34 28 34c16 0 24 -10 24 -26c0 -8 -2 -22 -6 -37c-11 -45 -35 -81 -74 -81c-53 0 -79 76 -99 76c-11 0 -18 -11 -26 -33c-8 -23 -15 -35 -28 -35c-15 0 -24 9 -24 27z" />
    <glyph glyph-name="itilde" unicode="&#x129;" horiz-adv-x="256" 
d="M59 -2c-19 0 -28 14 -28 24c0 39 41 14 41 92v232c0 63 -46 31 -46 72c0 18 21 31 74 59c40 21 57 30 69 30c21 0 24 -21 24 -42v-351c0 -78 41 -53 41 -92c0 -10 -8 -24 -27 -24c-17 0 -35 3 -74 3c-40 0 -57 -3 -74 -3zM3 619c0 6 1 18 6 36c11 42 33 81 73 81
c52 0 75 -77 100 -77c11 0 18 11 26 35c6 18 14 34 28 34c16 0 24 -10 24 -26c0 -8 -2 -22 -6 -37c-11 -45 -35 -81 -74 -81c-53 0 -79 76 -99 76c-11 0 -18 -11 -26 -33c-8 -23 -15 -35 -28 -35c-15 0 -24 9 -24 27z" />
    <glyph glyph-name="Imacron" unicode="&#x12a;" horiz-adv-x="280" 
d="M61 -2c-19 0 -30 12 -30 25c0 39 43 19 43 86v494c0 67 -43 47 -43 86c0 14 14 25 32 25c19 0 33 -3 77 -3s62 3 79 3c19 0 30 -11 30 -25c0 -39 -43 -19 -43 -86v-494c0 -67 43 -47 43 -86c0 -13 -11 -25 -30 -25c-17 0 -35 3 -79 3s-61 -3 -79 -3zM27 843
c0 27 7 39 24 39l93 -1c28 0 68 1 94 1c17 0 24 -15 24 -39c0 -23 -7 -39 -24 -39c-27 0 -66 2 -93 2c-28 0 -68 -2 -94 -2c-17 0 -24 15 -24 39z" />
    <glyph glyph-name="imacron" unicode="&#x12b;" horiz-adv-x="256" 
d="M59 -2c-19 0 -28 14 -28 24c0 39 41 14 41 92v232c0 63 -46 31 -46 72c0 18 21 31 74 59c40 21 57 30 69 30c21 0 24 -21 24 -42v-351c0 -78 41 -53 41 -92c0 -10 -8 -24 -27 -24c-17 0 -35 3 -74 3c-40 0 -57 -3 -74 -3zM14 657c0 27 7 39 24 39l93 -1c28 0 68 1 94 1
c17 0 24 -15 24 -39c0 -23 -7 -39 -24 -39c-27 0 -66 2 -93 2c-28 0 -68 -2 -94 -2c-17 0 -24 15 -24 39z" />
    <glyph glyph-name="Ibreve" unicode="&#x12c;" horiz-adv-x="280" 
d="M61 -2c-19 0 -30 12 -30 25c0 39 43 19 43 86v494c0 67 -43 47 -43 86c0 14 14 25 32 25c19 0 33 -3 77 -3s62 3 79 3c19 0 30 -11 30 -25c0 -39 -43 -19 -43 -86v-494c0 -67 43 -47 43 -86c0 -13 -11 -25 -30 -25c-17 0 -35 3 -79 3s-61 -3 -79 -3zM24 909
c0 16 10 29 27 29c16 0 24 -16 34 -40c16 -39 31 -57 60 -57s42 20 57 57c9 21 20 40 38 40c17 0 25 -13 25 -29c0 -13 -2 -27 -8 -44c-22 -67 -58 -103 -112 -103c-55 0 -97 36 -116 107c-3 14 -5 27 -5 40z" />
    <glyph glyph-name="ibreve" unicode="&#x12d;" horiz-adv-x="256" 
d="M59 -2c-19 0 -28 14 -28 24c0 39 41 14 41 92v232c0 63 -46 31 -46 72c0 18 21 31 74 59c40 21 57 30 69 30c21 0 24 -21 24 -42v-351c0 -78 41 -53 41 -92c0 -10 -8 -24 -27 -24c-17 0 -35 3 -74 3c-40 0 -57 -3 -74 -3zM11 723c0 16 10 29 27 29c16 0 24 -16 34 -40
c16 -39 31 -57 60 -57s42 20 57 57c9 21 20 40 38 40c17 0 25 -13 25 -29c0 -13 -2 -27 -8 -44c-22 -67 -58 -103 -112 -103c-55 0 -97 36 -116 107c-3 14 -5 27 -5 40z" />
    <glyph glyph-name="Iogonek" unicode="&#x12e;" horiz-adv-x="280" 
d="M61 -2c-19 0 -30 12 -30 25c0 39 43 19 43 86v494c0 67 -43 47 -43 86c0 14 14 25 32 25c19 0 33 -3 77 -3s62 3 79 3c19 0 30 -11 30 -25c0 -39 -43 -19 -43 -86v-494c0 -67 43 -47 43 -86c0 -13 -11 -25 -30 -25c-10 0 -21 1 -38 2c-23 -33 -42 -68 -42 -107
c0 -25 9 -38 24 -38c6 0 11 1 18 6c4 4 8 6 14 6c8 0 16 -7 16 -17s-5 -19 -13 -27c-16 -16 -36 -23 -56 -23c-38 0 -72 28 -72 78c0 42 25 84 60 123c-37 0 -52 -3 -69 -3z" />
    <glyph glyph-name="iogonek" unicode="&#x12f;" horiz-adv-x="257" 
d="M59 -2c-19 0 -28 14 -28 24c0 39 41 14 41 92v232c0 63 -46 31 -46 72c0 18 21 31 74 59c40 21 57 30 69 30c21 0 24 -21 24 -42v-351c0 -78 41 -53 41 -92c0 -10 -8 -24 -27 -24c-10 0 -21 1 -36 2c-23 -33 -42 -68 -42 -107c0 -25 9 -38 24 -38c6 0 11 1 18 6
c4 4 8 6 14 6c8 0 16 -7 16 -17s-5 -19 -13 -27c-16 -16 -36 -23 -56 -23c-38 0 -72 28 -72 78c0 42 25 84 60 123c-31 -1 -46 -3 -61 -3zM50 649c0 43 43 92 96 92c35 0 57 -22 57 -57c0 -44 -43 -92 -96 -92c-35 0 -57 21 -57 57z" />
    <glyph glyph-name="Idotaccent" unicode="&#x130;" horiz-adv-x="280" 
d="M61 -2c-19 0 -30 12 -30 25c0 39 43 19 43 86v494c0 67 -43 47 -43 86c0 14 14 25 32 25c19 0 33 -3 77 -3s62 3 79 3c19 0 30 -11 30 -25c0 -39 -43 -19 -43 -86v-494c0 -67 43 -47 43 -86c0 -13 -11 -25 -30 -25c-17 0 -35 3 -79 3s-61 -3 -79 -3zM81 839
c0 38 27 67 66 67c38 0 64 -27 64 -65c0 -39 -26 -66 -65 -66c-38 0 -65 27 -65 64z" />
    <glyph glyph-name="dotlessi" unicode="&#x131;" horiz-adv-x="256" 
d="M59 -2c-19 0 -28 14 -28 24c0 39 41 14 41 92v232c0 63 -46 31 -46 72c0 18 21 31 74 59c40 21 57 30 69 30c21 0 24 -21 24 -42v-351c0 -78 41 -53 41 -92c0 -10 -8 -24 -27 -24c-17 0 -35 3 -74 3c-40 0 -57 -3 -74 -3z" />
    <glyph glyph-name="IJ" unicode="&#x132;" horiz-adv-x="686" 
d="M61 -2c-19 0 -30 12 -30 25c0 39 43 19 43 86v494c0 67 -43 47 -43 86c0 14 14 25 32 25c19 0 33 -3 77 -3s62 3 79 3c19 0 30 -11 30 -25c0 -39 -43 -19 -43 -86v-494c0 -67 43 -47 43 -86c0 -13 -11 -25 -30 -25c-17 0 -35 3 -79 3s-61 -3 -79 -3zM285 82
c0 16 7 54 28 122c7 23 17 33 30 33c16 0 24 -11 27 -30c16 -108 29 -152 70 -152c40 0 49 63 49 106v442c0 67 -48 47 -48 86c0 13 11 25 30 25c18 0 36 -3 84 -3c44 0 62 3 79 3c19 0 29 -12 29 -25c0 -39 -42 -19 -42 -86v-434c0 -108 -42 -182 -167 -182
c-87 0 -169 43 -169 95z" />
    <glyph glyph-name="ij" unicode="&#x133;" horiz-adv-x="496" 
d="M59 -2c-19 0 -28 14 -28 24c0 39 41 14 41 92v232c0 63 -46 31 -46 72c0 18 21 31 74 59c40 21 57 30 69 30c21 0 24 -21 24 -42v-351c0 -78 41 -53 41 -92c0 -10 -8 -24 -27 -24c-17 0 -35 3 -74 3c-40 0 -57 -3 -74 -3zM50 649c0 43 43 92 96 92c35 0 57 -22 57 -57
c0 -44 -43 -92 -96 -92c-35 0 -57 21 -57 57zM222 -135c0 42 6 82 30 82c9 0 16 -5 22 -18c15 -38 25 -55 39 -55c10 0 15 9 15 26c0 26 -6 56 -6 91v355c0 63 -45 31 -45 72c0 19 20 31 74 59c43 22 58 30 68 30c21 0 25 -21 25 -42v-468c0 -120 -85 -190 -169 -190
c-38 0 -53 19 -53 58zM301 649c0 43 43 92 96 92c35 0 57 -22 57 -57c0 -44 -43 -92 -96 -92c-35 0 -57 21 -57 57z" />
    <glyph glyph-name="Jcircumflex" unicode="&#x134;" horiz-adv-x="406" 
d="M174 -13c-87 0 -169 43 -169 95c0 16 7 54 28 122c7 23 17 33 30 33c16 0 24 -11 27 -30c16 -108 29 -152 70 -152c40 0 49 63 49 106v442c0 67 -48 47 -48 86c0 13 11 25 30 25c18 0 36 -3 84 -3c44 0 62 3 79 3c19 0 29 -12 29 -25c0 -39 -42 -19 -42 -86v-434
c0 -108 -42 -182 -167 -182zM154 782c0 9 2 15 9 28c20 40 34 66 57 104c11 19 21 27 54 27c32 0 42 -7 54 -28c19 -32 42 -71 56 -102c7 -13 10 -19 10 -29c0 -13 -10 -22 -26 -22c-11 0 -22 6 -34 22l-60 80l-61 -80c-14 -18 -25 -22 -34 -22c-16 0 -25 9 -25 22z" />
    <glyph glyph-name="jcircumflex" unicode="&#x135;" horiz-adv-x="239" 
d="M18 -193c-38 0 -53 19 -53 58c0 42 6 82 30 82c9 0 16 -5 22 -18c15 -38 25 -55 39 -55c10 0 15 9 15 26c0 26 -6 56 -6 91v355c0 63 -45 31 -45 72c0 19 20 31 74 59c43 22 58 30 68 30c21 0 25 -21 25 -42v-468c0 -120 -85 -190 -169 -190zM3 596c0 9 2 15 9 28
c20 40 34 66 57 104c11 19 21 27 54 27c32 0 42 -7 54 -28c19 -32 42 -71 56 -102c7 -13 10 -19 10 -29c0 -13 -10 -22 -26 -22c-11 0 -22 6 -34 22l-60 80l-61 -80c-14 -18 -25 -22 -34 -22c-16 0 -25 9 -25 22z" />
    <glyph glyph-name="uni0136" unicode="&#x136;" horiz-adv-x="565" 
d="M61 -2c-19 0 -30 12 -30 25c0 39 43 19 43 86v494c0 67 -43 47 -43 86c0 14 14 25 32 25c19 0 33 -3 77 -3s62 3 79 3c19 0 30 -11 30 -25c0 -39 -43 -19 -43 -86v-207l157 207c12 16 17 25 17 38c0 27 -34 18 -34 48c0 16 13 25 33 25c23 0 39 -3 71 -3c29 0 54 3 75 3
c15 0 25 -9 25 -22c0 -38 -47 -23 -87 -75l-109 -140l160 -376c23 -54 57 -42 57 -76c0 -15 -11 -27 -33 -27c-13 0 -34 3 -78 3c-41 0 -60 -3 -83 -3s-34 12 -34 26c0 31 32 27 32 60c0 10 -3 20 -9 35l-101 244l-59 -76v-178c0 -67 43 -47 43 -86c0 -13 -11 -25 -30 -25
c-17 0 -35 3 -79 3s-61 -3 -79 -3zM219 -97c0 35 27 58 66 58c41 0 66 -26 66 -74c0 -75 -63 -145 -101 -145c-13 0 -22 8 -22 19s8 17 18 24c13 11 24 25 24 42c0 15 -10 21 -27 32c-15 9 -24 23 -24 44z" />
    <glyph glyph-name="uni0137" unicode="&#x137;" horiz-adv-x="482" 
d="M53 -2c-22 0 -29 13 -29 25c0 36 41 13 41 90v487c0 62 -46 33 -46 71c0 19 13 28 74 60c59 30 62 29 70 29c22 0 23 -28 23 -35v-449l99 120c8 10 15 20 15 34c0 27 -30 22 -30 46c0 17 9 26 30 26c15 0 43 -3 62 -3c18 0 62 3 75 3c15 0 25 -8 25 -24
c0 -35 -46 -26 -79 -65l-58 -68l113 -259c18 -42 50 -35 50 -64c0 -16 -10 -24 -27 -24c-13 0 -41 3 -78 3c-38 0 -59 -3 -74 -3c-23 0 -33 8 -33 25c0 31 29 21 29 55c0 11 -3 21 -11 39l-55 127l-53 -62v-69c0 -77 41 -54 41 -89c0 -13 -7 -26 -29 -26c-14 0 -33 3 -73 3
c-38 0 -58 -3 -72 -3zM198 -97c0 35 27 58 66 58c41 0 66 -26 66 -74c0 -75 -63 -145 -101 -145c-13 0 -22 8 -22 19s8 17 18 24c13 11 24 25 24 42c0 15 -10 21 -27 32c-15 9 -24 23 -24 44z" />
    <glyph glyph-name="kgreenlandic" unicode="&#x138;" horiz-adv-x="489" 
d="M59 -2c-19 0 -28 14 -28 24c0 39 41 14 41 92v229c0 63 -46 31 -46 73c0 18 20 32 74 60c40 21 57 31 69 31c21 0 24 -21 24 -42v-189l99 120c8 10 16 20 16 34c0 27 -31 22 -31 46c0 17 10 26 30 26c15 0 43 -3 62 -3c18 0 63 3 75 3c15 0 26 -8 26 -24
c0 -35 -47 -26 -80 -65l-57 -67l112 -260c18 -42 50 -35 50 -64c0 -16 -9 -24 -26 -24c-14 0 -42 3 -79 3s-58 -3 -74 -3c-23 0 -32 8 -32 25c0 31 28 21 28 55c0 11 -3 21 -11 39l-55 126l-53 -62v-67c0 -78 41 -53 41 -92c0 -10 -8 -24 -27 -24c-17 0 -35 3 -74 3
c-40 0 -57 -3 -74 -3z" />
    <glyph glyph-name="Lacute" unicode="&#x139;" horiz-adv-x="480" 
d="M386 -23c-23 0 -27 23 -60 23h-186c-43 0 -63 -3 -80 -3c-20 0 -29 12 -29 25c0 40 43 17 43 86v495c0 67 -43 47 -43 86c0 14 14 25 32 25c19 0 33 -3 77 -3s64 3 81 3c19 0 30 -11 30 -25c0 -39 -45 -19 -45 -86v-496c0 -23 7 -40 34 -40h36c51 0 78 42 143 128
c11 15 20 26 34 26s26 -10 26 -28c0 -17 -8 -39 -22 -78l-33 -93c-10 -28 -20 -45 -38 -45zM138 769c0 7 4 17 7 25c15 39 37 86 54 121c10 19 22 24 54 24c42 0 50 -6 50 -23c0 -13 -9 -24 -30 -50c-20 -25 -47 -67 -74 -93c-14 -16 -24 -20 -38 -20c-15 0 -23 7 -23 16z
" />
    <glyph glyph-name="lacute" unicode="&#x13a;" horiz-adv-x="251" 
d="M52 -2c-20 0 -28 13 -28 24c0 39 41 14 41 91v487c0 63 -46 31 -46 72c0 20 19 30 75 59c55 28 58 29 67 29c21 0 25 -19 25 -42v-605c0 -77 41 -52 41 -91c0 -11 -9 -24 -27 -24c-17 0 -35 3 -75 3c-39 0 -57 -3 -73 -3zM75 800c0 7 4 17 7 25c15 39 37 86 54 121
c10 19 22 24 54 24c42 0 50 -6 50 -23c0 -13 -9 -24 -30 -50c-20 -25 -47 -67 -74 -93c-14 -16 -24 -20 -38 -20c-15 0 -23 7 -23 16z" />
    <glyph glyph-name="uni013B" unicode="&#x13b;" horiz-adv-x="480" 
d="M386 -23c-23 0 -27 23 -60 23h-186c-43 0 -63 -3 -80 -3c-20 0 -29 12 -29 25c0 40 43 17 43 86v495c0 67 -43 47 -43 86c0 14 14 25 32 25c19 0 33 -3 77 -3s64 3 81 3c19 0 30 -11 30 -25c0 -39 -45 -19 -45 -86v-496c0 -23 7 -40 34 -40h36c51 0 78 42 143 128
c11 15 20 26 34 26s26 -10 26 -28c0 -17 -8 -39 -22 -78l-33 -93c-10 -28 -20 -45 -38 -45zM188 -97c0 35 27 58 66 58c41 0 66 -26 66 -74c0 -75 -63 -145 -101 -145c-13 0 -22 8 -22 19s8 17 18 24c13 11 24 25 24 42c0 15 -10 21 -27 32c-15 9 -24 23 -24 44z" />
    <glyph glyph-name="uni013C" unicode="&#x13c;" horiz-adv-x="251" 
d="M52 -2c-20 0 -28 13 -28 24c0 39 41 14 41 91v487c0 63 -46 31 -46 72c0 20 19 30 75 59c55 28 58 29 67 29c21 0 25 -19 25 -42v-605c0 -77 41 -52 41 -91c0 -11 -9 -24 -27 -24c-17 0 -35 3 -75 3c-39 0 -57 -3 -73 -3zM70 -97c0 35 27 58 66 58c41 0 66 -26 66 -74
c0 -75 -63 -145 -101 -145c-13 0 -22 8 -22 19s8 17 18 24c13 11 24 25 24 42c0 15 -10 21 -27 32c-15 9 -24 23 -24 44z" />
    <glyph glyph-name="Lcaron" unicode="&#x13d;" horiz-adv-x="480" 
d="M386 -23c-23 0 -27 23 -60 23h-186c-43 0 -63 -3 -80 -3c-20 0 -29 12 -29 25c0 40 43 17 43 86v495c0 67 -43 47 -43 86c0 14 14 25 32 25c19 0 33 -3 77 -3s64 3 81 3c19 0 30 -11 30 -25c0 -39 -45 -19 -45 -86v-496c0 -23 7 -40 34 -40h36c51 0 78 42 143 128
c11 15 20 26 34 26s26 -10 26 -28c0 -17 -8 -39 -22 -78l-33 -93c-10 -28 -20 -45 -38 -45zM297 510v210c0 20 7 33 34 33c35 0 52 -11 52 -33c0 -52 -16 -154 -30 -208c-4 -16 -17 -27 -31 -27c-15 0 -25 8 -25 25z" />
    <glyph glyph-name="lcaron" unicode="&#x13e;" horiz-adv-x="251" 
d="M52 -2c-20 0 -28 13 -28 24c0 39 41 14 41 91v487c0 63 -46 31 -46 72c0 20 19 30 75 59c55 28 58 29 67 29c21 0 25 -19 25 -42v-605c0 -77 41 -52 41 -91c0 -11 -9 -24 -27 -24c-17 0 -35 3 -75 3c-39 0 -57 -3 -73 -3zM244 538v210c0 20 7 33 34 33
c35 0 52 -11 52 -33c0 -52 -16 -154 -30 -208c-4 -16 -17 -27 -31 -27c-15 0 -25 8 -25 25z" />
    <glyph glyph-name="Ldot" unicode="&#x13f;" horiz-adv-x="480" 
d="M386 -23c-23 0 -27 23 -60 23h-186c-43 0 -63 -3 -80 -3c-20 0 -29 12 -29 25c0 40 43 17 43 86v495c0 67 -43 47 -43 86c0 14 14 25 32 25c19 0 33 -3 77 -3s64 3 81 3c19 0 30 -11 30 -25c0 -39 -45 -19 -45 -86v-496c0 -23 7 -40 34 -40h36c51 0 78 42 143 128
c11 15 20 26 34 26s26 -10 26 -28c0 -17 -8 -39 -22 -78l-33 -93c-10 -28 -20 -45 -38 -45zM312 383c0 -40 23 -63 61 -63c42 0 73 31 73 71s-26 63 -62 63c-43 0 -72 -32 -72 -71z" />
    <glyph glyph-name="ldot" unicode="&#x140;" horiz-adv-x="338" 
d="M52 -2c-20 0 -28 13 -28 24c0 39 41 14 41 91v487c0 63 -46 31 -46 72c0 20 19 30 75 59c55 28 58 29 67 29c21 0 25 -19 25 -42v-605c0 -77 41 -52 41 -91c0 -11 -9 -24 -27 -24c-17 0 -35 3 -75 3c-39 0 -57 -3 -73 -3zM228 362c0 -40 23 -63 61 -63c43 0 74 31 74 71
s-26 64 -63 64c-43 0 -72 -32 -72 -72z" />
    <glyph glyph-name="Lslash" unicode="&#x141;" horiz-adv-x="500" 
d="M50 256c-12 0 -28 15 -28 37c0 12 5 20 18 28l54 35v247c0 67 -43 47 -43 86c0 14 14 25 32 25c19 0 33 -3 77 -3s64 3 81 3c19 0 30 -11 30 -25c0 -39 -45 -19 -45 -86v-161l70 46c5 4 12 6 18 6c11 0 29 -16 29 -37c0 -13 -9 -21 -19 -28l-98 -64v-258
c0 -23 7 -40 34 -40h36c51 0 78 42 143 128c11 15 20 26 34 26s26 -10 26 -28c0 -17 -8 -39 -22 -78l-33 -93c-10 -28 -20 -45 -38 -45c-23 0 -27 23 -60 23h-186c-43 0 -63 -3 -80 -3c-20 0 -29 12 -29 25c0 40 43 17 43 86v171l-26 -17c-7 -5 -13 -6 -18 -6z" />
    <glyph glyph-name="lslash" unicode="&#x142;" horiz-adv-x="294" 
d="M40 273c-12 0 -25 16 -25 32c0 13 7 20 19 27l54 31v237c0 63 -46 31 -46 72c0 20 19 30 75 59c55 28 58 29 67 29c21 0 25 -19 25 -42v-287l38 22c7 4 13 7 19 7c11 0 25 -15 25 -32c0 -10 -5 -19 -19 -27l-63 -36v-252c0 -77 41 -52 41 -91c0 -11 -9 -24 -27 -24
c-17 0 -35 3 -75 3c-39 0 -57 -3 -73 -3c-20 0 -28 13 -28 24c0 39 41 14 41 91v183l-29 -17c-6 -3 -13 -6 -19 -6z" />
    <glyph glyph-name="Nacute" unicode="&#x143;" horiz-adv-x="568" 
d="M461 -8c-25 0 -37 14 -50 36l-264 469l1 -387c0 -67 58 -41 58 -85c0 -17 -13 -27 -32 -27c-17 0 -36 3 -61 3c-20 0 -37 -3 -56 -3c-20 0 -29 13 -29 26c0 39 45 18 45 86v492c0 68 -45 46 -45 86c0 15 13 27 33 27c17 0 33 -3 50 -3c20 0 29 2 45 2c21 0 31 -9 41 -26
l228 -417v331c0 68 -58 41 -58 86c0 16 12 27 33 27s39 -3 58 -3c18 0 38 3 57 3s29 -13 29 -26c0 -40 -45 -18 -45 -87v-570c0 -25 -18 -40 -38 -40zM245 770c0 7 4 17 7 25c15 39 37 86 54 121c10 19 22 24 54 24c42 0 50 -6 50 -23c0 -13 -9 -24 -30 -50
c-20 -25 -47 -67 -74 -93c-14 -16 -24 -20 -38 -20c-15 0 -23 7 -23 16z" />
    <glyph glyph-name="nacute" unicode="&#x144;" horiz-adv-x="497" 
d="M317 -2c-20 0 -30 11 -30 24c0 37 40 18 40 74c0 8 -2 23 -3 39l-17 157c-7 73 -14 121 -51 121c-33 0 -63 -39 -63 -127v-172c0 -78 41 -53 41 -92c0 -10 -8 -24 -27 -24c-17 0 -35 3 -74 3c-40 0 -57 -3 -74 -3c-19 0 -28 14 -28 24c0 39 41 14 41 92v232
c0 63 -46 31 -46 72c0 18 21 31 74 59c40 21 57 30 69 30c21 0 24 -21 24 -42v-53h1c25 62 64 99 117 99c92 0 107 -120 114 -184l21 -203c10 -93 46 -61 46 -103c0 -14 -11 -23 -28 -23c-18 0 -33 3 -73 3c-41 0 -57 -3 -74 -3zM205 583c0 7 4 17 7 25c15 39 37 86 54 121
c10 19 22 24 54 24c42 0 50 -6 50 -23c0 -13 -9 -24 -30 -50c-20 -25 -47 -67 -74 -93c-14 -16 -24 -20 -38 -20c-15 0 -23 7 -23 16z" />
    <glyph glyph-name="uni0145" unicode="&#x145;" horiz-adv-x="568" 
d="M461 -8c-25 0 -37 14 -50 36l-264 469l1 -387c0 -67 58 -41 58 -85c0 -17 -13 -27 -32 -27c-17 0 -36 3 -61 3c-20 0 -37 -3 -56 -3c-20 0 -29 13 -29 26c0 39 45 18 45 86v492c0 68 -45 46 -45 86c0 15 13 27 33 27c17 0 33 -3 50 -3c20 0 29 2 45 2c21 0 31 -9 41 -26
l228 -417v331c0 68 -58 41 -58 86c0 16 12 27 33 27s39 -3 58 -3c18 0 38 3 57 3s29 -13 29 -26c0 -40 -45 -18 -45 -87v-570c0 -25 -18 -40 -38 -40zM220 -97c0 35 27 58 66 58c41 0 66 -26 66 -74c0 -75 -63 -145 -101 -145c-13 0 -22 8 -22 19s8 17 18 24
c13 11 24 25 24 42c0 15 -10 21 -27 32c-15 9 -24 23 -24 44z" />
    <glyph glyph-name="uni0146" unicode="&#x146;" horiz-adv-x="497" 
d="M317 -2c-20 0 -30 11 -30 24c0 37 40 18 40 74c0 8 -2 23 -3 39l-17 157c-7 73 -14 121 -51 121c-33 0 -63 -39 -63 -127v-172c0 -78 41 -53 41 -92c0 -10 -8 -24 -27 -24c-17 0 -35 3 -74 3c-40 0 -57 -3 -74 -3c-19 0 -28 14 -28 24c0 39 41 14 41 92v232
c0 63 -46 31 -46 72c0 18 21 31 74 59c40 21 57 30 69 30c21 0 24 -21 24 -42v-53h1c25 62 64 99 117 99c92 0 107 -120 114 -184l21 -203c10 -93 46 -61 46 -103c0 -14 -11 -23 -28 -23c-18 0 -33 3 -73 3c-41 0 -57 -3 -74 -3zM193 -97c0 35 27 58 66 58
c41 0 66 -26 66 -74c0 -75 -63 -145 -101 -145c-13 0 -22 8 -22 19s8 17 18 24c13 11 24 25 24 42c0 15 -10 21 -27 32c-15 9 -24 23 -24 44z" />
    <glyph glyph-name="Ncaron" unicode="&#x147;" horiz-adv-x="568" 
d="M461 -8c-25 0 -37 14 -50 36l-264 469l1 -387c0 -67 58 -41 58 -85c0 -17 -13 -27 -32 -27c-17 0 -36 3 -61 3c-20 0 -37 -3 -56 -3c-20 0 -29 13 -29 26c0 39 45 18 45 86v492c0 68 -45 46 -45 86c0 15 13 27 33 27c17 0 33 -3 50 -3c20 0 29 2 45 2c21 0 31 -9 41 -26
l228 -417v331c0 68 -58 41 -58 86c0 16 12 27 33 27s39 -3 58 -3c18 0 38 3 57 3s29 -13 29 -26c0 -40 -45 -18 -45 -87v-570c0 -25 -18 -40 -38 -40zM167 926c0 13 10 22 26 22c11 0 22 -6 34 -22l61 -80l60 80c14 18 25 22 34 22c16 0 25 -9 25 -22c0 -9 -2 -15 -9 -28
c-20 -40 -34 -66 -57 -104c-11 -19 -21 -27 -54 -27c-32 0 -42 7 -54 28c-19 32 -42 71 -56 102c-7 13 -10 19 -10 29z" />
    <glyph glyph-name="ncaron" unicode="&#x148;" horiz-adv-x="497" 
d="M317 -2c-20 0 -30 11 -30 24c0 37 40 18 40 74c0 8 -2 23 -3 39l-17 157c-7 73 -14 121 -51 121c-33 0 -63 -39 -63 -127v-172c0 -78 41 -53 41 -92c0 -10 -8 -24 -27 -24c-17 0 -35 3 -74 3c-40 0 -57 -3 -74 -3c-19 0 -28 14 -28 24c0 39 41 14 41 92v232
c0 63 -46 31 -46 72c0 18 21 31 74 59c40 21 57 30 69 30c21 0 24 -21 24 -42v-53h1c25 62 64 99 117 99c92 0 107 -120 114 -184l21 -203c10 -93 46 -61 46 -103c0 -14 -11 -23 -28 -23c-18 0 -33 3 -73 3c-41 0 -57 -3 -74 -3zM128 739c0 13 10 22 26 22
c11 0 22 -6 34 -22l61 -80l60 80c14 18 25 22 34 22c16 0 25 -9 25 -22c0 -9 -2 -15 -9 -28c-20 -40 -34 -66 -57 -104c-11 -19 -21 -27 -54 -27c-32 0 -42 7 -54 28c-19 32 -42 71 -56 102c-7 13 -10 19 -10 29z" />
    <glyph glyph-name="Eng" unicode="&#x14a;" horiz-adv-x="568" 
d="M332 -193c-38 0 -53 19 -53 58c0 42 6 82 30 82c9 0 16 -5 21 -18c15 -38 26 -55 39 -55c34 0 57 37 57 114v16l-278 513l1 -408c0 -67 57 -40 57 -87c0 -14 -11 -24 -30 -24c-21 0 -43 3 -62 3c-17 0 -37 -3 -57 -3c-19 0 -28 12 -28 25c0 40 45 17 45 86v494
c0 68 -45 46 -45 86c0 14 12 25 31 25c18 0 35 -3 52 -3c19 0 28 2 43 2c20 0 30 -8 40 -25l231 -427l-1 342c0 68 -58 40 -58 87c0 13 13 24 32 24c21 0 39 -3 59 -3c18 0 39 3 58 3s28 -11 28 -24c0 -41 -45 -19 -45 -87v-606c0 -121 -83 -190 -167 -190z" />
    <glyph glyph-name="eng" unicode="&#x14b;" horiz-adv-x="480" 
d="M256 -193c-33 0 -54 18 -54 65c0 33 3 78 27 78c10 0 16 -7 22 -21c15 -33 27 -51 42 -51c11 0 21 8 21 29c0 23 -6 50 -6 92v290c0 72 -16 116 -55 116c-33 0 -58 -34 -58 -124v-168c0 -77 40 -58 40 -91c0 -11 -8 -25 -27 -25c-18 0 -35 3 -76 3c-40 0 -57 -3 -75 -3
c-19 0 -27 13 -27 25c0 33 40 14 40 91v229c0 62 -45 37 -45 75c0 18 17 29 77 60c53 29 59 31 68 31c21 0 25 -20 25 -43v-43c24 55 60 89 115 89c82 0 123 -82 123 -196v-316c0 -120 -96 -192 -177 -192z" />
    <glyph glyph-name="Omacron" unicode="&#x14c;" horiz-adv-x="605" 
d="M301 -15c-153 0 -273 138 -273 360c0 218 122 383 274 383c156 0 275 -166 275 -381c0 -220 -111 -362 -276 -362zM175 355c0 -157 42 -297 128 -297c89 0 127 136 127 298c0 157 -39 301 -127 301s-128 -141 -128 -302zM184 847c0 27 7 39 24 39l93 -1c28 0 68 1 94 1
c17 0 24 -15 24 -39c0 -23 -7 -39 -24 -39c-27 0 -66 2 -93 2c-28 0 -68 -2 -94 -2c-17 0 -24 15 -24 39z" />
    <glyph glyph-name="omacron" unicode="&#x14d;" horiz-adv-x="482" 
d="M232 -15c-129 0 -207 108 -207 256c0 158 92 273 225 273c131 0 207 -111 207 -255c0 -161 -95 -274 -225 -274zM122 646c0 27 7 39 24 39l93 -1c28 0 68 1 94 1c17 0 24 -15 24 -39c0 -23 -7 -39 -24 -39c-27 0 -66 2 -93 2c-28 0 -68 -2 -94 -2c-17 0 -24 15 -24 39z
M156 284c0 -130 40 -233 97 -233c47 0 72 68 72 165c0 138 -42 232 -97 232c-46 0 -72 -66 -72 -164z" />
    <glyph glyph-name="Obreve" unicode="&#x14e;" horiz-adv-x="605" 
d="M301 -15c-153 0 -273 138 -273 360c0 218 122 383 274 383c156 0 275 -166 275 -381c0 -220 -111 -362 -276 -362zM175 355c0 -157 42 -297 128 -297c89 0 127 136 127 298c0 157 -39 301 -127 301s-128 -141 -128 -302zM181 913c0 16 10 29 27 29c16 0 24 -16 34 -40
c16 -39 31 -57 60 -57s42 20 57 57c9 21 20 40 38 40c17 0 25 -13 25 -29c0 -13 -2 -27 -8 -44c-22 -67 -58 -103 -112 -103c-55 0 -97 36 -116 107c-3 14 -5 27 -5 40z" />
    <glyph glyph-name="obreve" unicode="&#x14f;" horiz-adv-x="482" 
d="M232 -15c-129 0 -207 108 -207 256c0 158 92 273 225 273c131 0 207 -111 207 -255c0 -161 -95 -274 -225 -274zM119 712c0 16 10 29 27 29c16 0 24 -16 34 -40c16 -39 31 -57 60 -57s42 20 57 57c9 21 20 40 38 40c17 0 25 -13 25 -29c0 -13 -2 -27 -8 -44
c-22 -67 -58 -103 -112 -103c-55 0 -97 36 -116 107c-3 14 -5 27 -5 40zM156 284c0 -130 40 -233 97 -233c47 0 72 68 72 165c0 138 -42 232 -97 232c-46 0 -72 -66 -72 -164z" />
    <glyph glyph-name="Ohungarumlaut" unicode="&#x150;" horiz-adv-x="605" 
d="M301 -15c-153 0 -273 138 -273 360c0 218 122 383 274 383c156 0 275 -166 275 -381c0 -220 -111 -362 -276 -362zM175 355c0 -157 42 -297 128 -297c89 0 127 136 127 298c0 157 -39 301 -127 301s-128 -141 -128 -302zM219 769c0 8 4 17 7 28c10 36 29 94 39 122
c7 21 19 26 43 26c26 0 41 -6 41 -23s-10 -30 -22 -51c-23 -41 -34 -60 -56 -97c-11 -18 -21 -23 -34 -23c-11 0 -18 8 -18 18zM338 769c0 7 3 18 7 29c10 32 25 83 39 122c7 19 17 25 43 25s41 -6 41 -23c0 -15 -6 -24 -21 -51c-19 -33 -35 -60 -57 -97
c-11 -18 -22 -23 -35 -23c-12 0 -17 8 -17 18z" />
    <glyph glyph-name="ohungarumlaut" unicode="&#x151;" horiz-adv-x="482" 
d="M232 -15c-129 0 -207 108 -207 256c0 158 92 273 225 273c131 0 207 -111 207 -255c0 -161 -95 -274 -225 -274zM156 284c0 -130 40 -233 97 -233c47 0 72 68 72 165c0 138 -42 232 -97 232c-46 0 -72 -66 -72 -164zM157 568c0 8 4 17 7 28c10 36 29 94 39 122
c7 21 19 26 43 26c26 0 41 -6 41 -23s-10 -30 -22 -51c-23 -41 -34 -60 -56 -97c-11 -18 -21 -23 -34 -23c-11 0 -18 8 -18 18zM276 568c0 7 3 18 7 29c10 32 25 83 39 122c7 19 17 25 43 25s41 -6 41 -23c0 -15 -6 -24 -21 -51c-19 -33 -35 -60 -57 -97
c-11 -18 -22 -23 -35 -23c-12 0 -17 8 -17 18z" />
    <glyph glyph-name="OE" unicode="&#x152;" horiz-adv-x="835" 
d="M739 -23c-20 0 -24 23 -55 23h-198c-69 0 -101 -17 -177 -17c-160 0 -281 139 -281 359s123 387 279 387c78 0 110 -17 179 -17h174c31 0 34 23 54 23c22 0 31 -24 40 -50l30 -83c13 -36 19 -54 19 -71s-11 -26 -23 -26c-14 0 -23 9 -34 25c-49 72 -78 116 -137 116h-32
c-25 0 -40 -7 -40 -48v-179c0 -21 9 -24 22 -24h28c41 0 42 74 70 74c15 0 25 -10 25 -34c0 -23 -3 -48 -3 -73s3 -51 3 -73c0 -25 -10 -34 -25 -34c-28 0 -29 74 -70 74h-28c-14 0 -22 -4 -22 -24v-190c0 -28 4 -48 40 -48h53c54 0 86 35 144 123c12 17 22 26 33 26
c12 0 24 -11 24 -27c0 -19 -6 -36 -20 -75l-34 -93c-10 -28 -20 -44 -38 -44zM175 353c0 -162 43 -297 136 -297c61 0 93 55 93 141v313c0 79 -25 148 -95 148c-93 0 -134 -143 -134 -305z" />
    <glyph glyph-name="oe" unicode="&#x153;" horiz-adv-x="724" 
d="M232 -15c-129 0 -207 108 -207 256c0 158 92 273 226 273c60 0 109 -25 144 -68c36 43 84 67 134 67c100 0 168 -92 168 -205c0 -28 -13 -39 -36 -45l-206 -57c18 -76 61 -134 118 -134c34 0 62 22 85 53c11 13 18 18 26 18c12 0 19 -10 19 -22c0 -7 -3 -18 -7 -28
c-24 -51 -84 -106 -172 -106c-59 0 -107 24 -141 70c-39 -46 -91 -72 -151 -72zM156 284c0 -130 40 -233 97 -233c47 0 72 68 72 165c0 138 -42 232 -97 232c-46 0 -72 -66 -72 -164zM445 292l1 -24l94 27c16 5 33 15 33 38c0 62 -30 111 -63 111c-37 1 -65 -60 -65 -152z
" />
    <glyph glyph-name="Racute" unicode="&#x154;" horiz-adv-x="561" 
d="M61 -2c-19 0 -30 12 -30 25c0 39 43 19 43 86v494c0 69 -43 47 -43 86c0 13 10 25 34 25c11 0 39 -3 67 -3s84 7 127 7c159 0 249 -98 249 -236c0 -95 -39 -170 -110 -202l76 -152c40 -80 83 -68 83 -106c0 -14 -12 -24 -26 -24c-21 0 -54 3 -94 3c-33 0 -62 -3 -81 -3
c-20 0 -31 9 -31 25c0 27 26 25 26 58c0 14 -7 28 -15 44l-53 108c-11 21 -18 26 -30 26c-9 -1 -17 -1 -31 0c-12 0 -16 -8 -16 -21v-129c0 -67 44 -47 44 -86c0 -13 -11 -25 -29 -25c-17 0 -37 3 -81 3s-61 -3 -79 -3zM206 356c0 -17 2 -35 51 -35c68 0 108 41 108 151
c0 118 -50 179 -113 179c-36 0 -46 -14 -46 -50v-245zM221 769c0 7 4 17 7 25c15 39 37 86 54 121c10 19 22 24 54 24c42 0 50 -6 50 -23c0 -13 -9 -24 -30 -50c-20 -25 -47 -67 -74 -93c-14 -16 -24 -20 -38 -20c-15 0 -23 7 -23 16z" />
    <glyph glyph-name="racute" unicode="&#x155;" horiz-adv-x="391" 
d="M59 -2c-19 0 -28 14 -28 24c0 40 41 14 41 92v232c0 62 -46 31 -46 72c0 20 20 30 75 59c37 20 57 30 68 30c21 0 24 -24 24 -42v-92c20 83 71 139 122 139c41 0 71 -26 71 -57c0 -22 -8 -47 -27 -102c-7 -18 -15 -27 -28 -27c-12 0 -21 9 -28 28c-11 28 -23 51 -46 51
c-26 0 -64 -69 -64 -201v-90c0 -78 49 -48 49 -92c0 -10 -7 -24 -26 -24s-40 3 -83 3c-40 0 -57 -3 -74 -3zM180 583c0 7 4 17 7 25c15 39 37 86 54 121c10 19 22 24 54 24c42 0 50 -6 50 -23c0 -13 -9 -24 -30 -50c-20 -25 -47 -67 -74 -93c-14 -16 -24 -20 -38 -20
c-15 0 -23 7 -23 16z" />
    <glyph glyph-name="uni0156" unicode="&#x156;" horiz-adv-x="561" 
d="M61 -2c-19 0 -30 12 -30 25c0 39 43 19 43 86v494c0 69 -43 47 -43 86c0 13 10 25 34 25c11 0 39 -3 67 -3s84 7 127 7c159 0 249 -98 249 -236c0 -95 -39 -170 -110 -202l76 -152c40 -80 83 -68 83 -106c0 -14 -12 -24 -26 -24c-21 0 -54 3 -94 3c-33 0 -62 -3 -81 -3
c-20 0 -31 9 -31 25c0 27 26 25 26 58c0 14 -7 28 -15 44l-53 108c-11 21 -18 26 -30 26c-9 -1 -17 -1 -31 0c-12 0 -16 -8 -16 -21v-129c0 -67 44 -47 44 -86c0 -13 -11 -25 -29 -25c-17 0 -37 3 -81 3s-61 -3 -79 -3zM206 356c0 -17 2 -35 51 -35c68 0 108 41 108 151
c0 118 -50 179 -113 179c-36 0 -46 -14 -46 -50v-245zM219 -97c0 35 27 58 66 58c41 0 66 -26 66 -74c0 -75 -63 -145 -101 -145c-13 0 -22 8 -22 19s8 17 18 24c13 11 24 25 24 42c0 15 -10 21 -27 32c-15 9 -24 23 -24 44z" />
    <glyph glyph-name="uni0157" unicode="&#x157;" horiz-adv-x="391" 
d="M59 -2c-19 0 -28 14 -28 24c0 40 41 14 41 92v232c0 62 -46 31 -46 72c0 20 20 30 75 59c37 20 57 30 68 30c21 0 24 -24 24 -42v-92c20 83 71 139 122 139c41 0 71 -26 71 -57c0 -22 -8 -47 -27 -102c-7 -18 -15 -27 -28 -27c-12 0 -21 9 -28 28c-11 28 -23 51 -46 51
c-26 0 -64 -69 -64 -201v-90c0 -78 49 -48 49 -92c0 -10 -7 -24 -26 -24s-40 3 -83 3c-40 0 -57 -3 -74 -3zM73 -97c0 35 27 58 66 58c41 0 66 -26 66 -74c0 -75 -63 -145 -101 -145c-13 0 -22 8 -22 19s8 17 18 24c13 11 24 25 24 42c0 15 -10 21 -27 32
c-15 9 -24 23 -24 44z" />
    <glyph glyph-name="Rcaron" unicode="&#x158;" horiz-adv-x="561" 
d="M61 -2c-19 0 -30 12 -30 25c0 39 43 19 43 86v494c0 69 -43 47 -43 86c0 13 10 25 34 25c11 0 39 -3 67 -3s84 7 127 7c159 0 249 -98 249 -236c0 -95 -39 -170 -110 -202l76 -152c40 -80 83 -68 83 -106c0 -14 -12 -24 -26 -24c-21 0 -54 3 -94 3c-33 0 -62 -3 -81 -3
c-20 0 -31 9 -31 25c0 27 26 25 26 58c0 14 -7 28 -15 44l-53 108c-11 21 -18 26 -30 26c-9 -1 -17 -1 -31 0c-12 0 -16 -8 -16 -21v-129c0 -67 44 -47 44 -86c0 -13 -11 -25 -29 -25c-17 0 -37 3 -81 3s-61 -3 -79 -3zM144 925c0 13 10 22 26 22c11 0 22 -6 34 -22l61 -80
l60 80c14 18 25 22 34 22c16 0 25 -9 25 -22c0 -9 -2 -15 -9 -28c-20 -40 -34 -66 -57 -104c-11 -19 -21 -27 -54 -27c-32 0 -42 7 -54 28c-19 32 -42 71 -56 102c-7 13 -10 19 -10 29zM206 356c0 -17 2 -35 51 -35c68 0 108 41 108 151c0 118 -50 179 -113 179
c-36 0 -46 -14 -46 -50v-245z" />
    <glyph glyph-name="rcaron" unicode="&#x159;" horiz-adv-x="391" 
d="M59 -2c-19 0 -28 14 -28 24c0 40 41 14 41 92v232c0 62 -46 31 -46 72c0 20 20 30 75 59c37 20 57 30 68 30c21 0 24 -24 24 -42v-92c20 83 71 139 122 139c41 0 71 -26 71 -57c0 -22 -8 -47 -27 -102c-7 -18 -15 -27 -28 -27c-12 0 -21 9 -28 28c-11 28 -23 51 -46 51
c-26 0 -64 -69 -64 -201v-90c0 -78 49 -48 49 -92c0 -10 -7 -24 -26 -24s-40 3 -83 3c-40 0 -57 -3 -74 -3zM103 739c0 13 10 22 26 22c11 0 22 -6 34 -22l61 -80l60 80c14 18 25 22 34 22c16 0 25 -9 25 -22c0 -9 -2 -15 -9 -28c-20 -40 -34 -66 -57 -104
c-11 -19 -21 -27 -54 -27c-32 0 -42 7 -54 28c-19 32 -42 71 -56 102c-7 13 -10 19 -10 29z" />
    <glyph glyph-name="Sacute" unicode="&#x15a;" horiz-adv-x="506" 
d="M108 -21c-19 0 -26 17 -33 38l-32 97c-15 45 -25 72 -25 89c0 19 13 31 26 31c19 0 26 -14 35 -28c48 -74 110 -148 186 -148c53 0 94 37 94 100s-39 103 -129 155c-86 50 -195 116 -195 237c0 104 82 178 177 178c50 0 79 -20 93 -20c17 0 19 28 43 28
c23 0 29 -24 46 -61l20 -47c20 -46 31 -76 31 -91c0 -13 -11 -24 -23 -24c-14 0 -22 9 -37 29c-51 65 -91 115 -148 115c-46 0 -75 -36 -75 -78c0 -50 35 -82 110 -127c112 -67 215 -135 215 -260c0 -127 -93 -207 -202 -207c-64 0 -104 27 -124 27c-21 0 -24 -33 -53 -33z
M181 771c0 7 4 17 7 25c15 39 37 86 54 121c10 19 22 24 54 24c42 0 50 -6 50 -23c0 -13 -9 -24 -30 -50c-20 -25 -47 -67 -74 -93c-14 -16 -24 -20 -38 -20c-15 0 -23 7 -23 16z" />
    <glyph glyph-name="sacute" unicode="&#x15b;" horiz-adv-x="410" 
d="M94 -18c-19 0 -27 20 -33 38l-23 68c-12 34 -18 52 -18 64c0 16 12 25 24 25c13 0 22 -12 29 -21c42 -58 86 -106 143 -106c37 0 63 24 63 57c0 44 -39 64 -101 95c-74 38 -145 76 -145 169c0 82 61 138 135 138c45 0 72 -18 84 -18c11 0 17 20 35 20s26 -17 34 -36
l26 -57c10 -23 18 -44 18 -53c0 -14 -10 -22 -20 -22c-12 0 -20 8 -31 20c-44 49 -83 79 -120 79c-29 0 -50 -19 -50 -49c0 -38 37 -54 93 -85c77 -42 153 -76 153 -176c0 -94 -78 -145 -158 -145c-48 0 -81 20 -97 20c-20 0 -17 -25 -41 -25zM150 583c0 7 4 17 7 25
c15 39 37 86 54 121c10 19 22 24 54 24c42 0 50 -6 50 -23c0 -13 -9 -24 -30 -50c-20 -25 -47 -67 -74 -93c-14 -16 -24 -20 -38 -20c-15 0 -23 7 -23 16z" />
    <glyph glyph-name="Scircumflex" unicode="&#x15c;" horiz-adv-x="506" 
d="M108 -21c-19 0 -26 17 -33 38l-32 97c-15 45 -25 72 -25 89c0 19 13 31 26 31c19 0 26 -14 35 -28c48 -74 110 -148 186 -148c53 0 94 37 94 100s-39 103 -129 155c-86 50 -195 116 -195 237c0 104 82 178 177 178c50 0 79 -20 93 -20c17 0 19 28 43 28
c23 0 29 -24 46 -61l20 -47c20 -46 31 -76 31 -91c0 -13 -11 -24 -23 -24c-14 0 -22 9 -37 29c-51 65 -91 115 -148 115c-46 0 -75 -36 -75 -78c0 -50 35 -82 110 -127c112 -67 215 -135 215 -260c0 -127 -93 -207 -202 -207c-64 0 -104 27 -124 27c-21 0 -24 -33 -53 -33z
M104 784c0 9 2 15 9 28c20 40 34 66 57 104c11 19 21 27 54 27c32 0 42 -7 54 -28c19 -32 42 -71 56 -102c7 -13 10 -19 10 -29c0 -13 -10 -22 -26 -22c-11 0 -22 6 -34 22l-60 80l-61 -80c-14 -18 -25 -22 -34 -22c-16 0 -25 9 -25 22z" />
    <glyph glyph-name="scircumflex" unicode="&#x15d;" horiz-adv-x="410" 
d="M94 -18c-19 0 -27 20 -33 38l-23 68c-12 34 -18 52 -18 64c0 16 12 25 24 25c13 0 22 -12 29 -21c42 -58 86 -106 143 -106c37 0 63 24 63 57c0 44 -39 64 -101 95c-74 38 -145 76 -145 169c0 82 61 138 135 138c45 0 72 -18 84 -18c11 0 17 20 35 20s26 -17 34 -36
l26 -57c10 -23 18 -44 18 -53c0 -14 -10 -22 -20 -22c-12 0 -20 8 -31 20c-44 49 -83 79 -120 79c-29 0 -50 -19 -50 -49c0 -38 37 -54 93 -85c77 -42 153 -76 153 -176c0 -94 -78 -145 -158 -145c-48 0 -81 20 -97 20c-20 0 -17 -25 -41 -25zM74 596c0 9 2 15 9 28
c20 40 34 66 57 104c11 19 21 27 54 27c32 0 42 -7 54 -28c19 -32 42 -71 56 -102c7 -13 10 -19 10 -29c0 -13 -10 -22 -26 -22c-11 0 -22 6 -34 22l-60 80l-61 -80c-14 -18 -25 -22 -34 -22c-16 0 -25 9 -25 22z" />
    <glyph glyph-name="Scedilla" unicode="&#x15e;" horiz-adv-x="506" 
d="M108 -21c-19 0 -26 17 -33 38l-32 97c-15 45 -25 72 -25 89c0 19 13 31 26 31c19 0 26 -14 35 -28c48 -74 110 -148 186 -148c53 0 94 37 94 100s-39 103 -129 155c-86 50 -195 116 -195 237c0 104 82 178 177 178c50 0 79 -20 93 -20c17 0 19 28 43 28
c23 0 29 -24 46 -61l20 -47c20 -46 31 -76 31 -91c0 -13 -11 -24 -23 -24c-14 0 -22 9 -37 29c-51 65 -91 115 -148 115c-46 0 -75 -36 -75 -78c0 -50 35 -82 110 -127c112 -67 215 -135 215 -260c0 -127 -93 -207 -202 -207c-9 0 -17 0 -24 1l-8 -35c8 3 17 4 25 4
c43 0 74 -32 74 -74c0 -48 -35 -81 -86 -81c-28 0 -54 6 -71 20c-8 7 -13 14 -13 24s7 20 18 20c6 0 10 -2 17 -6c13 -6 27 -14 43 -14c20 0 30 13 30 30s-9 27 -26 27c-11 0 -22 -5 -33 -10c-8 3 -23 18 -27 29l17 74c-28 8 -48 18 -60 18c-21 0 -24 -33 -53 -33z" />
    <glyph glyph-name="scedilla" unicode="&#x15f;" horiz-adv-x="410" 
d="M94 -18c-19 0 -27 20 -33 38l-23 68c-12 34 -18 52 -18 64c0 16 12 25 24 25c13 0 22 -12 29 -21c42 -58 86 -106 143 -106c37 0 63 24 63 57c0 44 -39 64 -101 95c-74 38 -145 76 -145 169c0 82 61 138 135 138c45 0 72 -18 84 -18c11 0 17 20 35 20s26 -17 34 -36
l26 -57c10 -23 18 -44 18 -53c0 -14 -10 -22 -20 -22c-12 0 -20 8 -31 20c-44 49 -83 79 -120 79c-29 0 -50 -19 -50 -49c0 -38 37 -54 93 -85c77 -42 153 -76 153 -176c0 -94 -78 -145 -158 -145h-13l-8 -36c8 3 17 4 25 4c43 0 74 -32 74 -74c0 -48 -35 -81 -86 -81
c-28 0 -54 6 -71 20c-8 7 -13 14 -13 24s7 20 18 20c6 0 10 -2 17 -6c13 -6 27 -14 43 -14c20 0 30 13 30 30s-9 27 -26 27c-11 0 -22 -5 -33 -10c-8 3 -23 18 -27 29l17 75c-20 5 -35 12 -44 12c-20 0 -17 -25 -41 -25z" />
    <glyph glyph-name="Scaron" unicode="&#x160;" horiz-adv-x="506" 
d="M108 -21c-19 0 -26 17 -33 38l-32 97c-15 45 -25 72 -25 89c0 19 13 31 26 31c19 0 26 -14 35 -28c48 -74 110 -148 186 -148c53 0 94 37 94 100s-39 103 -129 155c-86 50 -195 116 -195 237c0 104 82 178 177 178c50 0 79 -20 93 -20c17 0 19 28 43 28
c23 0 29 -24 46 -61l20 -47c20 -46 31 -76 31 -91c0 -13 -11 -24 -23 -24c-14 0 -22 9 -37 29c-51 65 -91 115 -148 115c-46 0 -75 -36 -75 -78c0 -50 35 -82 110 -127c112 -67 215 -135 215 -260c0 -127 -93 -207 -202 -207c-64 0 -104 27 -124 27c-21 0 -24 -33 -53 -33z
M103 927c0 13 10 22 26 22c11 0 22 -6 34 -22l61 -80l60 80c14 18 25 22 34 22c16 0 25 -9 25 -22c0 -9 -2 -15 -9 -28c-20 -40 -34 -66 -57 -104c-11 -19 -21 -27 -54 -27c-32 0 -42 7 -54 28c-19 32 -42 71 -56 102c-7 13 -10 19 -10 29z" />
    <glyph glyph-name="scaron" unicode="&#x161;" horiz-adv-x="410" 
d="M94 -18c-19 0 -27 20 -33 38l-23 68c-12 34 -18 52 -18 64c0 16 12 25 24 25c13 0 22 -12 29 -21c42 -58 86 -106 143 -106c37 0 63 24 63 57c0 44 -39 64 -101 95c-74 38 -145 76 -145 169c0 82 61 138 135 138c45 0 72 -18 84 -18c11 0 17 20 35 20s26 -17 34 -36
l26 -57c10 -23 18 -44 18 -53c0 -14 -10 -22 -20 -22c-12 0 -20 8 -31 20c-44 49 -83 79 -120 79c-29 0 -50 -19 -50 -49c0 -38 37 -54 93 -85c77 -42 153 -76 153 -176c0 -94 -78 -145 -158 -145c-48 0 -81 20 -97 20c-20 0 -17 -25 -41 -25zM73 739c0 13 10 22 26 22
c11 0 22 -6 34 -22l61 -80l60 80c14 18 25 22 34 22c16 0 25 -9 25 -22c0 -9 -2 -15 -9 -28c-20 -40 -34 -66 -57 -104c-11 -19 -21 -27 -54 -27c-32 0 -42 7 -54 28c-19 32 -42 71 -56 102c-7 13 -10 19 -10 29z" />
    <glyph glyph-name="uni0162" unicode="&#x162;" horiz-adv-x="552" 
d="M186 -2c-19 0 -30 12 -30 26c0 42 54 19 54 86v492c0 32 -11 43 -33 43h-9c-40 0 -64 -38 -112 -115c-8 -13 -19 -25 -33 -25c-13 0 -25 10 -25 28c0 15 6 35 17 69l25 83c12 36 23 50 40 50c25 0 28 -23 55 -23h282c26 0 29 23 54 23c17 0 29 -14 40 -50l26 -83
c10 -34 16 -54 16 -69c0 -18 -12 -28 -24 -28c-14 0 -25 12 -34 25c-48 77 -71 115 -111 115h-10c-21 0 -32 -11 -32 -43v-492c0 -67 53 -44 53 -86c0 -14 -10 -26 -29 -26c-18 0 -43 3 -91 3c-47 0 -70 -3 -89 -3zM198 -97c0 35 27 58 66 58c41 0 66 -26 66 -74
c0 -75 -63 -145 -101 -145c-13 0 -22 8 -22 19s8 17 18 24c13 11 24 25 24 42c0 15 -10 21 -27 32c-15 9 -24 23 -24 44z" />
    <glyph glyph-name="uni0163" unicode="&#x163;" horiz-adv-x="318" 
d="M181 -12c-64 0 -114 47 -114 101c0 21 4 91 4 160v186h-34c-16 0 -29 11 -29 28c0 16 9 24 27 35c44 27 72 68 99 147c13 33 21 41 35 41c13 0 23 -9 23 -31v-155h91c13 0 20 -6 20 -20c0 -8 -1 -18 -3 -25c-3 -14 -10 -20 -21 -20h-87v-289c0 -60 14 -76 34 -76
c19 0 30 16 43 32c5 6 13 14 22 14c13 0 21 -10 21 -24c0 -13 -8 -30 -19 -46c-24 -35 -58 -58 -112 -58zM120 -97c0 35 27 58 66 58c41 0 66 -26 66 -74c0 -75 -63 -145 -101 -145c-13 0 -22 8 -22 19s8 17 18 24c13 11 24 25 24 42c0 15 -10 21 -27 32
c-15 9 -24 23 -24 44z" />
    <glyph glyph-name="Tcaron" unicode="&#x164;" horiz-adv-x="552" 
d="M186 -2c-19 0 -30 12 -30 26c0 42 54 19 54 86v492c0 32 -11 43 -33 43h-9c-40 0 -64 -38 -112 -115c-8 -13 -19 -25 -33 -25c-13 0 -25 10 -25 28c0 15 6 35 17 69l25 83c12 36 23 50 40 50c25 0 28 -23 55 -23h282c26 0 29 23 54 23c17 0 29 -14 40 -50l26 -83
c10 -34 16 -54 16 -69c0 -18 -12 -28 -24 -28c-14 0 -25 12 -34 25c-48 77 -71 115 -111 115h-10c-21 0 -32 -11 -32 -43v-492c0 -67 53 -44 53 -86c0 -14 -10 -26 -29 -26c-18 0 -43 3 -91 3c-47 0 -70 -3 -89 -3zM140 925c0 13 10 22 26 22c11 0 22 -6 34 -22l61 -80
l60 80c14 18 25 22 34 22c16 0 25 -9 25 -22c0 -9 -2 -15 -9 -28c-20 -40 -34 -66 -57 -104c-11 -19 -21 -27 -54 -27c-32 0 -42 7 -54 28c-19 32 -42 71 -56 102c-7 13 -10 19 -10 29z" />
    <glyph glyph-name="tcaron" unicode="&#x165;" horiz-adv-x="318" 
d="M181 -12c-64 0 -114 47 -114 101c0 21 4 91 4 160v186h-34c-16 0 -29 11 -29 28c0 16 9 24 27 35c44 27 72 68 99 147c13 33 21 41 35 41c13 0 23 -9 23 -31v-155h91c13 0 20 -6 20 -20c0 -8 -1 -18 -3 -25c-3 -14 -10 -20 -21 -20h-87v-289c0 -60 14 -76 34 -76
c19 0 30 16 43 32c5 6 13 14 22 14c13 0 21 -10 21 -24c0 -13 -8 -30 -19 -46c-24 -35 -58 -58 -112 -58zM244 591v210c0 20 7 33 34 33c35 0 52 -11 52 -33c0 -52 -16 -154 -30 -208c-4 -16 -17 -27 -31 -27c-15 0 -25 8 -25 25z" />
    <glyph glyph-name="Tbar" unicode="&#x166;" horiz-adv-x="554" 
d="M137 312c-20 0 -29 8 -29 32c0 22 9 32 29 32h74v226c0 32 -11 43 -33 43h-9c-40 0 -64 -38 -112 -115c-8 -13 -19 -25 -33 -25c-13 0 -25 10 -25 28c0 15 6 35 17 69l25 83c12 36 23 50 40 50c25 0 28 -23 55 -23h282c26 0 29 23 54 23c17 0 29 -14 40 -50l26 -83
c10 -34 16 -54 16 -69c0 -18 -12 -28 -24 -28c-14 0 -25 12 -34 25c-48 77 -71 115 -111 115h-10c-21 0 -32 -11 -32 -43v-226h76c20 0 29 -10 29 -32c0 -24 -9 -32 -29 -32h-76v-202c0 -67 53 -44 53 -86c0 -14 -10 -26 -29 -26c-18 0 -43 3 -91 3c-47 0 -70 -3 -89 -3
s-30 12 -30 26c0 42 54 19 54 86v202h-74z" />
    <glyph glyph-name="tbar" unicode="&#x167;" horiz-adv-x="322" 
d="M38 237c-20 0 -30 8 -30 30s10 30 30 30h36v138h-34c-16 0 -29 11 -29 28c0 16 9 24 27 35c44 27 72 68 99 147c13 33 21 41 35 41c13 0 23 -9 23 -31v-155h91c13 0 20 -6 20 -20c0 -8 -1 -18 -3 -25c-3 -14 -10 -20 -21 -20h-87v-138h63c21 0 30 -8 30 -30
c0 -21 -10 -30 -30 -30h-63v-91c0 -60 14 -76 34 -76c19 0 30 16 43 32c5 6 13 14 22 14c13 0 21 -10 21 -24c0 -13 -8 -30 -19 -46c-24 -35 -58 -58 -112 -58c-64 0 -114 47 -114 101c0 20 4 83 4 148h-36z" />
    <glyph glyph-name="Utilde" unicode="&#x168;" horiz-adv-x="536" 
d="M274 -14c-130 0 -222 68 -222 204c0 27 1 49 2 68l15 312c1 19 2 34 2 42c0 34 -13 41 -24 49c-9 6 -18 11 -18 28c0 12 8 25 29 25c18 0 36 -3 80 -3c43 0 67 3 83 3c21 0 30 -12 30 -25c0 -15 -10 -24 -19 -30c-12 -8 -26 -19 -28 -56l-17 -350c0 -7 -2 -36 -2 -57
c0 -80 39 -124 109 -125c64 0 113 38 113 124c0 15 -1 42 -2 63l-16 345c-2 37 -19 45 -34 53c-13 7 -26 12 -26 32c0 13 10 26 28 26c17 0 45 -3 67 -3c17 0 38 3 57 3c18 0 28 -12 28 -25c0 -17 -10 -23 -19 -28c-12 -8 -27 -16 -27 -49c0 -9 1 -24 2 -42l17 -319
c1 -7 3 -41 3 -65c0 -137 -95 -200 -211 -200zM147 805c0 6 1 18 6 36c11 42 33 81 73 81c52 0 75 -77 100 -77c11 0 18 11 26 35c6 18 14 34 28 34c16 0 24 -10 24 -26c0 -8 -2 -22 -6 -37c-11 -45 -35 -81 -74 -81c-53 0 -79 76 -99 76c-11 0 -18 -11 -26 -33
c-8 -23 -15 -35 -28 -35c-15 0 -24 9 -24 27z" />
    <glyph glyph-name="utilde" unicode="&#x169;" horiz-adv-x="501" 
d="M188 -13c-72 0 -123 58 -123 163v200c0 63 -51 42 -51 80c0 20 18 30 78 54c48 19 59 23 70 23c20 0 25 -23 25 -43v-278c0 -69 15 -105 56 -105c33 0 69 34 69 125v144c0 63 -59 40 -59 80c0 20 20 29 87 55c43 16 59 22 69 22c24 0 24 -30 24 -43v-323
c0 -63 55 -51 55 -86c0 -23 -19 -32 -84 -49c-39 -10 -54 -14 -66 -14c-18 0 -26 18 -26 36v55c-24 -59 -65 -96 -124 -96zM115 619c0 6 1 18 6 36c11 42 33 81 73 81c52 0 75 -77 100 -77c11 0 18 11 26 35c6 18 14 34 28 34c16 0 24 -10 24 -26c0 -8 -2 -22 -6 -37
c-11 -45 -35 -81 -74 -81c-53 0 -79 76 -99 76c-11 0 -18 -11 -26 -33c-8 -23 -15 -35 -28 -35c-15 0 -24 9 -24 27z" />
    <glyph glyph-name="Umacron" unicode="&#x16a;" horiz-adv-x="536" 
d="M274 -14c-130 0 -222 68 -222 204c0 27 1 49 2 68l15 312c1 19 2 34 2 42c0 34 -13 41 -24 49c-9 6 -18 11 -18 28c0 12 8 25 29 25c18 0 36 -3 80 -3c43 0 67 3 83 3c21 0 30 -12 30 -25c0 -15 -10 -24 -19 -30c-12 -8 -26 -19 -28 -56l-17 -350c0 -7 -2 -36 -2 -57
c0 -80 39 -124 109 -125c64 0 113 38 113 124c0 15 -1 42 -2 63l-16 345c-2 37 -19 45 -34 53c-13 7 -26 12 -26 32c0 13 10 26 28 26c17 0 45 -3 67 -3c17 0 38 3 57 3c18 0 28 -12 28 -25c0 -17 -10 -23 -19 -28c-12 -8 -27 -16 -27 -49c0 -9 1 -24 2 -42l17 -319
c1 -7 3 -41 3 -65c0 -137 -95 -200 -211 -200zM158 843c0 27 7 39 24 39l93 -1c28 0 68 1 94 1c17 0 24 -15 24 -39c0 -23 -7 -39 -24 -39c-27 0 -66 2 -93 2c-28 0 -68 -2 -94 -2c-17 0 -24 15 -24 39z" />
    <glyph glyph-name="umacron" unicode="&#x16b;" horiz-adv-x="501" 
d="M188 -13c-72 0 -123 58 -123 163v200c0 63 -51 42 -51 80c0 20 18 30 78 54c48 19 59 23 70 23c20 0 25 -23 25 -43v-278c0 -69 15 -105 56 -105c33 0 69 34 69 125v144c0 63 -59 40 -59 80c0 20 20 29 87 55c43 16 59 22 69 22c24 0 24 -30 24 -43v-323
c0 -63 55 -51 55 -86c0 -23 -19 -32 -84 -49c-39 -10 -54 -14 -66 -14c-18 0 -26 18 -26 36v55c-24 -59 -65 -96 -124 -96zM126 657c0 27 7 39 24 39l93 -1c28 0 68 1 94 1c17 0 24 -15 24 -39c0 -23 -7 -39 -24 -39c-27 0 -66 2 -93 2c-28 0 -68 -2 -94 -2
c-17 0 -24 15 -24 39z" />
    <glyph glyph-name="Ubreve" unicode="&#x16c;" horiz-adv-x="536" 
d="M274 -14c-130 0 -222 68 -222 204c0 27 1 49 2 68l15 312c1 19 2 34 2 42c0 34 -13 41 -24 49c-9 6 -18 11 -18 28c0 12 8 25 29 25c18 0 36 -3 80 -3c43 0 67 3 83 3c21 0 30 -12 30 -25c0 -15 -10 -24 -19 -30c-12 -8 -26 -19 -28 -56l-17 -350c0 -7 -2 -36 -2 -57
c0 -80 39 -124 109 -125c64 0 113 38 113 124c0 15 -1 42 -2 63l-16 345c-2 37 -19 45 -34 53c-13 7 -26 12 -26 32c0 13 10 26 28 26c17 0 45 -3 67 -3c17 0 38 3 57 3c18 0 28 -12 28 -25c0 -17 -10 -23 -19 -28c-12 -8 -27 -16 -27 -49c0 -9 1 -24 2 -42l17 -319
c1 -7 3 -41 3 -65c0 -137 -95 -200 -211 -200zM155 909c0 16 10 29 27 29c16 0 24 -16 34 -40c16 -39 31 -57 60 -57s42 20 57 57c9 21 20 40 38 40c17 0 25 -13 25 -29c0 -13 -2 -27 -8 -44c-22 -67 -58 -103 -112 -103c-55 0 -97 36 -116 107c-3 14 -5 27 -5 40z" />
    <glyph glyph-name="ubreve" unicode="&#x16d;" horiz-adv-x="501" 
d="M188 -13c-72 0 -123 58 -123 163v200c0 63 -51 42 -51 80c0 20 18 30 78 54c48 19 59 23 70 23c20 0 25 -23 25 -43v-278c0 -69 15 -105 56 -105c33 0 69 34 69 125v144c0 63 -59 40 -59 80c0 20 20 29 87 55c43 16 59 22 69 22c24 0 24 -30 24 -43v-323
c0 -63 55 -51 55 -86c0 -23 -19 -32 -84 -49c-39 -10 -54 -14 -66 -14c-18 0 -26 18 -26 36v55c-24 -59 -65 -96 -124 -96zM123 723c0 16 10 29 27 29c16 0 24 -16 34 -40c16 -39 31 -57 60 -57s42 20 57 57c9 21 20 40 38 40c17 0 25 -13 25 -29c0 -13 -2 -27 -8 -44
c-22 -67 -58 -103 -112 -103c-55 0 -97 36 -116 107c-3 14 -5 27 -5 40z" />
    <glyph glyph-name="Uring" unicode="&#x16e;" horiz-adv-x="536" 
d="M274 -14c-130 0 -222 68 -222 204c0 27 1 49 2 68l15 312c1 19 2 34 2 42c0 34 -13 41 -24 49c-9 6 -18 11 -18 28c0 12 8 25 29 25c18 0 36 -3 80 -3c43 0 67 3 83 3c21 0 30 -12 30 -25c0 -15 -10 -24 -19 -30c-12 -8 -26 -19 -28 -56l-17 -350c0 -7 -2 -36 -2 -57
c0 -80 39 -124 109 -125c64 0 113 38 113 124c0 15 -1 42 -2 63l-16 345c-2 37 -19 45 -34 53c-13 7 -26 12 -26 32c0 13 10 26 28 26c17 0 45 -3 67 -3c17 0 38 3 57 3c18 0 28 -12 28 -25c0 -17 -10 -23 -19 -28c-12 -8 -27 -16 -27 -49c0 -9 1 -24 2 -42l17 -319
c1 -7 3 -41 3 -65c0 -137 -95 -200 -211 -200zM177 848c0 65 37 102 101 102c62 0 97 -35 97 -98c0 -69 -35 -108 -100 -108s-98 37 -98 104zM239 845c0 -36 13 -57 36 -57c26 0 38 20 38 61c0 37 -13 58 -36 58c-25 0 -38 -20 -38 -62z" />
    <glyph glyph-name="uring" unicode="&#x16f;" horiz-adv-x="501" 
d="M188 -13c-72 0 -123 58 -123 163v200c0 63 -51 42 -51 80c0 20 18 30 78 54c48 19 59 23 70 23c20 0 25 -23 25 -43v-278c0 -69 15 -105 56 -105c33 0 69 34 69 125v144c0 63 -59 40 -59 80c0 20 20 29 87 55c43 16 59 22 69 22c24 0 24 -30 24 -43v-323
c0 -63 55 -51 55 -86c0 -23 -19 -32 -84 -49c-39 -10 -54 -14 -66 -14c-18 0 -26 18 -26 36v55c-24 -59 -65 -96 -124 -96zM145 662c0 65 37 102 101 102c62 0 97 -35 97 -98c0 -69 -35 -108 -100 -108s-98 37 -98 104zM207 659c0 -36 13 -57 36 -57c26 0 38 20 38 61
c0 37 -13 58 -36 58c-25 0 -38 -20 -38 -62z" />
    <glyph glyph-name="Uhungarumlaut" unicode="&#x170;" horiz-adv-x="536" 
d="M274 -14c-130 0 -222 68 -222 204c0 27 1 49 2 68l15 312c1 19 2 34 2 42c0 34 -13 41 -24 49c-9 6 -18 11 -18 28c0 12 8 25 29 25c18 0 36 -3 80 -3c43 0 67 3 83 3c21 0 30 -12 30 -25c0 -15 -10 -24 -19 -30c-12 -8 -26 -19 -28 -56l-17 -350c0 -7 -2 -36 -2 -57
c0 -80 39 -124 109 -125c64 0 113 38 113 124c0 15 -1 42 -2 63l-16 345c-2 37 -19 45 -34 53c-13 7 -26 12 -26 32c0 13 10 26 28 26c17 0 45 -3 67 -3c17 0 38 3 57 3c18 0 28 -12 28 -25c0 -17 -10 -23 -19 -28c-12 -8 -27 -16 -27 -49c0 -9 1 -24 2 -42l17 -319
c1 -7 3 -41 3 -65c0 -137 -95 -200 -211 -200zM193 765c0 8 4 17 7 28c10 36 29 94 39 122c7 21 19 26 43 26c26 0 41 -6 41 -23s-10 -30 -22 -51c-23 -41 -34 -60 -56 -97c-11 -18 -21 -23 -34 -23c-11 0 -18 8 -18 18zM312 765c0 7 3 18 7 29c10 32 25 83 39 122
c7 19 17 25 43 25s41 -6 41 -23c0 -15 -6 -24 -21 -51c-19 -33 -35 -60 -57 -97c-11 -18 -22 -23 -35 -23c-12 0 -17 8 -17 18z" />
    <glyph glyph-name="uhungarumlaut" unicode="&#x171;" horiz-adv-x="501" 
d="M188 -13c-72 0 -123 58 -123 163v200c0 63 -51 42 -51 80c0 20 18 30 78 54c48 19 59 23 70 23c20 0 25 -23 25 -43v-278c0 -69 15 -105 56 -105c33 0 69 34 69 125v144c0 63 -59 40 -59 80c0 20 20 29 87 55c43 16 59 22 69 22c24 0 24 -30 24 -43v-323
c0 -63 55 -51 55 -86c0 -23 -19 -32 -84 -49c-39 -10 -54 -14 -66 -14c-18 0 -26 18 -26 36v55c-24 -59 -65 -96 -124 -96zM161 579c0 8 4 17 7 28c10 36 29 94 39 122c7 21 19 26 43 26c26 0 41 -6 41 -23s-10 -30 -22 -51c-23 -41 -34 -60 -56 -97
c-11 -18 -21 -23 -34 -23c-11 0 -18 8 -18 18zM280 579c0 7 3 18 7 29c10 32 25 83 39 122c7 19 17 25 43 25s41 -6 41 -23c0 -15 -6 -24 -21 -51c-19 -33 -35 -60 -57 -97c-11 -18 -22 -23 -35 -23c-12 0 -17 8 -17 18z" />
    <glyph glyph-name="Uogonek" unicode="&#x172;" horiz-adv-x="536" 
d="M281 -200c-38 0 -72 28 -72 78c0 37 19 74 48 108c-121 6 -205 74 -205 204c0 27 1 49 2 68l15 312c1 19 2 34 2 42c0 34 -13 41 -24 49c-9 6 -18 11 -18 28c0 12 8 25 29 25c18 0 36 -3 80 -3c43 0 67 3 83 3c21 0 30 -12 30 -25c0 -15 -10 -24 -19 -30
c-12 -8 -26 -19 -28 -56l-17 -350c0 -7 -2 -36 -2 -57c0 -80 39 -124 109 -125c64 0 113 38 113 124c0 15 -1 42 -2 63l-16 345c-2 37 -19 45 -34 53c-13 7 -26 12 -26 32c0 13 10 26 28 26c17 0 45 -3 67 -3c17 0 38 3 57 3c18 0 28 -12 28 -25c0 -17 -10 -23 -19 -28
c-12 -8 -27 -16 -27 -49c0 -9 1 -24 2 -42l17 -319c1 -7 3 -41 3 -65c0 -122 -75 -185 -173 -198c-19 -29 -34 -60 -34 -95c0 -25 9 -38 24 -38c6 0 11 1 18 6c4 4 8 6 14 6c8 0 16 -7 16 -17s-5 -19 -13 -27c-16 -16 -36 -23 -56 -23z" />
    <glyph glyph-name="uogonek" unicode="&#x173;" horiz-adv-x="501" 
d="M188 -13c-72 0 -123 58 -123 163v200c0 63 -51 42 -51 80c0 20 18 30 78 54c48 19 59 23 70 23c20 0 25 -23 25 -43v-278c0 -69 15 -105 56 -105c33 0 69 34 69 125v144c0 63 -59 40 -59 80c0 20 20 29 87 55c43 16 59 22 69 22c24 0 24 -30 24 -43v-323
c0 -63 55 -51 55 -86c0 -23 -19 -32 -84 -49l-39 -10c-21 -32 -39 -65 -39 -103c0 -25 9 -38 24 -38c6 0 11 1 18 6c4 4 8 6 14 6c8 0 16 -7 16 -17s-5 -19 -13 -27c-16 -16 -36 -23 -56 -23c-38 0 -72 28 -72 78c0 43 25 85 62 124c-5 7 -7 17 -7 26v55
c-24 -59 -65 -96 -124 -96z" />
    <glyph glyph-name="Wcircumflex" unicode="&#x174;" horiz-adv-x="815" 
d="M559 -11c-50 0 -59 13 -64 36l-87 362l-85 -361c-6 -25 -20 -37 -67 -37c-52 0 -57 16 -63 37l-140 576c-16 67 -56 51 -56 89c0 14 12 23 28 23c20 0 42 -3 87 -3c42 0 57 3 81 3c20 0 31 -8 31 -25c0 -33 -37 -26 -37 -66c0 -12 4 -32 9 -55l92 -395l84 361l-16 68
c-16 65 -49 53 -49 88c0 15 13 24 27 24c21 0 39 -3 85 -3s63 3 86 3c19 0 30 -8 30 -25c0 -35 -47 -26 -47 -66c0 -10 4 -31 9 -55l92 -395l87 389c8 35 10 49 10 61c0 40 -51 31 -51 66c0 15 11 25 30 25c23 0 44 -3 64 -3s43 3 61 3c19 0 29 -9 29 -22
c0 -39 -44 -22 -59 -88l-136 -578c-5 -23 -16 -37 -65 -37zM300 781c0 9 2 15 9 28c20 40 34 66 57 104c11 19 21 27 54 27c32 0 42 -7 54 -28c19 -32 42 -71 56 -102c7 -13 10 -19 10 -29c0 -13 -10 -22 -26 -22c-11 0 -22 6 -34 22l-60 80l-61 -80
c-14 -18 -25 -22 -34 -22c-16 0 -25 9 -25 22z" />
    <glyph glyph-name="wcircumflex" unicode="&#x175;" horiz-adv-x="691" 
d="M471 -7c-51 0 -57 17 -64 40l-58 221l-59 -221c-5 -20 -12 -40 -68 -40c-47 0 -57 14 -65 40l-103 357c-20 67 -54 53 -54 88c0 15 13 24 26 24c18 0 45 -3 85 -3c31 0 50 3 69 3c21 0 32 -9 32 -24c0 -34 -29 -25 -29 -71c0 -10 4 -33 9 -54l61 -231l67 244l-7 25
c-18 67 -49 52 -49 87c0 15 13 24 26 24c17 0 41 -3 81 -3c34 0 59 3 79 3s32 -9 32 -24c0 -35 -36 -30 -38 -71c-2 -15 1 -29 7 -54l50 -227l56 227c7 29 11 45 11 57c0 43 -37 33 -37 68c0 15 12 24 31 24c16 0 32 -3 52 -3c18 0 38 3 52 3c13 0 25 -9 25 -24
c0 -35 -37 -22 -54 -88l-97 -357c-7 -23 -14 -40 -69 -40zM251 597c0 9 2 15 9 28c20 40 34 66 57 104c11 19 21 27 54 27c32 0 42 -7 54 -28c19 -32 42 -71 56 -102c7 -13 10 -19 10 -29c0 -13 -10 -22 -26 -22c-11 0 -22 6 -34 22l-60 80l-61 -80c-14 -18 -25 -22 -34 -22
c-16 0 -25 9 -25 22z" />
    <glyph glyph-name="Ycircumflex" unicode="&#x176;" horiz-adv-x="524" 
d="M171 -2c-20 0 -29 12 -29 26c0 43 53 17 53 86v169l-138 336c-21 50 -50 44 -50 76c0 14 11 23 27 23c18 0 41 -3 84 -3c39 0 64 3 87 3c19 0 32 -9 32 -25c0 -35 -40 -22 -40 -60c0 -10 3 -18 12 -40l84 -215l84 209c7 17 13 32 13 43c0 40 -46 29 -46 63
c0 16 10 25 29 25c22 0 45 -3 63 -3s41 3 60 3c15 0 25 -9 25 -22c0 -35 -30 -24 -53 -79l-140 -333v-170c0 -69 53 -43 53 -86c0 -14 -10 -26 -30 -26c-21 0 -42 3 -91 3c-46 0 -68 -3 -89 -3zM161 782c0 9 2 15 9 28c20 40 34 66 57 104c11 19 21 27 54 27
c32 0 42 -7 54 -28c19 -32 42 -71 56 -102c7 -13 10 -19 10 -29c0 -13 -10 -22 -26 -22c-11 0 -22 6 -34 22l-60 80l-61 -80c-14 -18 -25 -22 -34 -22c-16 0 -25 9 -25 22z" />
    <glyph glyph-name="ycircumflex" unicode="&#x177;" horiz-adv-x="449" 
d="M122 -193c-27 0 -53 10 -61 23c-15 22 -31 92 -31 122c0 18 9 32 22 32c8 0 16 -7 21 -17c28 -48 45 -71 72 -71c21 0 37 32 49 84l-135 403c-25 74 -59 62 -59 96c0 14 11 23 24 23c19 0 44 -3 85 -3c39 0 61 3 81 3s30 -9 30 -24c0 -36 -33 -24 -33 -70
c0 -11 5 -31 13 -58l56 -192l53 191c7 28 12 45 12 62c0 41 -34 31 -34 67c0 15 9 24 29 24c15 0 32 -3 52 -3c18 0 37 3 51 3s24 -9 24 -23c0 -34 -36 -22 -57 -94l-120 -420c-30 -102 -81 -158 -144 -158zM122 596c0 9 2 15 9 28c20 40 34 66 57 104c11 19 21 27 54 27
c32 0 42 -7 54 -28c19 -32 42 -71 56 -102c7 -13 10 -19 10 -29c0 -13 -10 -22 -26 -22c-11 0 -22 6 -34 22l-60 80l-61 -80c-14 -18 -25 -22 -34 -22c-16 0 -25 9 -25 22z" />
    <glyph glyph-name="Ydieresis" unicode="&#x178;" horiz-adv-x="524" 
d="M171 -2c-20 0 -29 12 -29 26c0 43 53 17 53 86v169l-138 336c-21 50 -50 44 -50 76c0 14 11 23 27 23c18 0 41 -3 84 -3c39 0 64 3 87 3c19 0 32 -9 32 -25c0 -35 -40 -22 -40 -60c0 -10 3 -18 12 -40l84 -215l84 209c7 17 13 32 13 43c0 40 -46 29 -46 63
c0 16 10 25 29 25c22 0 45 -3 63 -3s41 3 60 3c15 0 25 -9 25 -22c0 -35 -30 -24 -53 -79l-140 -333v-170c0 -69 53 -43 53 -86c0 -14 -10 -26 -30 -26c-21 0 -42 3 -91 3c-46 0 -68 -3 -89 -3zM132 839c0 38 28 67 67 67c37 0 63 -27 63 -65c0 -39 -26 -66 -65 -66
c-37 0 -65 27 -65 64zM300 839c0 38 27 67 66 67c38 0 64 -27 64 -65s-26 -66 -66 -66c-37 0 -64 27 -64 64z" />
    <glyph glyph-name="Zacute" unicode="&#x179;" horiz-adv-x="502" 
d="M400 -23c-23 0 -27 23 -60 23h-225c-38 0 -60 -3 -76 -3c-19 0 -30 14 -30 27c0 7 2 15 6 23l298 599h-90c-63 0 -89 -42 -140 -117c-13 -21 -23 -29 -34 -29c-13 0 -26 10 -26 27s9 36 23 75l28 83c13 37 24 50 39 50c23 0 26 -23 58 -23h195c40 0 60 3 75 3
c21 0 34 -13 34 -27c0 -7 -4 -17 -9 -27l-295 -594h110c59 0 88 33 154 137c11 17 22 24 34 24s25 -12 25 -26c0 -20 -8 -43 -22 -83l-34 -98c-10 -27 -19 -44 -38 -44zM227 769c0 7 4 17 7 25c15 39 37 86 54 121c10 19 22 24 54 24c42 0 50 -6 50 -23
c0 -13 -9 -24 -30 -50c-20 -25 -47 -67 -74 -93c-14 -16 -24 -20 -38 -20c-15 0 -23 7 -23 16z" />
    <glyph glyph-name="zacute" unicode="&#x17a;" horiz-adv-x="413" 
d="M331 -21c-21 0 -26 21 -51 21h-156c-38 0 -61 -4 -78 -4c-20 0 -31 13 -31 27c0 11 5 19 9 28l201 387h-53c-41 0 -62 -22 -93 -73c-9 -15 -15 -22 -29 -22c-11 0 -21 9 -21 23c0 10 6 29 11 48l22 75c6 23 14 33 29 33c20 0 25 -22 50 -22h134c44 0 61 3 78 3
c20 0 32 -11 32 -25c0 -10 -6 -18 -10 -26l-200 -390h55c53 0 82 28 120 91c7 11 17 21 28 21c12 0 22 -9 22 -25c0 -14 -6 -32 -11 -49l-25 -86c-5 -15 -12 -35 -33 -35zM178 583c0 7 4 17 7 25c15 39 37 86 54 121c10 19 22 24 54 24c42 0 50 -6 50 -23
c0 -13 -9 -24 -30 -50c-20 -25 -47 -67 -74 -93c-14 -16 -24 -20 -38 -20c-15 0 -23 7 -23 16z" />
    <glyph glyph-name="Zdotaccent" unicode="&#x17b;" horiz-adv-x="502" 
d="M400 -23c-23 0 -27 23 -60 23h-225c-38 0 -60 -3 -76 -3c-19 0 -30 14 -30 27c0 7 2 15 6 23l298 599h-90c-63 0 -89 -42 -140 -117c-13 -21 -23 -29 -34 -29c-13 0 -26 10 -26 27s9 36 23 75l28 83c13 37 24 50 39 50c23 0 26 -23 58 -23h195c40 0 60 3 75 3
c21 0 34 -13 34 -27c0 -7 -4 -17 -9 -27l-295 -594h110c59 0 88 33 154 137c11 17 22 24 34 24s25 -12 25 -26c0 -20 -8 -43 -22 -83l-34 -98c-10 -27 -19 -44 -38 -44zM206 839c0 38 27 67 66 67c38 0 64 -27 64 -65c0 -39 -26 -66 -65 -66c-38 0 -65 27 -65 64z" />
    <glyph glyph-name="zdotaccent" unicode="&#x17c;" horiz-adv-x="413" 
d="M331 -21c-21 0 -26 21 -51 21h-156c-38 0 -61 -4 -78 -4c-20 0 -31 13 -31 27c0 11 5 19 9 28l201 387h-53c-41 0 -62 -22 -93 -73c-9 -15 -15 -22 -29 -22c-11 0 -21 9 -21 23c0 10 6 29 11 48l22 75c6 23 14 33 29 33c20 0 25 -22 50 -22h134c44 0 61 3 78 3
c20 0 32 -11 32 -25c0 -10 -6 -18 -10 -26l-200 -390h55c53 0 82 28 120 91c7 11 17 21 28 21c12 0 22 -9 22 -25c0 -14 -6 -32 -11 -49l-25 -86c-5 -15 -12 -35 -33 -35zM158 653c0 38 27 67 66 67c38 0 64 -27 64 -65c0 -39 -26 -66 -65 -66c-38 0 -65 27 -65 64z" />
    <glyph glyph-name="Zcaron" unicode="&#x17d;" horiz-adv-x="502" 
d="M400 -23c-23 0 -27 23 -60 23h-225c-38 0 -60 -3 -76 -3c-19 0 -30 14 -30 27c0 7 2 15 6 23l298 599h-90c-63 0 -89 -42 -140 -117c-13 -21 -23 -29 -34 -29c-13 0 -26 10 -26 27s9 36 23 75l28 83c13 37 24 50 39 50c23 0 26 -23 58 -23h195c40 0 60 3 75 3
c21 0 34 -13 34 -27c0 -7 -4 -17 -9 -27l-295 -594h110c59 0 88 33 154 137c11 17 22 24 34 24s25 -12 25 -26c0 -20 -8 -43 -22 -83l-34 -98c-10 -27 -19 -44 -38 -44zM150 925c0 13 10 22 26 22c11 0 22 -6 34 -22l61 -80l60 80c14 18 25 22 34 22c16 0 25 -9 25 -22
c0 -9 -2 -15 -9 -28c-20 -40 -34 -66 -57 -104c-11 -19 -21 -27 -54 -27c-32 0 -42 7 -54 28c-19 32 -42 71 -56 102c-7 13 -10 19 -10 29z" />
    <glyph glyph-name="zcaron" unicode="&#x17e;" horiz-adv-x="413" 
d="M331 -21c-21 0 -26 21 -51 21h-156c-38 0 -61 -4 -78 -4c-20 0 -31 13 -31 27c0 11 5 19 9 28l201 387h-53c-41 0 -62 -22 -93 -73c-9 -15 -15 -22 -29 -22c-11 0 -21 9 -21 23c0 10 6 29 11 48l22 75c6 23 14 33 29 33c20 0 25 -22 50 -22h134c44 0 61 3 78 3
c20 0 32 -11 32 -25c0 -10 -6 -18 -10 -26l-200 -390h55c53 0 82 28 120 91c7 11 17 21 28 21c12 0 22 -9 22 -25c0 -14 -6 -32 -11 -49l-25 -86c-5 -15 -12 -35 -33 -35zM101 739c0 13 10 22 26 22c11 0 22 -6 34 -22l61 -80l60 80c14 18 25 22 34 22c16 0 25 -9 25 -22
c0 -9 -2 -15 -9 -28c-20 -40 -34 -66 -57 -104c-11 -19 -21 -27 -54 -27c-32 0 -42 7 -54 28c-19 32 -42 71 -56 102c-7 13 -10 19 -10 29z" />
    <glyph glyph-name="florin" unicode="&#x192;" horiz-adv-x="470" 
d="M71 -88c-33 0 -50 12 -50 38c0 52 22 109 46 109c11 0 17 -5 21 -20c13 -39 18 -57 32 -57c9 0 19 8 21 30c2 26 1 50 6 84l43 333h-52c-10 0 -16 6 -16 20c0 29 13 47 29 47h41c-4 26 -12 55 -12 103c0 95 66 166 155 166c72 0 123 -35 123 -73c0 -23 -13 -48 -42 -85
c-12 -13 -22 -22 -32 -22c-11 0 -19 9 -19 27c0 66 -6 96 -34 96c-27 0 -39 -36 -39 -85c0 -46 16 -85 21 -127h84c10 0 17 -5 17 -20c0 -29 -13 -47 -29 -47h-74l-40 -332c-15 -124 -115 -185 -200 -185z" />
    <glyph glyph-name="uni0218" unicode="&#x218;" horiz-adv-x="506" 
d="M108 -21c-19 0 -26 17 -33 38l-32 97c-15 45 -25 72 -25 89c0 19 13 31 26 31c19 0 26 -14 35 -28c48 -74 110 -148 186 -148c53 0 94 37 94 100s-39 103 -129 155c-86 50 -195 116 -195 237c0 104 82 178 177 178c50 0 79 -20 93 -20c17 0 19 28 43 28
c23 0 29 -24 46 -61l20 -47c20 -46 31 -76 31 -91c0 -13 -11 -24 -23 -24c-14 0 -22 9 -37 29c-51 65 -91 115 -148 115c-46 0 -75 -36 -75 -78c0 -50 35 -82 110 -127c112 -67 215 -135 215 -260c0 -127 -93 -207 -202 -207c-64 0 -104 27 -124 27c-21 0 -24 -33 -53 -33z
M203 -97c0 35 27 58 66 58c41 0 66 -26 66 -74c0 -75 -63 -145 -101 -145c-13 0 -22 8 -22 19s8 17 18 24c13 11 24 25 24 42c0 15 -10 21 -27 32c-15 9 -24 23 -24 44z" />
    <glyph glyph-name="uni0219" unicode="&#x219;" horiz-adv-x="410" 
d="M94 -18c-19 0 -27 20 -33 38l-23 68c-12 34 -18 52 -18 64c0 16 12 25 24 25c13 0 22 -12 29 -21c42 -58 86 -106 143 -106c37 0 63 24 63 57c0 44 -39 64 -101 95c-74 38 -145 76 -145 169c0 82 61 138 135 138c45 0 72 -18 84 -18c11 0 17 20 35 20s26 -17 34 -36
l26 -57c10 -23 18 -44 18 -53c0 -14 -10 -22 -20 -22c-12 0 -20 8 -31 20c-44 49 -83 79 -120 79c-29 0 -50 -19 -50 -49c0 -38 37 -54 93 -85c77 -42 153 -76 153 -176c0 -94 -78 -145 -158 -145c-48 0 -81 20 -97 20c-20 0 -17 -25 -41 -25zM161 -97c0 35 27 58 66 58
c41 0 66 -26 66 -74c0 -75 -63 -145 -101 -145c-13 0 -22 8 -22 19s8 17 18 24c13 11 24 25 24 42c0 15 -10 21 -27 32c-15 9 -24 23 -24 44z" />
    <glyph glyph-name="uni021A" unicode="&#x21a;" horiz-adv-x="552" 
d="M186 -2c-19 0 -30 12 -30 26c0 42 54 19 54 86v492c0 32 -11 43 -33 43h-9c-40 0 -64 -38 -112 -115c-8 -13 -19 -25 -33 -25c-13 0 -25 10 -25 28c0 15 6 35 17 69l25 83c12 36 23 50 40 50c25 0 28 -23 55 -23h282c26 0 29 23 54 23c17 0 29 -14 40 -50l26 -83
c10 -34 16 -54 16 -69c0 -18 -12 -28 -24 -28c-14 0 -25 12 -34 25c-48 77 -71 115 -111 115h-10c-21 0 -32 -11 -32 -43v-492c0 -67 53 -44 53 -86c0 -14 -10 -26 -29 -26c-18 0 -43 3 -91 3c-47 0 -70 -3 -89 -3zM198 -97c0 35 27 58 66 58c41 0 66 -26 66 -74
c0 -75 -63 -145 -101 -145c-13 0 -22 8 -22 19s8 17 18 24c13 11 24 25 24 42c0 15 -10 21 -27 32c-15 9 -24 23 -24 44z" />
    <glyph glyph-name="uni021B" unicode="&#x21b;" horiz-adv-x="318" 
d="M181 -12c-64 0 -114 47 -114 101c0 21 4 91 4 160v186h-34c-16 0 -29 11 -29 28c0 16 9 24 27 35c44 27 72 68 99 147c13 33 21 41 35 41c13 0 23 -9 23 -31v-155h91c13 0 20 -6 20 -20c0 -8 -1 -18 -3 -25c-3 -14 -10 -20 -21 -20h-87v-289c0 -60 14 -76 34 -76
c19 0 30 16 43 32c5 6 13 14 22 14c13 0 21 -10 21 -24c0 -13 -8 -30 -19 -46c-24 -35 -58 -58 -112 -58zM120 -97c0 35 27 58 66 58c41 0 66 -26 66 -74c0 -75 -63 -145 -101 -145c-13 0 -22 8 -22 19s8 17 18 24c13 11 24 25 24 42c0 15 -10 21 -27 32
c-15 9 -24 23 -24 44z" />
    <glyph glyph-name="uni0237" unicode="&#x237;" horiz-adv-x="239" 
d="M18 -193c-38 0 -53 19 -53 58c0 42 6 82 30 82c9 0 16 -5 22 -18c15 -38 25 -55 39 -55c10 0 15 9 15 26c0 26 -6 56 -6 91v355c0 63 -45 31 -45 72c0 19 20 31 74 59c43 22 58 30 68 30c21 0 25 -21 25 -42v-468c0 -120 -85 -190 -169 -190z" />
    <glyph glyph-name="circumflex" unicode="&#x2c6;" horiz-adv-x="319" 
d="M65 578c-16 0 -25 9 -25 22c0 9 2 15 9 28c20 40 34 66 57 104c11 19 21 27 54 27c32 0 42 -7 54 -28c19 -32 42 -71 56 -102c7 -13 10 -19 10 -29c0 -13 -10 -22 -26 -22c-11 0 -22 6 -34 22l-60 80l-61 -80c-14 -18 -25 -22 -34 -22z" />
    <glyph glyph-name="caron" unicode="&#x2c7;" horiz-adv-x="319" 
d="M254 765c16 0 25 -9 25 -22c0 -9 -2 -15 -9 -28c-20 -40 -34 -66 -57 -104c-11 -19 -21 -27 -54 -27c-32 0 -42 7 -54 28c-19 32 -42 71 -56 102c-7 13 -10 19 -10 29c0 13 10 22 26 22c11 0 22 -6 34 -22l61 -80l60 80c14 18 25 22 34 22z" />
    <glyph glyph-name="breve" unicode="&#x2d8;" horiz-adv-x="325" 
d="M163 580c-55 0 -97 36 -116 107c-3 14 -5 27 -5 40c0 16 10 29 27 29c16 0 24 -16 34 -40c16 -39 31 -57 60 -57s42 20 57 57c9 21 20 40 38 40c17 0 25 -13 25 -29c0 -13 -2 -27 -8 -44c-22 -67 -58 -103 -112 -103z" />
    <glyph glyph-name="dotaccent" unicode="&#x2d9;" horiz-adv-x="325" 
d="M163 593c-38 0 -65 27 -65 64c0 38 27 67 66 67c38 0 64 -27 64 -65c0 -39 -26 -66 -65 -66z" />
    <glyph glyph-name="ring" unicode="&#x2da;" horiz-adv-x="325" 
d="M162 562c-65 0 -98 37 -98 104c0 65 37 102 101 102c62 0 97 -35 97 -98c0 -69 -35 -108 -100 -108zM126 663c0 -36 13 -57 36 -57c26 0 38 20 38 61c0 37 -13 58 -36 58c-25 0 -38 -20 -38 -62z" />
    <glyph glyph-name="ogonek" unicode="&#x2db;" horiz-adv-x="326" 
d="M143 -200c-38 0 -72 28 -72 78s35 100 82 145l32 -18c-24 -35 -45 -71 -45 -112c0 -25 9 -38 24 -38c6 0 11 1 18 6c4 4 8 6 14 6c8 0 16 -7 16 -17s-5 -19 -13 -27c-16 -16 -36 -23 -56 -23z" />
    <glyph glyph-name="tilde" unicode="&#x2dc;" horiz-adv-x="325" 
d="M212 588c-53 0 -79 76 -99 76c-11 0 -18 -11 -26 -33c-8 -23 -15 -35 -28 -35c-15 0 -24 9 -24 27c0 6 1 18 6 36c11 42 33 81 73 81c52 0 75 -77 100 -77c11 0 18 11 26 35c6 18 14 34 28 34c16 0 24 -10 24 -26c0 -8 -2 -22 -6 -37c-11 -45 -35 -81 -74 -81z" />
    <glyph glyph-name="hungarumlaut" unicode="&#x2dd;" horiz-adv-x="325" 
d="M210 565c-12 0 -17 8 -17 18c0 7 3 18 7 29c10 32 25 83 39 122c7 19 17 25 43 25s41 -6 41 -23c0 -15 -6 -24 -21 -51c-19 -33 -35 -60 -57 -97c-11 -18 -22 -23 -35 -23zM74 583c0 8 4 17 7 28c10 36 29 94 39 122c7 21 19 26 43 26c26 0 41 -6 41 -23s-10 -30 -22 -51
c-23 -41 -34 -60 -56 -97c-11 -18 -21 -23 -34 -23c-11 0 -18 8 -18 18z" />
    <glyph glyph-name="uni0326" unicode="&#x326;" horiz-adv-x="0" 
d="M-245 -258c-13 0 -22 8 -22 19s8 17 18 24c13 11 24 25 24 42c0 15 -10 21 -27 32c-15 9 -24 23 -24 44c0 35 27 58 66 58c41 0 66 -26 66 -74c0 -75 -63 -145 -101 -145z" />
    <glyph glyph-name="Wgrave" unicode="&#x1e80;" horiz-adv-x="815" 
d="M559 -11c-50 0 -59 13 -64 36l-87 362l-85 -361c-6 -25 -20 -37 -67 -37c-52 0 -57 16 -63 37l-140 576c-16 67 -56 51 -56 89c0 14 12 23 28 23c20 0 42 -3 87 -3c42 0 57 3 81 3c20 0 31 -8 31 -25c0 -33 -37 -26 -37 -66c0 -12 4 -32 9 -55l92 -395l84 361l-16 68
c-16 65 -49 53 -49 88c0 15 13 24 27 24c21 0 39 -3 85 -3s63 3 86 3c19 0 30 -8 30 -25c0 -35 -47 -26 -47 -66c0 -10 4 -31 9 -55l92 -395l87 389c8 35 10 49 10 61c0 40 -51 31 -51 66c0 15 11 25 30 25c23 0 44 -3 64 -3s43 3 61 3c19 0 29 -9 29 -22
c0 -39 -44 -22 -59 -88l-136 -578c-5 -23 -16 -37 -65 -37zM299 917c0 16 9 22 51 22c34 0 45 -6 53 -24c19 -36 37 -77 55 -122c3 -9 7 -18 7 -25c0 -9 -10 -16 -24 -16c-13 0 -23 3 -38 20c-25 27 -55 71 -74 94c-18 23 -30 36 -30 51z" />
    <glyph glyph-name="wgrave" unicode="&#x1e81;" horiz-adv-x="691" 
d="M471 -7c-51 0 -57 17 -64 40l-58 221l-59 -221c-5 -20 -12 -40 -68 -40c-47 0 -57 14 -65 40l-103 357c-20 67 -54 53 -54 88c0 15 13 24 26 24c18 0 45 -3 85 -3c31 0 50 3 69 3c21 0 32 -9 32 -24c0 -34 -29 -25 -29 -71c0 -10 4 -33 9 -54l61 -231l67 244l-7 25
c-18 67 -49 52 -49 87c0 15 13 24 26 24c17 0 41 -3 81 -3c34 0 59 3 79 3s32 -9 32 -24c0 -35 -36 -30 -38 -71c-2 -15 1 -29 7 -54l50 -227l56 227c7 29 11 45 11 57c0 43 -37 33 -37 68c0 15 12 24 31 24c16 0 32 -3 52 -3c18 0 38 3 52 3c13 0 25 -9 25 -24
c0 -35 -37 -22 -54 -88l-97 -357c-7 -23 -14 -40 -69 -40zM249 733c0 16 9 22 51 22c34 0 45 -6 53 -24c19 -36 37 -77 55 -122c3 -9 7 -18 7 -25c0 -9 -10 -16 -24 -16c-13 0 -23 3 -38 20c-25 27 -55 71 -74 94c-18 23 -30 36 -30 51z" />
    <glyph glyph-name="Wacute" unicode="&#x1e82;" horiz-adv-x="815" 
d="M559 -11c-50 0 -59 13 -64 36l-87 362l-85 -361c-6 -25 -20 -37 -67 -37c-52 0 -57 16 -63 37l-140 576c-16 67 -56 51 -56 89c0 14 12 23 28 23c20 0 42 -3 87 -3c42 0 57 3 81 3c20 0 31 -8 31 -25c0 -33 -37 -26 -37 -66c0 -12 4 -32 9 -55l92 -395l84 361l-16 68
c-16 65 -49 53 -49 88c0 15 13 24 27 24c21 0 39 -3 85 -3s63 3 86 3c19 0 30 -8 30 -25c0 -35 -47 -26 -47 -66c0 -10 4 -31 9 -55l92 -395l87 389c8 35 10 49 10 61c0 40 -51 31 -51 66c0 15 11 25 30 25c23 0 44 -3 64 -3s43 3 61 3c19 0 29 -9 29 -22
c0 -39 -44 -22 -59 -88l-136 -578c-5 -23 -16 -37 -65 -37zM377 768c0 7 4 17 7 25c15 39 37 86 54 121c10 19 22 24 54 24c42 0 50 -6 50 -23c0 -13 -9 -24 -30 -50c-20 -25 -47 -67 -74 -93c-14 -16 -24 -20 -38 -20c-15 0 -23 7 -23 16z" />
    <glyph glyph-name="wacute" unicode="&#x1e83;" horiz-adv-x="691" 
d="M471 -7c-51 0 -57 17 -64 40l-58 221l-59 -221c-5 -20 -12 -40 -68 -40c-47 0 -57 14 -65 40l-103 357c-20 67 -54 53 -54 88c0 15 13 24 26 24c18 0 45 -3 85 -3c31 0 50 3 69 3c21 0 32 -9 32 -24c0 -34 -29 -25 -29 -71c0 -10 4 -33 9 -54l61 -231l67 244l-7 25
c-18 67 -49 52 -49 87c0 15 13 24 26 24c17 0 41 -3 81 -3c34 0 59 3 79 3s32 -9 32 -24c0 -35 -36 -30 -38 -71c-2 -15 1 -29 7 -54l50 -227l56 227c7 29 11 45 11 57c0 43 -37 33 -37 68c0 15 12 24 31 24c16 0 32 -3 52 -3c18 0 38 3 52 3c13 0 25 -9 25 -24
c0 -35 -37 -22 -54 -88l-97 -357c-7 -23 -14 -40 -69 -40zM327 584c0 7 4 17 7 25c15 39 37 86 54 121c10 19 22 24 54 24c42 0 50 -6 50 -23c0 -13 -9 -24 -30 -50c-20 -25 -47 -67 -74 -93c-14 -16 -24 -20 -38 -20c-15 0 -23 7 -23 16z" />
    <glyph glyph-name="Wdieresis" unicode="&#x1e84;" horiz-adv-x="815" 
d="M559 -11c-50 0 -59 13 -64 36l-87 362l-85 -361c-6 -25 -20 -37 -67 -37c-52 0 -57 16 -63 37l-140 576c-16 67 -56 51 -56 89c0 14 12 23 28 23c20 0 42 -3 87 -3c42 0 57 3 81 3c20 0 31 -8 31 -25c0 -33 -37 -26 -37 -66c0 -12 4 -32 9 -55l92 -395l84 361l-16 68
c-16 65 -49 53 -49 88c0 15 13 24 27 24c21 0 39 -3 85 -3s63 3 86 3c19 0 30 -8 30 -25c0 -35 -47 -26 -47 -66c0 -10 4 -31 9 -55l92 -395l87 389c8 35 10 49 10 61c0 40 -51 31 -51 66c0 15 11 25 30 25c23 0 44 -3 64 -3s43 3 61 3c19 0 29 -9 29 -22
c0 -39 -44 -22 -59 -88l-136 -578c-5 -23 -16 -37 -65 -37zM271 838c0 38 28 67 67 67c37 0 63 -27 63 -65c0 -39 -26 -66 -65 -66c-37 0 -65 27 -65 64zM439 838c0 38 27 67 66 67c38 0 64 -27 64 -65s-26 -66 -66 -66c-37 0 -64 27 -64 64z" />
    <glyph glyph-name="wdieresis" unicode="&#x1e85;" horiz-adv-x="691" 
d="M471 -7c-51 0 -57 17 -64 40l-58 221l-59 -221c-5 -20 -12 -40 -68 -40c-47 0 -57 14 -65 40l-103 357c-20 67 -54 53 -54 88c0 15 13 24 26 24c18 0 45 -3 85 -3c31 0 50 3 69 3c21 0 32 -9 32 -24c0 -34 -29 -25 -29 -71c0 -10 4 -33 9 -54l61 -231l67 244l-7 25
c-18 67 -49 52 -49 87c0 15 13 24 26 24c17 0 41 -3 81 -3c34 0 59 3 79 3s32 -9 32 -24c0 -35 -36 -30 -38 -71c-2 -15 1 -29 7 -54l50 -227l56 227c7 29 11 45 11 57c0 43 -37 33 -37 68c0 15 12 24 31 24c16 0 32 -3 52 -3c18 0 38 3 52 3c13 0 25 -9 25 -24
c0 -35 -37 -22 -54 -88l-97 -357c-7 -23 -14 -40 -69 -40zM222 654c0 38 28 67 67 67c37 0 63 -27 63 -65c0 -39 -26 -66 -65 -66c-37 0 -65 27 -65 64zM390 654c0 38 27 67 66 67c38 0 64 -27 64 -65s-26 -66 -66 -66c-37 0 -64 27 -64 64z" />
    <glyph glyph-name="uni1E9E" unicode="&#x1e9e;" horiz-adv-x="588" 
d="M321 508c8 17 14 30 14 50c0 59 -42 110 -91 110c-37 0 -61 -30 -61 -100v-459c0 -69 43 -46 43 -87c0 -12 -9 -24 -28 -24s-37 3 -75 3c-39 0 -57 -3 -76 -3s-28 12 -28 24c0 41 43 18 43 87v429c0 113 72 190 181 190c79 0 150 -35 193 -76c15 -13 20 -26 20 -39
c0 -12 -4 -24 -14 -35l-86 -106c113 -70 222 -161 222 -309c0 -110 -61 -177 -133 -177c-47 0 -74 25 -93 25s-19 -30 -44 -30c-21 0 -28 21 -34 44l-25 93c-12 45 -20 66 -20 84c0 16 10 27 22 27c13 0 24 -11 32 -27c39 -73 87 -152 139 -152c28 0 51 27 51 80
c0 106 -102 193 -183 236c-22 12 -29 23 -29 37c0 12 4 18 12 32z" />
    <glyph glyph-name="Ygrave" unicode="&#x1ef2;" horiz-adv-x="524" 
d="M171 -2c-20 0 -29 12 -29 26c0 43 53 17 53 86v169l-138 336c-21 50 -50 44 -50 76c0 14 11 23 27 23c18 0 41 -3 84 -3c39 0 64 3 87 3c19 0 32 -9 32 -25c0 -35 -40 -22 -40 -60c0 -10 3 -18 12 -40l84 -215l84 209c7 17 13 32 13 43c0 40 -46 29 -46 63
c0 16 10 25 29 25c22 0 45 -3 63 -3s41 3 60 3c15 0 25 -9 25 -22c0 -35 -30 -24 -53 -79l-140 -333v-170c0 -69 53 -43 53 -86c0 -14 -10 -26 -30 -26c-21 0 -42 3 -91 3c-46 0 -68 -3 -89 -3zM159 918c0 16 9 22 51 22c34 0 45 -6 53 -24c19 -36 37 -77 55 -122
c3 -9 7 -18 7 -25c0 -9 -10 -16 -24 -16c-13 0 -23 3 -38 20c-25 27 -55 71 -74 94c-18 23 -30 36 -30 51z" />
    <glyph glyph-name="ygrave" unicode="&#x1ef3;" horiz-adv-x="449" 
d="M122 -193c-27 0 -53 10 -61 23c-15 22 -31 92 -31 122c0 18 9 32 22 32c8 0 16 -7 21 -17c28 -48 45 -71 72 -71c21 0 37 32 49 84l-135 403c-25 74 -59 62 -59 96c0 14 11 23 24 23c19 0 44 -3 85 -3c39 0 61 3 81 3s30 -9 30 -24c0 -36 -33 -24 -33 -70
c0 -11 5 -31 13 -58l56 -192l53 191c7 28 12 45 12 62c0 41 -34 31 -34 67c0 15 9 24 29 24c15 0 32 -3 52 -3c18 0 37 3 51 3s24 -9 24 -23c0 -34 -36 -22 -57 -94l-120 -420c-30 -102 -81 -158 -144 -158zM120 732c0 16 9 22 51 22c34 0 45 -6 53 -24
c19 -36 37 -77 55 -122c3 -9 7 -18 7 -25c0 -9 -10 -16 -24 -16c-13 0 -23 3 -38 20c-25 27 -55 71 -74 94c-18 23 -30 36 -30 51z" />
    <glyph glyph-name="endash" unicode="&#x2013;" horiz-adv-x="375" 
d="M63 217c-19 0 -31 5 -31 36v18c0 25 7 35 31 35h248c20 0 32 -5 32 -35v-18c0 -26 -7 -36 -32 -36h-248z" />
    <glyph glyph-name="emdash" unicode="&#x2014;" horiz-adv-x="727" 
d="M63 217c-19 0 -31 5 -31 36v18c0 25 7 35 31 35h601c20 0 32 -5 32 -35v-18c0 -26 -7 -36 -32 -36h-601z" />
    <glyph glyph-name="quoteleft" unicode="&#x2018;" horiz-adv-x="198" 
d="M138 727c14 0 23 -9 23 -22c0 -11 -6 -21 -21 -37c-16 -17 -30 -38 -30 -56s7 -25 31 -40c20 -12 37 -24 37 -56c0 -42 -37 -75 -81 -75c-48 0 -76 31 -76 89c0 98 70 197 117 197z" />
    <glyph glyph-name="quoteright" unicode="&#x2019;" horiz-adv-x="199" 
d="M62 435c-13 0 -22 9 -22 22c0 11 6 21 20 37c17 17 31 38 31 56s-7 26 -32 40c-19 12 -37 25 -37 56c0 43 37 76 82 76c48 0 76 -32 76 -90c0 -98 -70 -197 -118 -197z" />
    <glyph glyph-name="quotesinglbase" unicode="&#x201a;" horiz-adv-x="212" 
d="M64 -145c-14 0 -23 9 -23 22c0 12 6 22 21 38c17 18 31 39 31 58c0 18 -7 26 -32 41c-20 12 -38 25 -38 57c0 44 38 78 84 78c49 0 78 -32 78 -92c0 -101 -72 -202 -121 -202z" />
    <glyph glyph-name="quotedblleft" unicode="&#x201c;" horiz-adv-x="377" 
d="M138 727c14 0 23 -9 23 -21s-6 -22 -21 -37c-16 -18 -30 -38 -30 -57c0 -17 7 -25 31 -40c20 -11 37 -24 37 -55c0 -43 -37 -76 -81 -76c-48 0 -76 31 -76 89c0 99 70 197 117 197zM200 530c0 99 70 197 118 197c14 0 22 -9 22 -21s-6 -22 -20 -37
c-17 -18 -30 -38 -30 -57c0 -17 7 -25 31 -40c19 -11 37 -24 37 -55c0 -43 -37 -76 -82 -76c-48 0 -76 31 -76 89z" />
    <glyph glyph-name="quotedblright" unicode="&#x201d;" horiz-adv-x="377" 
d="M242 436c-14 0 -23 9 -23 21s6 22 21 37c16 18 30 38 30 57c0 17 -7 25 -31 40c-20 11 -37 24 -37 55c0 43 37 76 81 76c48 0 76 -31 76 -90c0 -98 -70 -196 -117 -196zM23 646c0 43 37 76 81 76c48 0 76 -31 76 -90c0 -98 -70 -196 -118 -196c-13 0 -22 9 -22 21
s6 22 20 37c17 18 31 38 31 57c0 17 -7 25 -31 40c-20 11 -37 24 -37 55z" />
    <glyph glyph-name="quotedblbase" unicode="&#x201e;" horiz-adv-x="396" 
d="M248 -145c-14 0 -23 9 -23 22c0 12 6 22 21 38c17 18 31 39 31 58c0 18 -7 26 -32 41c-20 12 -38 25 -38 57c0 44 38 78 84 78c49 0 78 -32 78 -92c0 -101 -72 -202 -121 -202zM23 71c0 44 38 78 84 78c49 0 78 -32 78 -92c0 -101 -72 -202 -121 -202c-14 0 -23 9 -23 22
c0 12 6 22 21 38c17 18 31 39 31 58c0 18 -7 26 -32 41c-20 12 -38 25 -38 57z" />
    <glyph glyph-name="dagger" unicode="&#x2020;" horiz-adv-x="443" 
d="M221 -131c-29 0 -43 11 -43 34v474c0 31 -7 40 -29 40h-100c-23 0 -35 13 -35 41c0 32 12 44 35 44h100c21 0 29 7 29 40v152c0 23 14 35 43 35c30 0 47 -12 46 -35l-2 -152c-1 -31 6 -40 29 -40h99c23 0 35 -12 35 -44c0 -27 -12 -41 -35 -41h-99c-21 0 -29 -7 -29 -40
v-474c0 -23 -14 -34 -44 -34z" />
    <glyph glyph-name="daggerdbl" unicode="&#x2021;" horiz-adv-x="461" 
d="M231 -131c-30 0 -44 11 -44 34v152c0 32 -7 41 -29 41h-100c-23 0 -35 12 -35 43c0 28 12 41 35 41h100c21 0 29 8 29 41v156c0 31 -7 40 -29 40h-100c-23 0 -35 13 -35 41c0 32 12 44 35 44h100c21 0 29 7 29 40v152c0 23 14 35 44 35c29 0 43 -12 43 -35v-152
c0 -31 6 -40 29 -40h100c22 0 35 -12 35 -44c0 -27 -12 -41 -35 -41h-100c-21 0 -29 -7 -29 -40v-156c0 -31 6 -41 29 -41h100c23 0 35 -13 35 -41c0 -31 -13 -43 -35 -43h-100c-21 0 -29 -8 -29 -41v-152c0 -23 -14 -34 -43 -34z" />
    <glyph glyph-name="bullet" unicode="&#x2022;" horiz-adv-x="359" 
d="M179 123c-76 0 -134 64 -134 141s58 141 134 141c77 0 135 -64 135 -141s-58 -141 -135 -141z" />
    <glyph glyph-name="ellipsis" unicode="&#x2026;" horiz-adv-x="626" 
d="M318 148c-50 0 -84 -37 -84 -83c0 -47 27 -74 71 -74c50 0 86 37 86 83c0 47 -30 74 -73 74zM23 65c0 -47 27 -74 71 -74c50 0 86 37 86 83c0 47 -30 74 -73 74c-50 0 -84 -37 -84 -83zM446 65c0 -47 27 -74 71 -74c50 0 86 37 86 83c0 47 -30 74 -73 74
c-50 0 -84 -37 -84 -83z" />
    <glyph glyph-name="perthousand" unicode="&#x2030;" horiz-adv-x="1019" 
d="M858 -7c-85 0 -141 81 -141 204s57 205 143 205c85 0 140 -80 140 -205c0 -123 -56 -204 -142 -204zM19 535c0 123 56 205 142 205c85 0 140 -80 140 -205c0 -123 -56 -203 -142 -203c-85 0 -140 81 -140 203zM117 535c0 -101 17 -150 43 -150c27 0 43 50 43 150
c0 101 -16 151 -43 151c-26 0 -43 -48 -43 -151zM140 11c0 17 10 38 26 71l291 611c15 31 35 49 65 49c21 0 31 -13 31 -28s-8 -37 -24 -71l-292 -611c-15 -32 -36 -49 -62 -49c-23 0 -35 13 -35 28zM399 197c0 123 56 205 142 205c85 0 140 -80 140 -205
c0 -123 -56 -204 -142 -204c-85 0 -140 81 -140 204zM497 197c0 -102 17 -150 43 -150c27 0 44 50 44 150c0 101 -17 151 -44 151c-26 0 -43 -49 -43 -151zM816 197c0 -102 17 -150 43 -150s43 50 43 150c0 101 -17 151 -43 151s-43 -49 -43 -151z" />
    <glyph glyph-name="guilsinglleft" unicode="&#x2039;" horiz-adv-x="259" 
d="M205 33c-15 0 -32 18 -53 42l-90 104c-17 19 -33 38 -33 64c0 24 16 42 34 62l89 104c22 26 38 44 52 44c13 0 23 -10 23 -25c0 -16 -13 -40 -30 -71l-56 -105c-2 -3 -3 -6 -3 -9s1 -6 2 -9l57 -106c17 -31 30 -55 30 -71c0 -15 -9 -24 -22 -24z" />
    <glyph glyph-name="guilsinglright" unicode="&#x203a;" horiz-adv-x="259" 
d="M54 33c-13 0 -22 9 -22 24c0 16 13 40 30 71l57 106c1 3 2 6 2 9s-1 6 -3 9l-56 105c-17 31 -30 55 -30 71c0 15 10 25 23 25c14 0 30 -18 52 -44l89 -104c18 -20 34 -38 34 -62c0 -26 -16 -45 -33 -64l-90 -104c-21 -24 -38 -42 -53 -42z" />
    <glyph glyph-name="fraction" unicode="&#x2044;" horiz-adv-x="146" 
d="M-71 -15c-27 0 -39 18 -39 35c0 13 4 26 14 50l266 600c11 26 23 48 46 48c27 0 40 -17 40 -33c0 -14 -4 -26 -15 -51l-266 -601c-12 -28 -25 -48 -46 -48z" />
    <glyph glyph-name="uni2074" unicode="&#x2074;" horiz-adv-x="323" 
d="M147 253c-15 0 -22 10 -22 19c0 25 30 14 30 60v28h-113c-19 0 -36 7 -36 30c0 20 10 39 25 75l94 212c12 29 24 44 58 44h36c22 0 42 -4 42 -33v-248h18c13 0 23 0 23 -29v-22c0 -17 0 -29 -23 -29h-18v-28c0 -47 26 -36 26 -60c0 -9 -8 -19 -22 -19c-13 0 -23 2 -56 2
c-34 0 -50 -2 -62 -2zM74 440h88v205z" />
    <glyph glyph-name="Euro" unicode="&#x20ac;" horiz-adv-x="496" 
d="M282 -16c-103 0 -174 96 -194 261h-29c-19 0 -29 10 -29 31s10 31 29 31h24c-1 12 -1 24 -1 37c0 19 1 38 2 56h-25c-19 0 -29 10 -29 32c0 23 12 31 29 31h33c27 159 106 265 185 265c44 0 67 -22 84 -22c15 0 23 26 37 26c16 0 24 -20 32 -54l21 -85
c9 -40 15 -60 15 -76c0 -19 -12 -29 -24 -29s-22 10 -31 28c-42 92 -65 146 -102 146c-34 0 -69 -79 -82 -199h105c16 0 29 -8 29 -31c0 -22 -11 -32 -29 -32h-109c-1 -13 -1 -26 -1 -40c0 -18 0 -36 1 -53h123c18 0 29 -8 29 -31s-11 -31 -29 -31h-118
c14 -109 47 -171 92 -171c42 0 69 44 93 100c6 14 14 25 29 25c14 0 25 -11 25 -28c0 -11 -4 -26 -11 -44c-26 -68 -81 -143 -174 -143z" />
    <glyph glyph-name="uni20B9" unicode="&#x20b9;" horiz-adv-x="450" 
d="M54 280c-18 0 -29 8 -29 31c0 21 10 31 29 31h70c44 0 75 36 81 119h-151c-19 0 -29 10 -29 31c0 23 11 31 29 31h151c-8 89 -48 125 -94 125h-57c-18 0 -29 8 -29 31c0 21 10 31 29 31h345c19 0 30 -9 30 -31c0 -21 -11 -31 -30 -31h-109c31 -31 52 -73 57 -125h52
c19 0 30 -10 30 -31c0 -22 -11 -31 -30 -31h-52c-8 -80 -50 -134 -115 -161l116 -200c30 -51 69 -38 69 -82c0 -12 -9 -21 -22 -21c-21 0 -63 3 -105 3c-36 0 -67 -3 -85 -3c-19 0 -31 9 -31 25c0 34 31 22 31 58c0 15 -8 28 -17 46l-62 123c-12 22 -13 31 -34 31h-38z" />
    <glyph glyph-name="uni20BA" unicode="&#x20ba;" horiz-adv-x="486" 
d="M86 -3c-21 0 -29 12 -29 25c0 40 42 17 42 86v128l-25 -15c-6 -3 -10 -7 -17 -7c-13 0 -23 16 -23 33c0 13 8 21 20 29l45 28v86l-23 -14c-7 -4 -12 -7 -18 -7c-14 0 -24 16 -24 33c0 12 7 20 20 28l45 28v145c0 68 -42 46 -42 87c0 13 12 24 31 24c18 0 34 -3 77 -3
c45 0 63 3 81 3c20 0 29 -11 29 -24c0 -41 -43 -19 -43 -87v-63l96 60c8 5 12 7 18 7c14 0 24 -16 24 -32c0 -12 -8 -22 -20 -30l-118 -73v-87l99 61c4 3 9 6 15 6c14 0 24 -16 24 -32c0 -12 -7 -21 -20 -29l-118 -73v-206c0 -26 7 -41 33 -41h8c80 0 123 90 123 194
c0 32 -7 63 -7 79c0 21 11 32 27 32c32 0 42 -67 42 -114c0 -147 -69 -262 -199 -262h-94c-43 0 -62 -3 -79 -3z" />
    <glyph glyph-name="uni20BD" unicode="&#x20bd;" horiz-adv-x="515" 
d="M77 -2c-20 0 -28 12 -28 24c0 41 43 18 43 87v32h-26c-17 0 -29 7 -29 30c0 22 10 32 29 32h26v71h-26c-17 0 -29 8 -29 31c0 21 10 32 29 32h26v265c0 69 -43 47 -43 88c0 12 11 24 31 24c19 0 35 -3 77 -3c29 0 66 6 124 6c132 0 208 -85 208 -224
c0 -141 -68 -223 -218 -223h-47v-67h111c19 0 29 -10 29 -32c0 -24 -13 -30 -29 -30h-111v-31c0 -69 54 -43 54 -88c0 -12 -9 -24 -28 -24c-20 0 -44 3 -91 3c-45 0 -63 -3 -82 -3zM224 338h38c53 0 86 60 86 154c0 113 -37 158 -81 158c-32 0 -43 -16 -43 -45v-267z" />
    <glyph glyph-name="uni20BF" unicode="&#x20bf;" horiz-adv-x="492" 
d="M53 -2c-18 0 -27 13 -27 26c0 39 36 16 36 85v493c0 69 -36 47 -36 86c0 15 9 26 27 26c17 0 32 -3 74 -3h24v90c0 25 9 38 29 38c23 0 29 -15 29 -38v-86c14 0 29 1 46 1h5v85c0 25 9 38 30 38c22 0 29 -15 29 -38v-93c76 -22 122 -84 122 -171c0 -67 -24 -125 -89 -151
c73 -28 121 -95 121 -187c0 -109 -49 -183 -154 -199v-102c0 -23 -6 -39 -29 -39s-30 16 -30 39v99l-51 2v-101c0 -23 -5 -39 -29 -39c-22 0 -29 16 -29 39v103h-24c-42 0 -57 -3 -74 -3zM193 119c0 -32 0 -54 41 -54h13c50 0 83 50 83 134c0 91 -37 150 -98 150h-18
c-7 0 -21 -2 -21 -27v-203zM193 436c0 -10 2 -23 22 -23h17c40 0 70 36 70 115c0 74 -27 120 -74 120h-3c-23 0 -32 -15 -32 -50v-162z" />
    </font>
</defs>
</svg>
